<svg width="602" height="375" viewBox="0 0 602 375" fill="none" xmlns="http://www.w3.org/2000/svg">
<path d="M126.733 302.707C136.537 295.867 139.835 287.436 140.956 275.536C141.475 269.563 140.707 263.549 138.704 257.898C136.701 252.247 133.51 247.092 129.344 242.78C122.378 235.66 112.79 230.979 107.595 222.467C102.065 213.431 102.254 201.043 94.5738 193.706C89.2968 188.673 81.58 187.326 75.1645 183.838C69.9326 180.992 65.6315 176.745 60.8424 173.203C56.0533 169.661 50.3697 166.724 44.433 167.167C35.4783 167.845 28.5026 176.637 28.0779 185.609C27.6532 194.582 32.6591 203.166 39.5084 208.976C44.4782 213.196 50.5956 216.422 53.8485 222.07C59.9569 232.669 53.5775 247.37 60.1737 257.726C64.9628 265.271 75.8331 268.876 77.3421 277.686C77.8933 280.93 76.9717 284.228 76.9988 287.517C77.0801 297.791 86.6854 306.077 96.8057 307.894C106.926 309.71 117.236 306.547 126.769 302.707" fill="#467A1F"/>
<path d="M63.8418 203.284C64.1556 203.722 64.5162 204.125 64.9171 204.486L68.17 207.757C69.6068 209.148 71.3417 210.874 73.2212 213.007C75.1007 215.139 77.4048 217.407 79.6277 220.235C80.7753 221.609 81.9771 223.046 83.2421 224.546C84.5071 226.046 85.6547 227.708 86.9288 229.371C89.5311 232.669 91.9799 236.437 94.6365 240.341C100.165 248.959 105.078 257.957 109.338 267.268C113.473 276.65 116.94 286.312 119.711 296.183C120.868 300.764 122.061 305.093 122.802 309.231C123.199 311.291 123.705 313.261 123.967 315.195C124.229 317.129 124.537 318.963 124.799 320.734C125.413 324.258 125.621 327.484 125.937 330.312C126.253 333.14 126.416 335.571 126.506 337.541C126.597 339.511 126.714 340.965 126.787 342.14C126.792 342.682 126.856 343.221 126.976 343.749C127.048 343.216 127.069 342.677 127.04 342.14C127.04 340.956 127.04 339.429 126.985 337.523C126.931 335.616 126.895 333.059 126.624 330.222C126.353 327.384 126.226 324.14 125.666 320.589C125.419 318.782 125.163 316.921 124.898 315.005C124.627 313.071 124.175 311.074 123.796 309.005C123.1 304.831 121.988 300.475 120.805 295.858C118.073 285.915 114.606 276.19 110.431 266.762C106.143 257.374 101.172 248.314 95.5582 239.654C92.8474 235.75 90.3715 231.982 87.7149 228.693C86.4137 227.031 85.221 225.377 83.9559 223.886L80.2873 219.603C78.0102 216.829 75.679 214.561 73.7181 212.492C71.7573 210.422 69.9953 208.724 68.5044 207.377L65.0888 204.269C64.7028 203.905 64.2856 203.575 63.8418 203.284Z" fill="#E0E0E0"/>
<path d="M566.18 126.902C566.18 126.902 557.56 121.201 547.051 141.821C536.542 162.441 532.594 174.35 532.594 174.35C532.594 174.35 529.811 178.67 526.847 175.841C523.883 173.013 519.817 164.998 514.775 166.453C509.543 167.944 507.817 173.781 508.811 182.365C509.805 190.95 511.305 209.817 511.44 211.525C511.576 213.232 510.6 215.672 508.278 214.073C505.956 212.473 492.546 197.546 485.841 204.332C479.137 211.118 485.841 234.557 486.528 237.133C487.215 239.708 486.709 240.81 485.48 241.452C484.251 242.093 480.23 236.645 476.245 232.551C472.26 228.458 466.92 224.419 463.378 228.657C459.836 232.895 458.706 250.488 475.45 279.06L484.07 291.791L499.495 290.933C532.386 287.093 545.741 275.572 546.997 270.222C548.253 264.873 541.801 262.994 536.154 262.298C530.506 261.602 523.72 261.629 523.503 260.274C523.287 258.918 523.847 257.843 526.314 256.84C528.78 255.837 551.542 247.072 552.916 237.639C554.289 228.205 534.311 226.488 531.636 225.594C528.961 224.699 530.344 222.44 531.762 221.536C533.181 220.633 549.166 210.431 556.62 206.067C564.075 201.702 567.689 196.805 565.738 191.727C563.849 186.829 555.003 188.41 550.964 187.742C546.925 187.073 548.696 182.257 548.696 182.257C548.696 182.257 555.744 171.884 565.873 151.101C576.003 130.318 566 126.803 566 126.803" fill="#467A1F"/>
<path d="M556.738 145.354C556.738 145.354 556.684 145.508 556.549 145.797C556.413 146.086 556.205 146.529 555.952 147.089C555.401 148.236 554.606 149.89 553.594 152.023C551.534 156.315 548.525 162.495 544.775 170.095C537.266 185.347 526.703 206.329 515.019 229.461C503.336 252.593 492.709 273.557 485.137 288.773L476.182 306.791C475.125 308.906 474.312 310.559 473.743 311.698C473.463 312.24 473.255 312.656 473.101 312.963L472.866 313.387C472.866 313.387 472.92 313.234 473.056 312.945L473.652 311.653C474.204 310.505 474.999 308.842 476.011 306.71C478.062 302.427 481.08 296.246 484.83 288.638C492.339 273.385 502.902 252.404 514.594 229.262C526.287 206.121 536.886 185.176 544.468 169.968L553.422 151.941L555.862 147.044C556.142 146.502 556.35 146.077 556.503 145.779C556.657 145.481 556.738 145.354 556.738 145.354Z" fill="#E0E0E0"/>
<path d="M519.98 177.865C520.149 178.199 520.279 178.551 520.369 178.914C520.595 179.591 520.884 180.585 521.273 181.814C521.968 184.272 522.845 187.688 523.739 191.483C524.634 195.278 525.402 198.603 525.998 201.196L526.703 204.133C526.82 204.487 526.893 204.854 526.92 205.226C526.752 204.893 526.622 204.541 526.532 204.178C526.306 203.501 526.017 202.507 525.673 201.278C525.004 198.811 524.173 195.377 523.279 191.591C522.384 187.805 521.562 184.48 520.947 181.896C520.658 180.73 520.414 179.754 520.224 178.959C520.1 178.605 520.018 178.238 519.98 177.865Z" fill="#E0E0E0"/>
<path d="M528.302 205.498C528.302 205.371 535.232 203.257 543.871 200.772C552.509 198.287 559.53 196.38 559.566 196.507C559.602 196.633 552.636 198.748 543.997 201.233C535.359 203.718 528.338 205.624 528.302 205.498Z" fill="#E0E0E0"/>
<path d="M508.703 240.214C509.08 240.162 509.461 240.143 509.842 240.16H512.923C515.534 240.16 519.131 240.16 523.097 239.997C527.064 239.834 530.652 239.599 533.254 239.392L536.326 239.148C536.705 239.11 537.086 239.11 537.465 239.148C537.103 239.262 536.731 239.338 536.353 239.374C535.63 239.482 534.546 239.618 533.281 239.762C530.688 240.06 527.1 240.368 523.116 240.512C519.131 240.657 515.525 240.621 512.923 240.512C511.613 240.458 510.565 240.404 509.833 240.349C509.452 240.348 509.073 240.303 508.703 240.214Z" fill="#E0E0E0"/>
<path d="M495.646 216.883C495.88 217.143 496.08 217.431 496.242 217.741L497.733 220.181C498.971 222.241 500.651 225.115 502.486 228.313C504.32 231.512 505.956 234.404 507.121 236.509L508.477 239.021C508.661 239.317 508.807 239.636 508.91 239.97C508.68 239.707 508.48 239.419 508.314 239.111L506.823 236.681C505.585 234.611 503.904 231.738 502.07 228.548C500.236 225.359 498.6 222.467 497.444 220.353C496.911 219.368 496.45 218.545 496.088 217.841C495.901 217.541 495.753 217.219 495.646 216.883Z" fill="#E0E0E0"/>
<path d="M474.492 245.337C474.779 245.683 475.034 246.055 475.251 246.449L477.167 249.557C478.766 252.196 480.953 255.882 483.338 259.921C485.724 263.961 487.856 267.674 489.393 270.349C490.115 271.641 490.712 272.716 491.2 273.539C491.439 273.921 491.638 274.327 491.796 274.75C491.512 274.402 491.258 274.03 491.037 273.638L489.121 270.521C487.522 267.882 485.335 264.196 482.95 260.165C480.564 256.135 478.432 252.413 476.896 249.729L475.089 246.539C474.851 246.159 474.651 245.756 474.492 245.337Z" fill="#E0E0E0"/>
<path d="M491.562 273.927C492.036 273.847 492.517 273.814 492.998 273.828L496.911 273.692C500.218 273.584 504.781 273.412 509.805 273.087C514.829 272.762 519.383 272.346 522.672 272.021L526.576 271.641C527.052 271.572 527.532 271.544 528.013 271.56C527.549 271.691 527.074 271.782 526.594 271.831C525.691 271.975 524.353 272.156 522.718 272.364C519.429 272.771 514.883 273.268 509.841 273.557C504.799 273.846 500.227 274.009 496.92 274.036C495.266 274.036 493.929 274.036 492.998 274.036C492.517 274.045 492.036 274.009 491.562 273.927Z" fill="#E0E0E0"/>
<path d="M380.41 23.1602H442.442C443.739 23.1602 444.982 23.6752 445.899 24.592C446.816 25.5087 447.331 26.7521 447.331 28.0486V69.1534C447.331 70.4499 446.816 71.6933 445.899 72.6101C444.982 73.5268 443.739 74.0419 442.442 74.0419H409.804L394.272 89.5748V74.0419H380.41C379.452 74.0419 378.532 73.6611 377.855 72.9832C377.177 72.3054 376.796 71.3861 376.796 70.4275V26.7836C376.795 26.3082 376.887 25.8372 377.068 25.3976C377.25 24.9581 377.516 24.5586 377.851 24.222C378.187 23.8854 378.586 23.6184 379.025 23.4361C379.464 23.2539 379.935 23.1602 380.41 23.1602Z" fill="#ABE87D"/>
<path d="M400.993 49.464C400.993 50.1789 400.781 50.8777 400.384 51.4721C399.987 52.0664 399.423 52.5297 398.762 52.8033C398.102 53.0768 397.375 53.1484 396.674 53.009C395.973 52.8695 395.329 52.5253 394.823 52.0198C394.318 51.5143 393.974 50.8703 393.834 50.1691C393.695 49.468 393.766 48.7413 394.04 48.0808C394.313 47.4204 394.777 46.8559 395.371 46.4587C395.965 46.0616 396.664 45.8496 397.379 45.8496C398.338 45.8496 399.257 46.2304 399.935 46.9082C400.613 47.5861 400.993 48.5054 400.993 49.464Z" fill="#FAFAFA"/>
<path d="M415.433 49.464C415.433 50.1789 415.221 50.8777 414.824 51.4721C414.427 52.0664 413.862 52.5297 413.202 52.8033C412.541 53.0768 411.815 53.1484 411.113 53.009C410.412 52.8695 409.768 52.5253 409.263 52.0198C408.757 51.5143 408.413 50.8703 408.274 50.1691C408.134 49.468 408.206 48.7413 408.479 48.0808C408.753 47.4204 409.216 46.8559 409.81 46.4587C410.405 46.0616 411.104 45.8496 411.819 45.8496C412.777 45.8496 413.696 46.2304 414.374 46.9082C415.052 47.5861 415.433 48.5054 415.433 49.464Z" fill="#FAFAFA"/>
<path d="M429.864 49.464C429.864 50.1789 429.652 50.8777 429.254 51.4721C428.857 52.0664 428.293 52.5297 427.632 52.8033C426.972 53.0768 426.245 53.1484 425.544 53.009C424.843 52.8695 424.199 52.5253 423.693 52.0198C423.188 51.5143 422.844 50.8703 422.704 50.1691C422.565 49.468 422.636 48.7413 422.91 48.0808C423.183 47.4204 423.647 46.8559 424.241 46.4587C424.836 46.0616 425.534 45.8496 426.249 45.8496C427.208 45.8496 428.127 46.2304 428.805 46.9082C429.483 47.5861 429.864 48.5054 429.864 49.464Z" fill="#FAFAFA"/>
<path d="M481.189 333.52C465.665 318.421 465.394 295.063 469.442 274.786C470.111 271.397 470.346 267.747 472.433 265.018C474.52 262.289 478.659 260.861 481.469 262.795C483.809 264.404 484.433 267.53 485.454 270.196C486.818 273.75 489.158 276.848 492.204 279.132C494.192 280.605 496.722 281.735 499.098 280.939C502.297 279.792 503.309 275.789 503.842 272.4C504.824 266.075 505.812 259.75 506.806 253.425C507.339 250.036 507.899 246.566 509.471 243.485C511.044 240.404 513.872 237.838 517.242 237.458C520.613 237.079 524.3 239.591 524.471 243.015C524.534 244.443 524.019 245.835 523.884 247.253C523.748 248.672 524.146 250.344 525.42 250.949C526.694 251.554 528.221 250.832 529.396 250C533.453 247.145 536.543 243.124 539.48 239.103C542.417 235.082 545.299 230.97 549.076 227.726C552.853 224.483 557.733 222.305 562.63 222.784C567.528 223.263 572.217 227.139 572.669 232.109C573.121 237.079 569.543 241.479 565.874 244.85C560.441 249.857 554.311 254.051 547.676 257.301C546.483 257.889 545.191 258.521 544.576 259.705C543.474 261.846 545.254 264.44 547.359 265.542C549.754 266.798 552.537 266.979 555.13 267.729C557.724 268.479 560.389 270.096 560.986 272.762C561.808 276.449 558.32 279.611 555.076 281.527C548.591 285.36 541.493 288.047 534.095 289.469C531.456 289.975 528.673 290.373 526.405 291.774C524.137 293.174 522.393 296.048 523.224 298.632C524.056 301.216 527.037 302.49 529.73 302.436C532.423 302.382 534.989 301.334 537.628 300.801C542.579 299.807 548.543 301.108 550.865 305.617C552.401 308.581 551.968 312.294 550.459 315.294C548.95 318.294 546.501 320.671 543.962 322.83C535.07 330.375 524.363 335.869 512.941 337.848C501.52 339.827 491.345 339.222 481.252 333.547" fill="#660033"/>
<path d="M478.478 348.61C480.969 339.296 484.349 330.242 488.571 321.574C493.771 311.008 499.575 300.75 505.956 290.852L510.926 283.027C512.561 280.46 514.188 277.921 515.932 275.536C519.281 270.954 522.883 266.561 526.721 262.379C530.335 258.358 533.95 254.681 537.347 251.265C540.745 247.85 543.97 244.741 547.034 242.021C551.836 237.706 556.972 233.779 562.395 230.275C564.32 229.037 565.838 228.124 566.913 227.564L568.097 226.877C568.229 226.796 568.368 226.726 568.512 226.669C568.391 226.767 568.265 226.858 568.133 226.94L566.976 227.672C565.964 228.305 564.464 229.253 562.567 230.519C557.201 234.083 552.108 238.042 547.332 242.365C544.296 245.076 541.097 248.229 537.727 251.654C534.356 255.078 530.778 258.765 527.164 262.786C523.348 266.954 519.765 271.328 516.429 275.888C514.703 278.265 513.094 280.795 511.45 283.361C509.805 285.927 508.17 288.539 506.489 291.159C500.126 301.045 494.319 311.277 489.095 321.809C484.865 330.437 481.456 339.444 478.911 348.709" fill="#263238"/>
<path d="M516.122 275.527C516.035 275.032 516.002 274.529 516.022 274.027C516.022 273.06 516.022 271.669 516.022 269.934C516.086 266.482 516.348 261.72 516.655 256.47C516.962 251.22 517.161 246.458 517.179 243.015C517.179 241.29 517.179 239.898 517.179 238.931C517.139 238.431 517.157 237.927 517.233 237.431C517.352 237.92 517.415 238.42 517.423 238.922C517.513 239.88 517.586 241.28 517.631 243.006C517.73 246.458 517.631 251.238 517.296 256.497C516.962 261.756 516.691 266.373 516.474 269.952C516.384 271.569 516.311 272.934 516.257 274.036C516.264 274.536 516.218 275.036 516.122 275.527Z" fill="#263238"/>
<path d="M561.03 274.488C560.426 274.517 559.821 274.49 559.223 274.406C558.084 274.325 556.44 274.199 554.416 274.108C550.349 273.882 544.729 273.783 538.521 273.937C532.314 274.09 526.702 274.488 522.645 274.885C520.621 275.066 519.031 275.265 517.856 275.391C517.259 275.494 516.654 275.539 516.049 275.527C516.613 275.342 517.194 275.212 517.784 275.138C518.904 274.939 520.495 274.677 522.564 274.433C526.621 273.918 532.241 273.458 538.476 273.295C543.789 273.144 549.106 273.265 554.407 273.656C556.44 273.81 558.084 274 559.214 274.162C559.829 274.207 560.438 274.316 561.03 274.488Z" fill="#263238"/>
<path d="M489.248 320.86C489.248 320.86 489.149 320.671 489.032 320.282C488.914 319.894 488.742 319.261 488.544 318.583C488.128 317.11 487.577 314.969 486.935 312.258C485.643 306.927 484.098 299.499 482.499 291.286C480.899 283.072 479.426 275.635 478.252 270.277C477.673 267.675 477.194 265.533 476.833 263.952C476.688 263.256 476.562 262.687 476.462 262.226C476.406 262.026 476.376 261.819 476.372 261.611C476.372 261.611 476.471 261.801 476.589 262.19C476.706 262.578 476.878 263.211 477.077 263.888C477.493 265.361 478.044 267.503 478.685 270.214C479.968 275.545 481.523 282.972 483.122 291.195C484.721 299.418 486.194 306.837 487.369 312.195L488.779 318.52C488.932 319.207 489.059 319.785 489.158 320.246C489.215 320.446 489.245 320.653 489.248 320.86Z" fill="#263238"/>
<path d="M550.195 311.635C549.997 311.708 549.791 311.757 549.581 311.779L547.774 312.069L541.241 313.062C535.729 313.912 528.129 315.168 519.735 316.559C511.341 317.951 503.777 319.171 498.22 319.876C495.455 320.246 493.214 320.517 491.66 320.671L489.853 320.842C489.647 320.876 489.436 320.876 489.229 320.842C489.427 320.767 489.634 320.719 489.844 320.698L491.651 320.409L498.175 319.415C503.687 318.565 511.295 317.309 519.69 315.918C528.084 314.526 535.702 313.334 541.241 312.602C544.006 312.231 546.247 311.96 547.801 311.806L549.608 311.635C549.803 311.61 550 311.61 550.195 311.635Z" fill="#263238"/>
<path d="M64.2849 262.244C69.1734 260.934 74.5227 262.172 78.8238 264.828C83.0638 267.645 86.6004 271.398 89.161 275.798C94.3567 284.102 96.1368 295.225 96.3085 305.02C85.4653 304.514 76.2124 295.921 71.8029 291.267C64.8361 283.912 56.6947 266.391 64.2849 262.28" fill="#660033"/>
<path d="M113.757 311.617C109.311 308.129 107.35 301.984 108.335 296.418C108.898 293.64 110.008 291.002 111.602 288.658C113.195 286.314 115.239 284.31 117.615 282.765C119.775 281.292 122.458 280.135 124.961 280.894C126.116 281.319 127.135 282.047 127.913 283.001C128.69 283.954 129.197 285.099 129.38 286.316C129.725 288.763 129.413 291.258 128.476 293.545C125.684 301.451 121.537 308.59 113.757 311.689" fill="#660033"/>
<path d="M123.625 342.601C123.184 342.07 122.819 341.48 122.541 340.848C121.917 339.692 121.032 337.993 120.011 335.869C117.232 330.336 115.208 324.456 113.993 318.385C112.71 311.156 113.649 304.415 115.457 299.996C116.125 298.233 117.018 296.563 118.113 295.027C118.475 294.437 118.93 293.909 119.46 293.463C119.649 293.581 117.716 295.858 116.179 300.267C114.312 306.056 113.933 312.221 115.077 318.195C116.288 324.174 118.18 329.995 120.716 335.544C122.586 339.863 123.77 342.529 123.625 342.601Z" fill="#263238"/>
<path d="M71.6592 275.039C72.5161 275.781 73.3054 276.597 74.0176 277.479C75.4814 279.096 77.5597 281.473 80.0988 284.436C85.168 290.355 92.0444 298.659 99.4178 308.011C106.791 317.364 113.234 325.993 117.806 332.318C120.092 335.481 121.917 338.056 123.146 339.863C123.83 340.761 124.434 341.717 124.954 342.719C124.165 341.908 123.442 341.034 122.794 340.107L117.174 332.779C112.448 326.58 105.897 318.032 98.5413 308.689C91.186 299.346 84.409 290.979 79.4934 284.933L73.6652 277.75C72.9237 276.902 72.2528 275.996 71.6592 275.039Z" fill="#263238"/>
<path d="M106.42 323.689C101.719 319.995 96.2051 317.475 90.336 316.338C84.4668 315.2 78.411 315.477 72.6704 317.146C69.7698 318.05 66.544 319.794 66.2548 322.812C65.9657 325.83 68.7939 328.234 71.5228 329.562C77.2572 332.283 83.6689 333.247 89.9499 332.33C96.2308 331.413 102.1 328.658 106.817 324.411" fill="#660033"/>
<path d="M79.8896 322.677C80.4884 322.397 81.1245 322.205 81.7782 322.107C82.5268 321.917 83.2876 321.778 84.0552 321.692C85.0635 321.529 86.0802 321.424 87.1004 321.376C89.765 321.223 92.4383 321.341 95.0792 321.728C101.578 322.675 107.766 325.126 113.151 328.884C115.339 330.412 117.367 332.156 119.205 334.089C119.923 334.818 120.596 335.591 121.22 336.402C121.722 336.989 122.181 337.611 122.594 338.264C123.002 338.78 123.333 339.352 123.579 339.963C123.407 340.089 121.853 337.749 118.654 334.631C116.779 332.817 114.747 331.172 112.582 329.716C109.909 327.965 107.074 326.476 104.115 325.27C101.137 324.123 98.0527 323.273 94.9075 322.731C92.3305 322.306 89.7208 322.113 87.1094 322.153C82.6998 322.243 79.9348 322.885 79.8896 322.677Z" fill="#263238"/>
<path d="M228.533 29.2686L220.951 35.5938L217.265 33.9492L216.506 30.8228C216.506 30.8228 224.638 24.8138 224.34 24.4976C223.58 23.7678 222.596 23.3158 221.548 23.2145C219.594 22.962 217.62 23.4914 216.054 24.6873L214.626 25.7626C213.317 26.7236 212.301 28.0289 211.69 29.5333C211.079 31.0377 210.897 32.6821 211.166 34.2836C211.179 34.3778 211.197 34.4713 211.22 34.5637L188.747 53.2411C187.232 52.7383 185.594 52.751 184.087 53.2771C182.58 53.8032 181.29 54.8132 180.417 56.1495C179.545 57.4859 179.139 59.0734 179.263 60.6646C179.387 62.2557 180.035 63.7611 181.104 64.9457C182.174 66.1304 183.605 66.9279 185.175 67.2138C186.745 67.4996 188.366 67.2578 189.785 66.526C191.203 65.7942 192.339 64.6136 193.016 63.1683C193.693 61.723 193.873 60.0943 193.527 58.5362L215.747 39.8859C216.629 40.6545 217.766 41.0668 218.936 41.0425C220.054 41.0637 221.164 40.8585 222.2 40.4392C223.235 40.0199 224.176 39.3952 224.963 38.6028L226.843 36.7956C227.776 35.809 228.425 34.5891 228.723 33.2643C229.02 31.9396 228.954 30.5592 228.533 29.2686ZM185.16 63.1265C184.56 62.8597 184.053 62.4209 183.703 61.8657C183.353 61.3106 183.175 60.664 183.193 60.0079C183.211 59.3517 183.422 58.7156 183.802 58.18C184.181 57.6443 184.711 57.2333 185.324 56.999C185.937 56.7647 186.606 56.7175 187.246 56.8635C187.886 57.0096 188.468 57.3422 188.919 57.8193C189.369 58.2965 189.668 58.8966 189.778 59.5438C189.887 60.1909 189.802 60.856 189.533 61.4548C189.355 61.8557 189.1 62.2174 188.781 62.5189C188.463 62.8203 188.088 63.0556 187.677 63.2111C187.267 63.3665 186.83 63.4391 186.392 63.4246C185.954 63.4101 185.523 63.3087 185.124 63.1265H185.16Z" fill="#660033"/>
<path d="M262.518 72.3703L238.319 74.3944L238.4 74.3492C234.273 79.2895 229.133 83.2861 223.327 86.0687C217.522 88.8513 211.187 90.3551 204.75 90.4785C199.418 90.5519 194.113 89.7115 189.064 87.9936C183.604 86.123 178.559 83.2108 174.209 79.4184C169.448 75.2858 165.606 70.2029 162.927 64.4963C160.249 58.7896 158.795 52.5857 158.658 46.2834C158.595 45.4593 158.595 44.6316 158.658 43.8075C158.658 42.9853 158.748 42.1539 158.784 41.3226C158.836 40.4913 158.941 39.6643 159.101 38.8468L159.507 36.3438C159.679 35.5215 159.914 34.7083 160.113 33.895C160.311 33.0818 160.501 32.2415 160.781 31.4463C161.061 30.6511 161.36 29.8559 161.685 29.0608L162.119 27.859C162.263 27.4614 162.48 27.0819 162.652 26.6933C165.349 20.7692 169.277 15.4867 174.173 11.1966C178.757 7.14804 184.123 4.08319 189.939 2.19167C195.755 0.300155 201.897 -0.377787 207.985 0.199791C215.79 0.92507 223.272 3.66472 229.7 8.1505C236.128 12.6363 241.28 18.7144 244.653 25.7897C245.174 26.7798 245.621 27.8066 245.991 28.862C246.361 29.9011 246.75 30.9132 247.093 31.9342C247.677 33.927 248.133 35.9552 248.458 38.0064C248.593 39.0004 248.783 39.9672 248.864 40.9341C248.946 41.9009 248.955 42.8587 249 43.7895C249 44.2593 249 44.6931 249.072 45.181C249.144 45.6689 249.027 46.0846 249.009 46.5454C249.009 47.449 248.927 48.3526 248.882 49.1839V49.1026C257.457 63.6687 262.075 71.5029 262.572 72.3613L248.656 49.2472C248.692 48.3918 248.729 47.5153 248.765 46.6177C248.765 46.1659 248.81 45.7141 248.819 45.2623C248.828 44.8105 248.774 44.3587 248.747 43.8798C248.702 42.9762 248.647 42.0094 248.602 41.0425C248.557 40.0757 248.313 39.1269 248.177 38.1329C247.853 36.0996 247.397 34.0894 246.813 32.1149C246.47 31.1029 246.081 30.0999 245.702 29.0698C245.331 28.025 244.887 27.0074 244.373 26.0247C241.412 19.7717 237.04 14.2915 231.6 10.0155C226.161 5.73946 219.804 2.78438 213.028 1.38289C206.253 -0.0185938 199.245 0.171775 192.556 1.93901C185.867 3.70624 179.679 7.00209 174.48 11.5671C169.641 15.8245 165.76 21.0602 163.094 26.9283C162.914 27.3168 162.706 27.6783 162.561 28.0759L162.128 29.2686L161.224 31.627C160.944 32.4222 160.79 33.2444 160.564 34.0486C160.338 34.8529 160.131 35.6571 159.959 36.4703C159.787 37.2835 159.715 38.1149 159.588 38.9281C159.437 39.7404 159.334 40.5612 159.281 41.3859C159.236 42.2082 159.191 43.0214 159.155 43.8437C159.096 44.6589 159.096 45.4772 159.155 46.2924C159.36 55.433 162.354 64.2925 167.735 71.6842C173.116 79.0759 180.627 84.6466 189.263 87.6502C194.265 89.3551 199.52 90.1954 204.805 90.1351C211.189 90.0234 217.476 88.5465 223.243 85.8034C229.01 83.0603 234.123 79.1147 238.238 74.2317H238.292L262.518 72.3703Z" fill="#263238"/>
<path d="M473.246 109.075H130.881C123.61 109.075 117.716 114.969 117.716 122.24V339.728C117.716 346.999 123.61 352.893 130.881 352.893H473.246C480.517 352.893 486.412 346.999 486.412 339.728V122.24C486.412 114.969 480.517 109.075 473.246 109.075Z" fill="#1B1B1B"/>
<path d="M102.815 334.857H502.27V340.107C502.27 344.373 500.575 348.464 497.559 351.48C494.543 354.497 490.452 356.191 486.186 356.191H118.9C116.787 356.191 114.696 355.775 112.744 354.967C110.793 354.159 109.02 352.974 107.526 351.48C106.033 349.987 104.848 348.214 104.04 346.262C103.231 344.311 102.815 342.219 102.815 340.107V334.857Z" fill="#1B1B1B"/>
<path d="M476.002 118.761H128.134V324.656H476.002V118.761Z" fill="#F9ECEE"/>
<path d="M266.231 334.857H267.786H272.304L289.156 334.785L345.513 334.667H345.929L345.721 335.029C345.016 336.24 344.248 337.541 343.489 338.86C342.73 340.179 341.881 341.571 341.122 342.908L341.05 343.026H340.914L271.165 342.899H271.102V342.845L267.487 336.908L266.584 335.399L266.286 334.902L266.638 335.427C266.864 335.788 267.189 336.285 267.614 336.936C268.463 338.264 269.719 340.207 271.337 342.737L271.246 342.682L340.995 342.556L340.787 342.673L343.155 338.616C343.923 337.306 344.682 335.996 345.396 334.785L345.595 335.146L289.472 335.02L272.457 334.911H267.84H266.638L266.231 334.857Z" fill="#263238"/>
<path fill-rule="evenodd" clip-rule="evenodd" d="M255.425 157.065C256.06 156.22 256.804 155.463 257.639 154.815L257.115 151.932L261.57 150.026L263.286 152.402C264.333 152.262 265.393 152.262 266.44 152.402L268.103 149.999L272.621 151.806L272.16 154.697C273.003 155.334 273.759 156.079 274.41 156.911L277.292 156.387L279.199 160.842L276.822 162.559C276.962 163.605 276.962 164.666 276.822 165.712L279.226 167.384L277.419 171.902L274.536 171.441C273.899 172.287 273.155 173.046 272.322 173.7L272.846 176.574L268.392 178.48L266.675 176.104C265.625 176.244 264.562 176.244 263.512 176.104L261.85 178.516L257.332 176.709L257.792 173.818C256.945 173.183 256.185 172.439 255.533 171.604L252.66 172.128L250.771 167.637L253.148 165.92C253.003 164.874 253.003 163.813 253.148 162.767L250.771 161.095L252.579 156.577L255.47 157.038L255.425 157.065ZM260.25 162.071C259.861 163.022 259.763 164.066 259.967 165.073C260.172 166.079 260.67 167.003 261.399 167.726C262.128 168.45 263.055 168.941 264.064 169.138C265.072 169.335 266.116 169.228 267.063 168.832C268.011 168.436 268.82 167.767 269.388 166.912C269.956 166.056 270.258 165.051 270.255 164.024C270.252 162.997 269.945 161.993 269.372 161.141C268.799 160.288 267.986 159.624 267.036 159.234C266.404 158.974 265.728 158.841 265.044 158.843C264.361 158.845 263.685 158.981 263.055 159.245C262.424 159.508 261.852 159.894 261.371 160.379C260.89 160.863 260.509 161.439 260.25 162.071Z" fill="#E0E0E0"/>
<path fill-rule="evenodd" clip-rule="evenodd" d="M237.361 250.497C239.2 248.044 241.354 245.845 243.768 243.955L242.241 235.606L255.153 230.103L260.132 236.979C263.165 236.536 266.243 236.5 269.285 236.871L274.102 229.895L287.131 235.136L285.785 243.503C288.24 245.34 290.44 247.494 292.327 249.91L300.676 248.392L306.179 261.34L299.303 266.31C299.747 269.343 299.781 272.422 299.402 275.464L306.387 280.289L301.146 293.31L292.779 291.963C290.942 294.418 288.788 296.618 286.372 298.505L287.89 306.855L274.978 312.367L270.008 305.49C266.975 305.93 263.897 305.964 260.855 305.59L256.039 312.565L243.009 307.334L244.355 298.957C241.898 297.123 239.698 294.969 237.813 292.551L229.464 294.078L223.952 281.165L230.828 276.186C230.388 273.156 230.355 270.081 230.729 267.042L223.753 262.244L228.985 249.214L237.361 250.56V250.497ZM251.331 265.009C250.219 267.773 249.953 270.805 250.564 273.721C251.176 276.637 252.639 279.306 254.768 281.39C256.896 283.475 259.595 284.881 262.524 285.432C265.452 285.982 268.477 285.652 271.218 284.483C273.958 283.314 276.29 281.358 277.919 278.863C279.548 276.369 280.4 273.447 280.369 270.468C280.337 267.488 279.422 264.585 277.741 262.126C276.059 259.667 273.686 257.761 270.921 256.651C269.085 255.914 267.121 255.546 265.143 255.569C263.164 255.591 261.21 256.003 259.391 256.781C257.571 257.559 255.923 258.687 254.54 260.102C253.157 261.517 252.067 263.19 251.331 265.027V265.009Z" fill="#F9ECEE"/>
<path d="M179.839 275.933C180.039 275.286 180.344 274.675 180.742 274.126C181.828 272.557 183.425 271.414 185.26 270.891C186.63 270.494 188.079 270.451 189.47 270.767C190.861 271.083 192.148 271.748 193.212 272.699C193.836 273.239 194.372 273.873 194.802 274.578C195.258 275.307 195.597 276.102 195.805 276.936C196.268 278.701 196.151 280.567 195.471 282.26C194.79 283.952 193.583 285.381 192.028 286.334C190.592 287.229 188.921 287.673 187.23 287.608C185.7 287.553 184.214 287.085 182.929 286.253C181.571 285.372 180.495 284.119 179.83 282.643C179.165 281.167 178.939 279.531 179.179 277.93C179.273 277.245 179.477 276.58 179.784 275.961C179.608 276.618 179.466 277.285 179.36 277.957C179.148 279.799 179.555 281.659 180.516 283.244C181.22 284.407 182.204 285.376 183.378 286.061C184.553 286.746 185.88 287.126 187.239 287.165C188.833 287.211 190.406 286.783 191.757 285.936C193.231 285.038 194.378 283.69 195.029 282.091C195.68 280.492 195.8 278.726 195.371 277.054C194.981 275.491 194.135 274.078 192.941 272.997C191.858 272.028 190.54 271.361 189.119 271.063C187.877 270.809 186.592 270.85 185.369 271.18C183.567 271.652 181.976 272.715 180.851 274.199C180.137 275.256 179.893 275.961 179.839 275.933Z" fill="#263238"/>
<path d="M172.158 267.91H171.869L170.965 267.792L167.495 267.277L167.576 267.223L164.721 274.452L164.676 274.307L168.552 276.955L168.616 277.009V277.09C168.419 278.761 168.444 280.45 168.688 282.114V282.205L168.607 282.268L164.811 285.024L164.866 284.825L167.938 291.954L167.73 291.846L172.347 290.997H172.465L172.537 291.096C173.58 292.418 174.796 293.594 176.152 294.593L176.26 294.665V294.792C176.034 296.228 175.781 297.81 175.528 299.427L175.393 299.192L182.621 302.084L182.359 302.165L185.025 298.298L185.097 298.189H185.233C186.897 298.389 188.58 298.367 190.239 298.126H190.374L190.456 298.234L193.212 302.039L192.931 301.966L200.079 298.912L199.934 299.174C199.663 297.71 199.383 296.138 199.094 294.557V294.412L199.202 294.322C200.522 293.294 201.698 292.093 202.699 290.753L202.79 290.635H202.934L207.57 291.385L207.308 291.53C208.284 289.12 209.25 286.711 210.208 284.301L210.29 284.581L206.431 281.87L206.314 281.789V281.653C206.517 279.99 206.499 278.306 206.26 276.647V276.512L206.377 276.431L210.181 273.72L210.1 273.991L207.064 266.843L207.308 266.979L202.681 267.81H202.555L202.473 267.702C201.43 266.378 200.214 265.199 198.859 264.196L198.76 264.124V263.997C199.022 262.407 199.266 260.871 199.51 259.362L199.636 259.578L192.407 256.669L192.624 256.606L189.913 260.455L189.85 260.545H189.751C188.083 260.323 186.394 260.323 184.727 260.545H184.636L184.582 260.473C183.588 259.09 182.685 257.843 181.871 256.66L182.034 256.705L174.868 259.768L174.932 259.651C175.257 261.458 175.528 263.012 175.745 264.277V264.322C174.742 265.102 173.813 265.973 172.971 266.925L172.365 267.648L172.158 267.882C172.207 267.79 172.265 267.703 172.329 267.62C172.456 267.449 172.646 267.196 172.908 266.87C173.718 265.892 174.626 264.999 175.618 264.205V264.277C175.374 263.021 175.094 261.503 174.715 259.66V259.578H174.796L181.926 256.497H182.034L182.097 256.587L184.862 260.383L184.709 260.319C186.4 260.068 188.117 260.043 189.814 260.247L189.66 260.319C190.501 259.09 191.377 257.807 192.317 256.452L192.398 256.334L192.534 256.389L199.763 259.271L199.916 259.325V259.479C199.672 260.988 199.428 262.524 199.175 264.114L199.094 263.916C200.47 264.954 201.704 266.169 202.763 267.53L202.555 267.458L207.172 266.608H207.344L207.416 266.771C208.398 269.096 209.416 271.476 210.47 273.91L210.543 274.081L210.389 274.19L206.594 276.9L206.684 276.684C206.933 278.381 206.951 280.105 206.738 281.807L206.639 281.59L210.506 284.256L210.66 284.364L210.588 284.536L207.696 291.765L207.624 291.936H207.434L202.799 291.195L203.034 291.096C201.994 292.468 200.779 293.699 199.419 294.756L199.501 294.521C199.79 296.111 200.079 297.683 200.35 299.138V299.328L200.169 299.292L193.022 302.337L192.85 302.409L192.742 302.264L190.031 298.451L190.248 298.551C188.549 298.791 186.827 298.806 185.124 298.596L185.341 298.506L182.63 302.364L182.531 302.508L182.368 302.445L175.14 299.536L174.977 299.472V299.301C175.239 297.692 175.501 296.111 175.727 294.674L175.808 294.873C174.449 293.833 173.234 292.618 172.194 291.259L172.384 291.331L167.766 292.162H167.622L167.558 292.027C166.492 289.515 165.483 287.129 164.531 284.87L164.477 284.753L164.585 284.671L168.399 281.961L168.335 282.114C168.095 280.422 168.08 278.705 168.29 277.009L168.354 277.144L164.504 274.434L164.423 274.379V274.289C165.625 271.361 166.61 268.94 167.36 267.06V267.006H167.414L170.847 267.593L171.751 267.756L172.158 267.91Z" fill="#263238"/>
<path fill-rule="evenodd" clip-rule="evenodd" d="M154.464 172.552C155.935 168.582 157.935 164.828 160.41 161.393L155.106 150.956L170.006 138.595L179.286 145.734C183.119 143.956 187.173 142.701 191.34 142.002L194.955 130.878L214.228 132.686L215.747 144.288C219.703 145.755 223.447 147.742 226.879 150.197L237.315 144.902L249.668 159.803L242.538 169.074C244.302 172.904 245.551 176.951 246.252 181.11L257.366 184.724L255.559 203.998L243.957 205.507C242.52 209.477 240.557 213.236 238.12 216.684L243.415 227.121L228.514 239.482L219.234 232.353C215.394 234.117 211.333 235.357 207.162 236.039L203.548 247.163L184.274 245.356L182.756 233.762C178.787 232.316 175.028 230.347 171.579 227.907L161.151 233.202L148.79 218.302L155.892 209.031C154.121 205.195 152.866 201.142 152.16 196.977L141.046 193.362L142.853 174.089L154.446 172.571L154.464 172.552ZM178.636 186.233C178.251 190.327 179.089 194.444 181.044 198.062C183 201.68 185.985 204.636 189.621 206.556C193.258 208.477 197.382 209.276 201.473 208.851C205.563 208.426 209.436 206.798 212.6 204.171C215.765 201.545 218.079 198.038 219.25 194.096C220.421 190.154 220.396 185.953 219.178 182.025C217.96 178.097 215.604 174.618 212.408 172.03C209.213 169.441 205.321 167.859 201.226 167.483C195.745 166.981 190.289 168.672 186.054 172.187C181.819 175.702 179.151 180.754 178.636 186.233Z" fill="#ABE87D"/>
<path d="M486.411 334.857C486.411 334.984 403.867 335.083 302.077 335.083C200.286 335.083 117.742 334.984 117.742 334.857C117.742 334.731 200.268 334.64 302.077 334.64C403.885 334.64 486.411 334.74 486.411 334.857Z" fill="#263238"/>
<path d="M288.107 57.8406C282.423 60.3345 279.116 66.47 277.878 72.5512C276.64 78.6324 277.037 84.9215 276.504 91.1111C275.971 97.3008 274.272 103.762 269.754 108.017C265.544 111.993 259.354 113.611 255.767 118.156C254.429 119.848 253.542 121.852 253.19 123.981C252.838 126.109 253.033 128.293 253.755 130.325C254.478 132.358 255.704 134.174 257.321 135.603C258.937 137.032 260.89 138.028 262.996 138.496C260.158 143.014 261.577 149.258 265.209 153.134C268.842 157.011 274.164 158.863 279.414 159.658C288.649 161.068 298.498 159.514 306.296 154.372C314.094 149.231 319.552 140.303 319.534 130.969" fill="#263238"/>
<path d="M263.484 149.628C263.046 149.013 262.708 148.333 262.481 147.613C261.843 145.647 261.719 143.551 262.12 141.523C262.383 140.122 262.82 138.759 263.421 137.466C264.144 136.004 265.019 134.623 266.032 133.345C268.442 130.524 271.054 127.881 273.848 125.439C276.561 122.934 279.1 120.247 281.448 117.397C283.369 115.074 285.004 112.529 286.318 109.816C287.192 107.985 287.853 106.06 288.288 104.078C288.459 103.382 288.505 102.822 288.586 102.451C288.605 102.257 288.648 102.066 288.712 101.882C288.733 102.074 288.733 102.268 288.712 102.46C288.658 102.84 288.64 103.409 288.496 104.114C288.124 106.13 287.498 108.092 286.634 109.951C285.354 112.709 283.733 115.295 281.809 117.65C279.47 120.538 276.927 123.256 274.201 125.782C271.415 128.208 268.806 130.829 266.394 133.626C265.385 134.867 264.515 136.216 263.8 137.647C263.191 138.901 262.745 140.228 262.472 141.595C262.048 143.58 262.123 145.638 262.689 147.586C262.913 148.282 263.179 148.964 263.484 149.628Z" fill="#455A64"/>
<path d="M356.075 78.2529C356.075 86.6022 359.925 94.2557 363.385 97.0749C368.292 101.051 375.485 102.975 380.219 104.304C387.123 106.228 392.87 112.273 393.773 119.394C394.677 126.514 389.978 134.113 383.039 135.903C387.403 140.357 386.102 148.02 382.515 153.071C375.71 162.73 362.129 166.444 350.889 162.866C339.648 159.288 331.009 149.312 327.63 137.99" fill="#263238"/>
<path d="M373.244 160.498C374.199 160.292 375.102 159.895 375.901 159.333C376.822 158.659 377.581 157.789 378.124 156.785C378.861 155.468 379.27 153.992 379.316 152.484C379.306 150.657 378.824 148.864 377.916 147.279C376.871 145.453 375.495 143.838 373.859 142.517C370.434 139.634 365.78 137.836 361.28 135.288C359.063 134.041 357.051 132.459 355.317 130.598C354.493 129.7 353.791 128.698 353.229 127.616C352.696 126.579 352.301 125.476 352.055 124.336C351.653 122.229 351.555 120.074 351.766 117.939C351.919 115.942 352.172 114.108 352.344 112.418C352.734 109.778 352.691 107.092 352.217 104.466C352.1 104.014 351.991 103.617 351.892 103.255C351.793 102.894 351.648 102.632 351.567 102.397C351.466 102.164 351.378 101.926 351.305 101.683C351.442 101.897 351.557 102.124 351.648 102.361C351.747 102.596 351.901 102.867 352.019 103.21L352.389 104.43C352.938 107.069 353.03 109.784 352.66 112.454C352.506 114.144 352.272 115.987 352.136 117.966C351.942 120.079 352.052 122.209 352.461 124.291C352.958 126.558 354.057 128.65 355.642 130.345C357.35 132.17 359.328 133.721 361.506 134.945C365.961 137.502 370.642 139.327 374.157 142.282C375.826 143.641 377.224 145.302 378.277 147.179C379.211 148.832 379.691 150.703 379.669 152.601C379.608 154.158 379.165 155.676 378.377 157.02C377.797 158.038 376.997 158.915 376.036 159.586C375.425 159.996 374.75 160.301 374.039 160.489C373.775 160.519 373.509 160.522 373.244 160.498Z" fill="#455A64"/>
<path d="M389.509 132.641C390.008 131.964 390.303 131.158 390.358 130.318C390.388 129.338 390.164 128.367 389.708 127.499C389.129 126.341 388.245 125.363 387.151 124.671C385.773 123.897 384.262 123.391 382.696 123.18C381.015 122.882 379.181 122.773 377.274 122.475C373.09 121.806 369.102 120.23 365.591 117.858C362.071 115.489 359.12 112.369 356.952 108.722C355.207 105.742 354.007 102.474 353.41 99.0718C352.991 96.7869 352.866 94.4577 353.04 92.1412C353.08 91.5144 353.152 90.8901 353.257 90.2707C353.273 90.0525 353.315 89.8371 353.383 89.6292C353.428 89.6292 353.275 90.5328 353.211 92.1592C352.969 97.8917 354.391 103.572 357.305 108.514C359.462 112.09 362.373 115.152 365.835 117.487C369.298 119.818 373.22 121.38 377.338 122.068C379.235 122.376 381.078 122.502 382.759 122.809C384.354 123.046 385.888 123.589 387.277 124.409C388.414 125.136 389.322 126.17 389.898 127.391C390.353 128.299 390.559 129.313 390.494 130.327C390.441 130.968 390.236 131.588 389.898 132.134C389.78 132.306 389.663 132.433 389.59 132.523L389.509 132.641Z" fill="#455A64"/>
<path d="M292.165 176.14C293.358 163.661 294.379 150.505 294.379 150.505C294.379 150.505 278.575 146.258 277.31 124.96C276.099 104.656 283.933 58.8073 283.933 58.8073C307.996 51.6508 334.779 60.6145 349.444 80.7557L338.113 181.959C336.803 193.706 325.652 201.928 313.083 200.419C300.397 198.892 291.035 188.031 292.165 176.14Z" fill="#B78876"/>
<path d="M286.336 95.4575C286.263 96.1562 286.465 96.8556 286.898 97.4084C287.331 97.9613 287.962 98.3244 288.658 98.4214C288.997 98.4833 289.346 98.4764 289.682 98.4011C290.019 98.3258 290.337 98.1837 290.618 97.9831C290.898 97.7825 291.136 97.5276 291.316 97.2334C291.496 96.9393 291.616 96.6119 291.667 96.2708C291.739 95.5722 291.538 94.8728 291.104 94.3199C290.671 93.7671 290.04 93.4039 289.345 93.307C289.005 93.245 288.657 93.2519 288.32 93.3272C287.984 93.4025 287.666 93.5447 287.385 93.7453C287.104 93.9458 286.867 94.2008 286.687 94.4949C286.506 94.7891 286.387 95.1164 286.336 95.4575Z" fill="#263238"/>
<path d="M282.27 92.0148C282.568 92.4034 284.755 91.1112 287.646 91.3823C290.538 91.6534 292.517 93.3341 292.869 93.0088C293.041 92.8642 292.761 92.2046 291.902 91.4365C290.735 90.4449 289.289 89.8388 287.764 89.7016C286.265 89.5453 284.755 89.8612 283.445 90.6052C282.487 91.2377 282.125 91.8431 282.27 92.0148Z" fill="#263238"/>
<path d="M315.902 98.882C315.83 99.5819 316.033 100.283 316.468 100.836C316.903 101.389 317.536 101.751 318.233 101.846C318.573 101.908 318.921 101.901 319.258 101.826C319.594 101.75 319.912 101.608 320.193 101.407C320.474 101.207 320.711 100.952 320.891 100.658C321.072 100.364 321.191 100.036 321.242 99.6952C321.315 98.9966 321.113 98.2972 320.68 97.7443C320.246 97.1915 319.616 96.8283 318.92 96.7314C318.58 96.6694 318.231 96.6762 317.894 96.7514C317.557 96.8266 317.238 96.9686 316.957 97.1691C316.675 97.3696 316.437 97.6245 316.256 97.9187C316.075 98.2129 315.954 98.5404 315.902 98.882Z" fill="#263238"/>
<path d="M312.36 96.0358C312.658 96.4244 314.845 95.1322 317.736 95.4123C320.628 95.6925 322.607 97.3551 322.959 97.0298C323.122 96.8943 322.851 96.2256 321.992 95.4575C320.824 94.4674 319.379 93.8616 317.854 93.7226C316.355 93.5663 314.845 93.8822 313.534 94.6262C312.577 95.2587 312.215 95.8641 312.36 96.0358Z" fill="#263238"/>
<path d="M299.746 116.466C299.746 116.303 298.011 115.815 295.129 115.156C294.397 115.002 293.719 114.785 293.638 114.252C293.655 113.483 293.904 112.736 294.352 112.111L297.063 106.689C300.885 98.9814 303.731 92.611 303.388 92.4574C303.044 92.3038 299.728 98.4392 295.906 106.147C295.002 108.054 294.099 109.861 293.249 111.569C292.701 112.414 292.464 113.423 292.581 114.424C292.658 114.698 292.799 114.949 292.992 115.158C293.186 115.367 293.425 115.527 293.692 115.626C294.09 115.778 294.506 115.878 294.93 115.924C297.903 116.439 299.719 116.629 299.746 116.466Z" fill="#263238"/>
<path d="M294.378 150.505C304.236 151.631 314.213 149.995 323.194 145.779C323.194 145.779 314.926 159.514 294.144 155.483L294.378 150.505Z" fill="#AA6550"/>
<path d="M300.288 123.56C300.906 122.92 301.676 122.449 302.527 122.19C303.377 121.931 304.279 121.892 305.149 122.078C305.781 122.201 306.383 122.449 306.918 122.807C307.453 123.166 307.912 123.627 308.266 124.165C308.606 124.687 308.777 125.301 308.756 125.923C308.735 126.545 308.523 127.146 308.149 127.644C307.634 128.118 306.988 128.427 306.295 128.53C305.602 128.633 304.895 128.526 304.263 128.222C302.945 127.607 301.762 126.734 300.785 125.656C300.485 125.402 300.233 125.096 300.044 124.752C299.953 124.583 299.914 124.39 299.934 124.198C299.953 124.007 300.029 123.825 300.152 123.677" fill="#AA6550"/>
<path d="M308.068 119.303C307.598 119.231 307.282 122.367 304.373 124.337C301.463 126.306 298.156 125.629 298.093 126.062C298.029 126.252 298.779 126.749 300.189 126.966C302.025 127.174 303.875 126.726 305.412 125.701C306.892 124.72 307.93 123.199 308.303 121.463C308.601 120.117 308.285 119.303 308.068 119.303Z" fill="#263238"/>
<path d="M339.468 103.129C341.761 102.869 344.081 103.248 346.173 104.222C347.216 104.712 348.152 105.403 348.928 106.256C349.703 107.109 350.302 108.107 350.691 109.192C351.351 111.422 351.138 113.819 350.094 115.897C349.045 117.956 347.551 119.755 345.721 121.165C344.477 122.262 342.99 123.048 341.384 123.46C340.579 123.661 339.737 123.657 338.934 123.451C338.131 123.244 337.392 122.84 336.784 122.276" fill="#B78876"/>
<path d="M339.368 116.846C339.106 116.9 339.946 118.355 342.078 118.002C343.203 117.727 344.176 117.024 344.789 116.041C345.518 114.945 346.024 113.718 346.28 112.427C346.572 111.057 346.374 109.627 345.72 108.388C345.44 107.863 345.045 107.407 344.565 107.055C344.085 106.703 343.531 106.464 342.946 106.355C340.841 106.102 340.036 107.502 340.235 107.566C340.434 107.629 341.283 107.078 342.63 107.566C343.976 108.054 345.051 109.888 344.545 112.084C344.039 114.279 342.973 116.385 341.69 116.791C340.407 117.198 339.53 116.674 339.368 116.846Z" fill="#AA6550"/>
<path d="M294.071 67.7712C292.491 71.3606 290.11 74.5405 287.111 77.067C284.111 79.5935 280.573 81.3994 276.767 82.3463C276.324 77.1687 276.017 71.9278 276.866 66.7953C277.716 61.6629 279.794 56.6118 283.535 53.0064C287.276 49.401 292.815 47.4583 297.839 48.7956" fill="#263238"/>
<path d="M295.517 58.2652C294.207 61.5627 293.77 65.1424 294.249 68.6581C294.727 72.1738 296.105 75.5066 298.248 78.3342C300.392 81.1617 303.228 83.3884 306.484 84.7988C309.74 86.2092 313.304 86.7556 316.833 86.3853C318.207 86.2407 319.652 85.9696 320.935 86.4666C322.219 86.9636 323.222 88.2738 324.044 89.5208C327.387 94.5177 330.92 99.7134 336.188 102.605C341.456 105.496 348.992 105.207 352.516 100.337C354.224 97.9694 354.73 94.9604 355.128 92.0689C356.465 82.3371 357.016 71.8825 352.372 63.226C348.929 56.7833 342.875 52.0033 336.179 49.1027C329.484 46.2022 322.146 45.0456 314.854 44.5847C310.625 44.3227 306.243 44.3136 302.312 45.922C298.382 47.5305 294.993 51.0906 294.767 55.3285" fill="#263238"/>
<path d="M354.197 94.816C354.096 94.5843 354.011 94.3457 353.944 94.1021C353.799 93.6322 353.555 92.9365 353.239 92.06C352.3 89.5717 351.104 87.1884 349.67 84.9486C347.537 81.64 344.893 78.6907 341.836 76.2108C338.009 73.2713 333.783 70.892 329.285 69.1447C324.55 67.1568 319.914 65.5303 315.857 63.6237C312.232 61.9977 308.828 59.9178 305.728 57.434C303.648 55.7452 301.839 53.7494 300.36 51.5154C299.962 50.9064 299.603 50.2726 299.285 49.6179C299.156 49.4007 299.05 49.1705 298.969 48.9312C299.114 49.14 299.247 49.3572 299.366 49.5817C299.715 50.2031 300.095 50.8063 300.505 51.3889C302.022 53.5665 303.849 55.5115 305.926 57.1629C309.025 59.5949 312.415 61.6289 316.02 63.2171C320.059 65.0875 324.694 66.714 329.447 68.7019C333.985 70.4701 338.245 72.8802 342.098 75.8584C345.177 78.3809 347.826 81.3869 349.941 84.7589C351.358 87.0334 352.518 89.4577 353.402 91.9877C353.7 92.8913 353.917 93.5871 354.025 94.075C354.103 94.3167 354.16 94.5646 354.197 94.816Z" fill="#455A64"/>
<path d="M347.682 93.6685C347.545 93.4821 347.426 93.2823 347.329 93.0721C347.094 92.6835 346.751 92.1052 346.245 91.4095C344.799 89.4647 343.044 87.7705 341.049 86.3945C338.054 84.3912 334.856 82.7102 331.507 81.3795C329.637 80.5753 327.658 79.744 325.652 78.7862C323.646 77.8284 321.595 76.7621 319.571 75.5513C315.737 73.294 312.203 70.5616 309.053 67.4189C306.484 64.8497 304.272 61.9473 302.475 58.7895C301.272 56.6589 300.303 54.405 299.583 52.0667C299.348 51.2354 299.177 50.5848 299.095 50.1421C299.031 49.9178 298.989 49.6878 298.969 49.4553C299.06 49.6677 299.13 49.8887 299.177 50.1149C299.294 50.5577 299.493 51.1902 299.755 52.0125C300.53 54.3127 301.535 56.5287 302.755 58.6269C304.57 61.7367 306.784 64.5954 309.342 67.1297C312.486 70.2379 316 72.948 319.806 75.1989C321.812 76.4007 323.845 77.4669 325.842 78.4338C327.839 79.4006 329.8 80.241 331.67 81.0361C335.036 82.3891 338.243 84.1103 341.23 86.1686C343.236 87.584 344.981 89.3357 346.39 91.3462C346.766 91.8948 347.104 92.4684 347.402 93.0631C347.51 93.2577 347.604 93.46 347.682 93.6685Z" fill="#455A64"/>
<path d="M276.839 90.6682C276.76 90.5113 276.693 90.3481 276.64 90.1802C276.523 89.864 276.342 89.3851 276.143 88.7616C275.639 86.9941 275.336 85.1754 275.24 83.34C274.965 77.1734 276.886 71.1091 280.661 66.2258C281.723 64.8428 282.936 63.5821 284.276 62.4668C285.586 61.4006 286.932 60.497 288.216 59.6476C290.544 58.2478 292.729 56.6225 294.74 54.7952C296.074 53.5467 297.159 52.0566 297.938 50.4037C298.462 49.22 298.58 48.4972 298.625 48.5062C298.623 48.6838 298.595 48.8603 298.544 49.0303C298.432 49.5195 298.284 49.9998 298.101 50.467C297.363 52.1644 296.297 53.6996 294.965 54.985C292.97 56.8604 290.787 58.5258 288.45 59.9548C287.106 60.8288 285.806 61.7697 284.556 62.774C283.24 63.8712 282.046 65.1072 280.996 66.4607C278.96 69.0833 277.45 72.0749 276.55 75.2708C275.8 77.877 275.462 80.5843 275.547 83.2948C275.618 85.1229 275.872 86.9392 276.306 88.7164C276.469 89.3188 276.604 89.7977 276.713 90.1531C276.776 90.3189 276.819 90.4919 276.839 90.6682Z" fill="#455A64"/>
<path d="M328.625 132.478C323.698 132.531 318.922 130.779 315.197 127.553L315.776 126.912C318.962 129.784 323.026 131.494 327.307 131.766C331.588 132.038 335.836 130.856 339.361 128.411C342.886 125.966 345.481 122.402 346.726 118.296C347.97 114.191 347.791 109.786 346.218 105.795L347.022 105.479C348.541 109.663 348.663 114.228 347.37 118.488C346.076 122.748 343.437 126.474 339.847 129.108C336.534 131.341 332.621 132.516 328.625 132.478Z" fill="#660033"/>
<path d="M317.474 132.966C319.775 132.966 321.64 131.101 321.64 128.8C321.64 126.5 319.775 124.635 317.474 124.635C315.174 124.635 313.309 126.5 313.309 128.8C313.309 131.101 315.174 132.966 317.474 132.966Z" fill="#660033"/>
<path d="M363.205 109.857C364.432 102.255 359.264 95.0981 351.662 93.8709C344.061 92.6438 336.903 97.8115 335.676 105.413C334.449 113.015 339.617 120.173 347.218 121.4C354.82 122.627 361.978 117.459 363.205 109.857Z" fill="#660033"/>
<path d="M347.194 105.695C347.095 104.518 347.119 103.334 347.266 102.162L347.429 98.0326C347.429 96.4242 347.501 94.5899 347.429 92.5659C347.429 91.5538 347.356 90.4966 347.302 89.4033C347.248 88.3099 347.131 87.1623 347.022 85.9786C346.914 84.7949 346.706 83.5931 346.552 82.3642C346.435 81.7498 346.317 81.1173 346.2 80.4847C346.082 79.8522 345.956 79.2016 345.784 78.5601C344.581 72.9405 342.081 67.6801 338.483 63.1989C334.749 58.8286 329.968 55.4771 324.586 53.4581C320.173 51.7905 315.582 50.6383 310.905 50.0244C306.893 49.4641 303.613 49.2925 301.354 49.1208C300.173 49.1446 298.992 49.0477 297.83 48.8316C298.997 48.6389 300.181 48.5632 301.363 48.6057C304.589 48.5775 307.814 48.7314 311.023 49.0666C315.81 49.5587 320.518 50.6454 325.037 52.3014C330.645 54.3345 335.627 57.7909 339.495 62.3314C343.225 66.9771 345.788 72.4491 346.968 78.289C347.131 78.9486 347.257 79.6082 347.365 80.2679C347.474 80.9275 347.582 81.56 347.691 82.1925C347.835 83.4757 348.034 84.7045 348.106 85.9063C348.179 87.1081 348.296 88.2738 348.305 89.3852C348.314 90.4966 348.377 91.5719 348.305 92.593C348.305 94.6441 348.188 96.4875 348.097 98.1049C348.007 99.7224 347.844 101.105 347.709 102.243C347.648 103.408 347.476 104.564 347.194 105.695Z" fill="#660033"/>
<g opacity="0.4">
<path d="M353.523 116.515C358.414 114.474 360.723 108.854 358.681 103.963C356.64 99.0721 351.02 96.7626 346.129 98.8044C341.238 100.846 338.929 106.466 340.97 111.357C343.012 116.248 348.632 118.557 353.523 116.515Z" fill="black"/>
</g>
<path d="M346.669 98.6923C346.805 98.6036 346.95 98.5308 347.103 98.4754C347.53 98.2958 347.975 98.1625 348.431 98.0779C350.139 97.7858 351.895 98.0854 353.41 98.9272C354.466 99.5043 355.349 100.353 355.967 101.385C356.664 102.576 357.018 103.936 356.988 105.316C356.965 106.518 356.644 107.695 356.051 108.742C355.459 109.788 354.615 110.67 353.596 111.308C352.576 111.946 351.414 112.32 350.214 112.395C349.014 112.471 347.814 112.246 346.723 111.74C345.342 111.065 344.219 109.958 343.524 108.587C342.879 107.363 342.594 105.981 342.702 104.602C342.826 103.409 343.232 102.263 343.886 101.259C344.777 99.767 346.196 98.6642 347.862 98.1682C348.311 98.0436 348.778 97.9888 349.244 98.0056C349.406 98.0106 349.567 98.0349 349.723 98.0779C349.112 98.0793 348.504 98.1645 347.916 98.3309C346.333 98.8784 345.002 99.979 344.166 101.43C343.495 102.458 343.115 103.649 343.067 104.876C343.019 106.103 343.306 107.32 343.895 108.397C344.558 109.678 345.617 110.71 346.913 111.343C348.329 111.968 349.913 112.108 351.417 111.742C352.922 111.376 354.264 110.524 355.235 109.319C356.094 108.155 356.568 106.753 356.59 105.307C356.639 104.003 356.326 102.712 355.687 101.575C355.115 100.586 354.288 99.7682 353.292 99.2074C351.846 98.366 350.162 98.029 348.503 98.2495C347.883 98.3583 347.27 98.5062 346.669 98.6923Z" fill="#263238"/>
<path d="M349.742 117.09C349.414 116.38 349.265 115.602 349.308 114.822C349.205 114.051 349.289 113.267 349.552 112.535C349.725 113.278 349.792 114.042 349.751 114.803C349.859 115.562 349.856 116.332 349.742 117.09Z" fill="#263238"/>
<path d="M355.036 115.228C354.24 114.001 353.705 112.623 353.464 111.18C354.26 112.407 354.795 113.785 355.036 115.228Z" fill="#263238"/>
<path d="M358.606 111.054C358.525 111.144 357.865 110.683 357.133 110.023C356.401 109.364 355.886 108.749 355.967 108.659C356.049 108.569 356.708 109.029 357.44 109.689C358.172 110.349 358.687 110.963 358.606 111.054Z" fill="#263238"/>
<path d="M358.859 105.225C358.814 105.343 358.344 105.28 357.793 105.081C357.242 104.882 356.835 104.629 356.89 104.512C356.944 104.394 357.405 104.457 357.956 104.656C358.507 104.855 358.905 105.108 358.859 105.225Z" fill="#263238"/>
<path d="M343.479 114.957C343.729 113.413 344.459 111.987 345.567 110.882C345.335 111.613 345.01 112.311 344.6 112.96C344.311 113.67 343.934 114.341 343.479 114.957Z" fill="#263238"/>
<path d="M340.615 110.051C340.525 109.96 341.076 109.283 341.835 108.542C342.594 107.801 343.281 107.259 343.371 107.349C343.462 107.439 342.91 108.117 342.151 108.858C341.392 109.599 340.706 110.141 340.615 110.051Z" fill="#263238"/>
<path d="M342.857 103.4C342.857 103.517 342.495 103.725 341.953 103.861C341.411 103.996 340.995 104.014 340.968 103.861C340.941 103.707 341.321 103.526 341.872 103.391C342.423 103.255 342.821 103.282 342.857 103.4Z" fill="#263238"/>
<path d="M415.786 179.682C414.882 174.577 412.885 171.803 411.394 170.348C410.073 168.916 408.59 167.643 406.976 166.553C404.952 165.315 402.196 163.788 400.434 163.399C398.256 162.929 397.723 160.101 399.53 159.288C401.337 158.474 407.391 159.64 413.202 163.905C419.012 168.17 416.066 157.363 415.072 153.405C414.078 149.447 411.611 137.068 412.515 135.821C413.951 134.014 416.22 135.243 417.132 139.219C418.045 143.195 421.596 154.941 423.665 154.363C425.734 153.785 420.349 133.707 420.349 133.707C420.349 133.707 418.542 129.586 420.882 128.845C425.165 127.499 429.286 149.24 429.629 151.318C429.864 152.755 432.141 152.222 431.807 150.676C431.472 149.131 425.987 130.752 430.334 129.342C433.668 128.267 433.894 147.198 437.147 150.432C440.4 153.667 435.502 136.056 438.737 135.153C439.939 134.818 440.888 134.737 442.234 145.219C442.966 150.848 442.496 158.61 444.692 169.354" fill="#B78876"/>
<path d="M404.952 220.091L424.705 248.437L415.226 175.336L443.464 164.194C443.464 164.194 479.102 300.819 431.31 302.734C431.31 302.734 398.229 301.831 373.543 244.579L404.952 220.091Z" fill="#B78876"/>
<path d="M436.632 163.661C436.686 163.733 436.017 164.176 435.141 165.152C433.996 166.435 433.199 167.991 432.828 169.67L432.719 170.203L432.331 169.806C431.876 169.344 431.387 168.918 430.867 168.532C429.104 167.245 427.036 166.441 424.867 166.2C423.195 166.02 422.156 166.2 422.156 166.101C423.04 165.778 423.987 165.667 424.921 165.776C427.912 165.913 430.731 167.21 432.783 169.39L432.277 169.526C432.674 167.738 433.585 166.105 434.897 164.827C435.374 164.306 435.969 163.906 436.632 163.661Z" fill="#AA6550"/>
<path d="M390.765 279.186L366.865 248.871L360.648 279.882C358.134 292.441 359.43 305.465 364.371 317.282L367.452 324.665H256.779L259.544 314.806C261.108 302.734 259.02 290.138 259.382 272.843L256.309 253.353L239.566 324.665H190.347C190.347 324.665 217.337 213.983 234.289 192.079C255.623 164.474 292.905 168.116 292.905 168.116L315.739 203.917L338.049 171.631C338.049 171.631 376.38 163.499 406.307 215.004L422.319 242.446L414.882 185.944L449.562 177.956C449.562 177.956 462.077 233.464 461.255 263.193C460.523 289.741 449.219 303.665 433.56 305.038C408.9 307.189 390.765 279.186 390.765 279.186Z" fill="#660033"/>
<path d="M292.906 168.116L293.294 163.652C293.294 163.652 310.21 167.411 315.884 196.95C315.884 196.95 321.577 169.688 339.794 166.95L342.866 174.803L331.679 203.926L312.035 209.672L292.915 203.926L284.204 186.658L292.906 168.116Z" fill="#660033"/>
<path d="M245.755 179.863C245.806 180.113 245.836 180.367 245.846 180.622C245.846 181.164 245.936 181.896 246.008 182.826C246.126 184.733 246.325 187.489 246.596 190.905C247.147 197.718 248.078 207.124 249.55 217.452C251.023 227.78 252.776 237.079 254.159 243.774C254.855 247.127 255.433 249.828 255.858 251.699C256.047 252.602 256.201 253.325 256.318 253.849C256.383 254.098 256.425 254.352 256.445 254.608C256.354 254.37 256.282 254.125 256.228 253.876C256.09 253.352 255.909 252.639 255.686 251.735C255.216 249.883 254.583 247.217 253.879 243.846C252.415 237.16 250.626 227.862 249.135 217.516C247.644 207.169 246.776 197.754 246.316 190.923C246.081 187.507 245.927 184.742 245.855 182.835C245.855 181.932 245.801 181.173 245.782 180.631C245.764 180.088 245.746 179.863 245.755 179.863Z" fill="#263238"/>
<path d="M342.45 170.583C342.384 170.732 342.302 170.875 342.206 171.007L341.447 172.182L338.628 176.483C336.26 180.097 333.071 185.203 329.745 190.941C329.619 191.167 329.483 191.383 329.366 191.6L329.149 191.971L328.968 191.582C328.391 190.147 327.569 188.823 326.538 187.67C326.066 187.153 325.478 186.756 324.823 186.511C324.168 186.266 323.464 186.18 322.77 186.26C321.516 186.532 320.409 187.26 319.661 188.302C318.973 189.194 318.447 190.201 318.107 191.275C317.474 193.263 317.104 194.935 316.625 196.019C316.457 196.438 316.261 196.846 316.038 197.239C315.875 197.504 315.785 197.63 315.767 197.618C315.767 197.618 316.074 197.049 316.471 195.956C316.869 194.862 317.203 193.245 317.818 191.185C318.141 190.062 318.668 189.009 319.372 188.076C320.16 186.94 321.353 186.148 322.706 185.862C323.464 185.764 324.235 185.849 324.954 186.11C325.672 186.371 326.317 186.8 326.836 187.362C327.916 188.543 328.776 189.908 329.375 191.392H328.977L329.357 190.733C332.682 184.986 335.926 179.89 338.393 176.329C339.613 174.522 340.625 173.085 341.329 172.101C341.673 171.649 341.944 171.269 342.161 170.971C342.243 170.832 342.34 170.702 342.45 170.583Z" fill="#263238"/>
<path d="M326.338 187.308C326.338 187.308 326.293 187.444 326.157 187.688L325.561 188.736L323.293 192.549L319.877 198.161L317.844 201.477C317.483 202.046 317.121 202.633 316.751 203.23C316.638 203.4 316.494 203.547 316.326 203.664C316.226 203.729 316.112 203.771 315.993 203.786C315.874 203.802 315.753 203.791 315.639 203.754C315.248 203.6 314.926 203.307 314.736 202.932C311.564 198.161 309.197 193.543 307.344 190.281C306.441 188.646 305.673 187.335 305.149 186.432C304.852 185.977 304.587 185.503 304.354 185.013C304.354 185.013 304.462 185.122 304.616 185.348C304.769 185.573 305.013 185.899 305.293 186.341C305.872 187.245 306.667 188.51 307.616 190.128C309.54 193.335 311.953 197.926 315.115 202.67C315.305 202.977 315.486 203.239 315.73 203.311C315.974 203.383 316.164 203.221 316.353 202.959L317.438 201.224L319.489 197.926L322.986 192.359L325.371 188.628C325.642 188.23 325.859 187.896 326.049 187.625C326.132 187.507 326.229 187.401 326.338 187.308Z" fill="#263238"/>
<path d="M387.621 189.956C387.547 190.158 387.46 190.354 387.359 190.543C387.16 190.959 386.889 191.51 386.546 192.197C385.823 193.625 384.811 195.703 383.6 198.287C382.389 200.872 381.016 203.989 379.57 207.477C378.124 210.965 376.651 214.85 375.224 218.971C373.796 223.091 372.603 227.103 371.609 230.717C370.615 234.332 369.802 237.657 369.142 240.44C368.483 243.223 368.022 245.491 367.715 247.055C367.561 247.805 367.435 248.401 367.344 248.862C367.311 249.074 367.256 249.283 367.182 249.485C367.183 249.269 367.207 249.054 367.254 248.844C367.326 248.383 367.426 247.777 367.543 247.036C367.796 245.455 368.239 243.178 368.835 240.377C369.432 237.576 370.227 234.269 371.212 230.609C372.197 226.949 373.426 222.983 374.826 218.862C376.227 214.742 377.763 210.856 379.209 207.359C380.654 203.862 382.091 200.763 383.347 198.188C384.603 195.613 385.651 193.552 386.419 192.152L387.323 190.543C387.401 190.337 387.501 190.14 387.621 189.956Z" fill="#263238"/>
<path d="M336.992 302.219C336.764 302.231 336.534 302.231 336.306 302.219L334.327 302.066C333.423 301.993 332.42 301.903 331.209 301.749C329.999 301.596 328.607 301.46 327.089 301.225C324.035 300.81 320.42 300.177 316.436 299.355C312.451 298.533 308.104 297.43 303.595 296.102C299.086 294.774 294.867 293.265 291.062 291.81C287.258 290.355 283.906 288.873 281.123 287.554C279.713 286.921 278.475 286.28 277.382 285.747C276.289 285.214 275.349 284.717 274.599 284.301L272.855 283.352C272.65 283.25 272.454 283.132 272.268 283C272.487 283.069 272.699 283.16 272.9 283.271L274.707 284.174C275.475 284.563 276.415 285.078 277.517 285.548C278.62 286.018 279.867 286.686 281.276 287.292C284.078 288.575 287.448 290.003 291.216 291.448C294.984 292.894 299.231 294.349 303.722 295.695C308.213 297.042 312.559 298.099 316.517 298.975C320.475 299.852 324.089 300.484 327.134 300.936C328.643 301.198 330.026 301.361 331.236 301.524C332.447 301.686 333.486 301.822 334.345 301.912L336.315 302.156C336.542 302.157 336.769 302.178 336.992 302.219Z" fill="#263238"/>
<path d="M332.094 304.153C331.946 304.211 331.791 304.25 331.633 304.27L330.314 304.523C329.166 304.731 327.494 304.993 325.425 305.282C314.646 306.735 303.749 307.113 292.896 306.412C290.808 306.267 289.128 306.123 287.971 305.987L286.634 305.834C286.478 305.818 286.324 305.791 286.173 305.752C286.329 305.731 286.487 305.731 286.643 305.752L287.98 305.825C289.146 305.906 290.826 306.005 292.914 306.105C297.07 306.303 302.853 306.439 309.179 306.222C315.504 306.005 321.269 305.463 325.443 304.975C327.513 304.731 329.184 304.514 330.341 304.361L331.678 304.189C331.814 304.158 331.954 304.146 332.094 304.153Z" fill="#263238"/>
<path d="M371.266 254.455C371.285 254.234 371.328 254.016 371.392 253.804L371.853 251.997L373.57 245.229C375.025 239.519 376.949 231.612 379.326 222.937C380.518 218.6 381.738 214.489 382.94 210.775C384.142 207.061 385.299 203.754 386.365 201.007C386.871 199.616 387.395 198.387 387.829 197.302C388.262 196.218 388.669 195.296 389.012 194.546L389.798 192.821C389.884 192.613 389.986 192.414 390.106 192.224C390.048 192.441 389.972 192.652 389.88 192.857C389.708 193.29 389.473 193.878 389.175 194.61C388.877 195.342 388.479 196.308 388.064 197.402C387.648 198.495 387.16 199.724 386.663 201.116C385.633 203.872 384.512 207.197 383.338 210.902C382.163 214.606 380.961 218.727 379.769 223.055C377.401 231.72 375.431 239.618 373.895 245.311C373.136 248.157 372.504 250.461 372.043 252.042L371.501 253.85C371.445 254.059 371.366 254.262 371.266 254.455Z" fill="#263238"/>
<path d="M255.731 252.973C255.563 252.803 255.406 252.622 255.262 252.431C254.972 252.051 254.512 251.527 254.005 250.795C252.517 248.742 251.196 246.573 250.057 244.307C248.363 240.945 246.975 237.437 245.909 233.826C244.617 229.406 243.657 224.897 243.036 220.335C241.717 210.63 241.5 201.757 241.102 195.377C240.921 192.179 240.75 189.594 240.623 187.805C240.56 186.947 240.506 186.26 240.47 185.754C240.452 185.514 240.452 185.272 240.47 185.031C240.529 185.265 240.568 185.504 240.587 185.745C240.641 186.206 240.732 186.902 240.822 187.796C241.012 189.603 241.229 192.161 241.445 195.35C241.924 201.739 242.186 210.603 243.506 220.272C244.121 224.813 245.066 229.304 246.334 233.708C247.362 237.306 248.701 240.807 250.337 244.172C251.448 246.437 252.72 248.62 254.141 250.705C254.629 251.455 255.045 251.988 255.334 252.386C255.485 252.568 255.618 252.765 255.731 252.973Z" fill="#263238"/>
<path d="M251.53 233.076C251.53 233.211 250.247 233.491 248.819 234.323C247.391 235.154 246.533 236.13 246.434 236.039C246.975 235.174 247.718 234.452 248.599 233.936C249.481 233.42 250.474 233.125 251.494 233.076H251.53Z" fill="#263238"/>
<path d="M250.689 221.473C249.534 221.791 248.404 222.196 247.31 222.684C246.29 223.311 245.318 224.011 244.4 224.781C245.07 223.721 246.008 222.858 247.119 222.277C248.229 221.697 249.473 221.419 250.726 221.473H250.689Z" fill="#263238"/>
<path d="M248.15 210.865C247.229 211.112 246.324 211.414 245.439 211.769C244.629 212.25 243.847 212.778 243.099 213.35C243.602 212.493 244.344 211.801 245.235 211.359C246.126 210.918 247.127 210.746 248.114 210.865H248.15Z" fill="#263238"/>
<path d="M246.913 199.895C246.913 200.022 245.783 200.248 244.482 200.799C243.181 201.35 242.223 202.028 242.142 201.928C242.69 201.209 243.443 200.67 244.301 200.383C245.104 199.966 246.013 199.796 246.913 199.895Z" fill="#263238"/>
<path d="M246.198 191.058C246.198 191.185 245.06 191.402 243.759 192.016C242.458 192.631 241.554 193.381 241.473 193.281C241.975 192.514 242.71 191.929 243.569 191.61C244.365 191.153 245.286 190.96 246.198 191.058Z" fill="#263238"/>
<path d="M373.587 240.919C373.479 241 372.892 240.205 371.78 239.78C371.104 239.581 370.411 239.439 369.711 239.356C370.056 239.177 370.438 239.083 370.827 239.083C371.215 239.083 371.598 239.177 371.943 239.356C373.208 239.862 373.705 240.883 373.587 240.919Z" fill="#263238"/>
<path d="M376.949 231.874C376.485 230.989 375.8 230.239 374.961 229.696C374.122 229.153 373.158 228.836 372.16 228.775C372.16 228.72 372.494 228.603 373.064 228.621C373.823 228.664 374.558 228.904 375.196 229.317C375.837 229.728 376.358 230.302 376.705 230.979C376.967 231.522 377.003 231.856 376.949 231.874Z" fill="#263238"/>
<path d="M379.47 221.925C378.841 221.226 378.058 220.681 377.183 220.335C376.309 219.988 375.365 219.849 374.428 219.928C374.428 219.883 374.717 219.721 375.259 219.648C375.969 219.56 376.691 219.653 377.355 219.919C378.019 220.183 378.606 220.609 379.063 221.157C379.407 221.582 379.515 221.907 379.47 221.925Z" fill="#263238"/>
<path d="M382.442 212.374C382.325 212.437 381.855 211.543 380.807 211.01C380.149 210.743 379.465 210.549 378.765 210.431C378.765 210.377 379 210.269 379.424 210.242C379.978 210.232 380.526 210.363 381.016 210.622C381.506 210.881 381.922 211.26 382.225 211.724C382.442 212.085 382.487 212.347 382.442 212.374Z" fill="#263238"/>
<path d="M385.912 203.6C385.417 202.969 384.803 202.441 384.105 202.046C383.345 201.765 382.539 201.63 381.729 201.648C381.729 201.603 381.963 201.431 382.442 201.35C383.073 201.274 383.712 201.374 384.288 201.641C384.864 201.907 385.355 202.329 385.704 202.859C385.921 203.275 385.957 203.582 385.912 203.6Z" fill="#263238"/>
<path d="M329.113 191.058C329.064 191.205 328.997 191.344 328.914 191.474L328.281 192.631C327.721 193.625 326.89 195.061 325.842 196.823C324.793 198.585 323.528 200.664 322.083 202.95C321.351 204.088 320.583 205.281 319.751 206.501C318.92 207.778 318.015 209.006 317.041 210.178C316.784 210.501 316.479 210.781 316.137 211.01C316.017 211.08 315.877 211.109 315.739 211.091C315.62 211.071 315.505 211.035 315.396 210.983C315.215 210.88 315.042 210.762 314.881 210.63C314.306 210.127 313.777 209.574 313.3 208.977C312.396 207.838 311.492 206.682 310.743 205.579C309.188 203.356 307.869 201.305 306.776 199.57C305.682 197.835 304.833 196.426 304.255 195.432L303.604 194.284C303.516 194.157 303.449 194.017 303.405 193.868C303.506 193.984 303.597 194.108 303.676 194.239L304.399 195.341C305.059 196.353 305.953 197.727 307.038 199.408C308.122 201.088 309.514 203.139 311.077 205.335C311.863 206.438 312.703 207.576 313.634 208.697C314.098 209.268 314.609 209.8 315.161 210.287C315.432 210.504 315.776 210.739 315.947 210.603C316.242 210.4 316.506 210.157 316.733 209.88C317.702 208.726 318.607 207.519 319.444 206.266C320.275 205.055 321.053 203.871 321.784 202.733C323.248 200.465 324.54 198.405 325.625 196.661C326.709 194.917 327.549 193.579 328.182 192.549L328.896 191.438C329.004 191.176 329.095 191.049 329.113 191.058Z" fill="#263238"/>
<path d="M309.857 203.917C309.802 203.917 309.703 203.609 309.739 203.085C309.808 202.405 310.072 201.758 310.498 201.224C310.917 200.681 311.486 200.273 312.134 200.049C312.631 199.896 312.956 199.923 312.965 199.977C312.165 200.338 311.445 200.858 310.851 201.504C310.355 202.23 310.017 203.052 309.857 203.917Z" fill="#263238"/>
<path d="M315.83 211.037C315.27 208.698 315.251 206.263 315.776 203.917C315.888 205.1 315.909 206.29 315.839 207.477C315.926 208.662 315.923 209.852 315.83 211.037Z" fill="#263238"/>
<path d="M322.534 201.965C322.408 201.965 322.128 200.998 321.188 200.23C320.585 199.813 319.932 199.473 319.245 199.218C319.245 199.164 319.516 199.1 319.95 199.173C320.512 199.274 321.038 199.52 321.477 199.886C321.918 200.25 322.254 200.724 322.453 201.26C322.597 201.703 322.588 201.947 322.534 201.965Z" fill="#263238"/>
<path d="M326.934 194.6C326.643 193.933 326.269 193.305 325.823 192.73C325.272 192.247 324.665 191.831 324.016 191.492C324.016 191.438 324.296 191.411 324.711 191.492C325.254 191.666 325.743 191.977 326.13 192.396C326.52 192.808 326.795 193.316 326.925 193.868C327.034 194.32 326.988 194.591 326.934 194.6Z" fill="#263238"/>
<path d="M305.366 197.185C305.312 197.185 305.167 196.85 305.149 196.281C305.135 195.487 305.325 194.703 305.7 194.004C306.074 193.303 306.618 192.706 307.282 192.269C307.797 191.953 308.185 191.88 308.185 191.926C307.305 192.498 306.584 193.283 306.09 194.209C305.595 195.135 305.343 196.171 305.357 197.221L305.366 197.185Z" fill="#263238"/>
<g opacity="0.4">
<path d="M292.67 168.044C294.604 175.471 297.839 187.57 301.336 197.031C301.465 197.477 301.694 197.888 302.005 198.233C302.908 199.073 304.417 198.558 305.258 197.664C305.97 196.743 306.607 195.767 307.164 194.745C307.449 194.237 307.848 193.803 308.329 193.475C308.811 193.147 309.361 192.936 309.938 192.856C310.413 192.868 310.879 192.985 311.304 193.197C311.729 193.409 312.102 193.713 312.396 194.085C312.979 194.837 313.485 195.645 313.905 196.498C314.001 196.734 314.145 196.946 314.329 197.122C314.513 197.298 314.732 197.434 314.971 197.519C315.091 197.556 315.22 197.556 315.34 197.52C315.461 197.485 315.568 197.414 315.649 197.318C315.73 197.222 315.781 197.104 315.795 196.979C315.81 196.854 315.787 196.728 315.73 196.615L312.64 188.591C312.64 188.591 311.221 182.709 306.315 183.622C300.821 184.643 303.315 193.679 303.315 193.679C303.315 193.679 292.589 167.727 292.67 168.044Z" fill="black"/>
</g>
<path d="M315.884 196.95C315.773 196.788 315.685 196.612 315.622 196.426C315.459 196.073 315.233 195.522 314.953 194.881C314.402 193.471 313.625 191.519 312.676 189.125C312.432 188.519 312.17 187.887 311.89 187.236C311.626 186.57 311.243 185.958 310.76 185.429C310.206 184.867 309.536 184.432 308.796 184.156C308.056 183.879 307.265 183.768 306.477 183.83C305.64 183.934 304.854 184.287 304.218 184.842C303.632 185.514 303.214 186.316 302.998 187.182C302.749 188.063 302.684 188.986 302.809 189.893C302.92 190.86 303.092 191.82 303.324 192.766C303.405 193.119 303.495 193.471 303.577 193.796L303.143 193.923C301.878 190.308 300.432 186.911 299.095 183.866C297.758 180.821 296.538 178.074 295.58 175.733C294.622 173.393 293.917 171.504 293.493 170.167C293.267 169.508 293.131 168.983 293.032 168.622C292.968 168.447 292.925 168.265 292.905 168.08C292.989 168.246 293.058 168.418 293.113 168.595C293.24 168.947 293.402 169.498 293.655 170.113C294.125 171.423 294.875 173.312 295.869 175.607C296.863 177.902 298.101 180.631 299.483 183.676C300.866 186.721 302.312 190.101 303.586 193.76L303.161 193.896C303.08 193.561 302.989 193.209 302.899 192.857C302.665 191.89 302.493 190.909 302.384 189.92C302.248 188.94 302.321 187.942 302.601 186.992C302.841 186.06 303.299 185.199 303.938 184.48C304.642 183.862 305.519 183.474 306.45 183.369C307.299 183.301 308.152 183.424 308.947 183.727C309.743 184.03 310.461 184.507 311.05 185.122C311.553 185.694 311.951 186.352 312.224 187.064C312.504 187.724 312.748 188.366 312.992 188.971C313.896 191.384 314.61 193.354 315.134 194.781C315.378 195.432 315.568 195.956 315.721 196.353C315.794 196.547 315.848 196.746 315.884 196.95Z" fill="#263238"/>
<g opacity="0.4">
<path d="M316.317 196.733C316.137 196.859 316.272 197.194 316.489 197.239C316.603 197.25 316.717 197.237 316.825 197.199C316.932 197.162 317.031 197.101 317.113 197.022C318.158 196.017 319.037 194.852 319.715 193.57C320.528 192.359 321.712 191.203 323.167 191.203C324.622 191.203 325.959 192.486 326.718 193.832C327.477 195.179 328.001 196.697 329.103 197.781C334.647 189.655 339.058 180.812 342.215 171.495C340.407 172.751 339.206 174.712 338.076 176.601C335.142 181.498 332.209 186.393 329.275 191.284C328.726 189.822 327.88 188.49 326.79 187.372C326.243 186.815 325.57 186.399 324.827 186.16C324.084 185.921 323.294 185.865 322.525 185.998C320.817 186.405 319.625 187.95 318.793 189.504C317.561 191.774 316.761 194.252 316.435 196.814" fill="black"/>
</g>
<path d="M431.716 269.12C431.486 268.814 431.289 268.484 431.129 268.135C430.776 267.485 430.288 266.527 429.719 265.343C428.239 262.234 426.915 259.052 425.752 255.81C424.592 252.571 423.597 249.274 422.771 245.934C422.454 244.651 422.228 243.612 422.084 242.88C421.993 242.509 421.935 242.131 421.912 241.75C422.064 242.102 422.18 242.468 422.255 242.844C422.472 243.639 422.752 244.651 423.078 245.853C423.783 248.392 424.822 251.88 426.177 255.666C427.533 259.452 428.942 262.804 430.008 265.208C430.523 266.346 430.912 267.304 431.282 268.054C431.463 268.394 431.609 268.751 431.716 269.12Z" fill="#263238"/>
<path d="M423.123 267.422C422.97 267.106 422.849 266.776 422.762 266.437C422.554 265.786 422.292 264.846 422.003 263.672C420.524 257.523 420.024 251.181 420.521 244.877C420.62 243.675 420.729 242.699 420.837 242.03C420.86 241.679 420.93 241.333 421.045 241C421.083 241.349 421.083 241.7 421.045 242.048C420.991 242.717 420.936 243.693 420.873 244.895C420.56 251.167 421.055 257.453 422.346 263.599C422.599 264.783 422.807 265.732 422.97 266.391C423.065 266.727 423.117 267.073 423.123 267.422Z" fill="#263238"/>
<path d="M450.737 188.32C450.975 188.381 451.205 188.469 451.424 188.582L451.559 188.646L451.424 188.7C445.797 190.585 440.041 192.059 434.201 193.109C429.159 194.013 424.542 194.573 421.198 194.844C419.527 194.98 418.171 195.061 417.231 195.088C416.744 195.132 416.255 195.132 415.768 195.088C416.245 194.994 416.728 194.934 417.213 194.908L421.171 194.519C424.496 194.167 429.096 193.615 434.12 192.658C442.505 191.13 449.4 189.097 451.415 188.573V188.682C451.175 188.589 450.947 188.468 450.737 188.32Z" fill="#263238"/>
<path d="M442.957 184.399C442.957 184.399 443.039 184.254 443.319 184.173C443.521 184.131 443.729 184.133 443.93 184.178C444.131 184.223 444.32 184.311 444.484 184.435C444.748 184.605 444.957 184.847 445.088 185.131C445.219 185.416 445.267 185.732 445.225 186.043C445.189 186.233 445.111 186.413 444.997 186.569C444.883 186.725 444.736 186.854 444.566 186.947C444.215 187.146 443.808 187.222 443.409 187.164C443.011 187.112 442.639 186.938 442.343 186.667C442.206 186.531 442.097 186.369 442.024 186.191C441.951 186.012 441.915 185.82 441.918 185.627C441.939 185.318 442.038 185.02 442.208 184.76C442.377 184.501 442.61 184.289 442.885 184.146C443.237 183.942 443.652 183.874 444.051 183.956C444.331 184.028 444.439 184.155 444.43 184.173C443.955 184.072 443.46 184.16 443.048 184.417C442.839 184.545 442.666 184.723 442.541 184.934C442.417 185.145 442.346 185.383 442.334 185.627C442.354 185.916 442.481 186.187 442.689 186.388C442.898 186.588 443.174 186.704 443.463 186.712C443.743 186.78 444.039 186.74 444.291 186.599C444.542 186.458 444.731 186.227 444.819 185.953C444.835 185.75 444.809 185.545 444.743 185.352C444.677 185.16 444.572 184.982 444.435 184.832C444.298 184.681 444.131 184.56 443.945 184.476C443.76 184.392 443.559 184.347 443.355 184.344C443.102 184.362 442.975 184.444 442.957 184.399Z" fill="#263238"/>
<path d="M308.682 203.51C308.526 203.665 308.36 203.81 308.185 203.944C307.842 204.197 307.372 204.63 306.694 205.082C304.813 206.426 302.8 207.573 300.685 208.507C297.543 209.898 294.222 210.841 290.818 211.308C288.809 211.579 286.781 211.688 284.755 211.633C282.579 211.557 280.414 211.288 278.285 210.829C273.912 209.844 269.972 208.236 266.258 207.215C264.517 206.715 262.737 206.364 260.936 206.167C259.357 206.01 257.767 206.028 256.192 206.221C253.914 206.454 251.725 207.226 249.804 208.471C249.124 208.964 248.469 209.492 247.843 210.052C248.377 209.39 249.004 208.809 249.704 208.326C251.624 207.003 253.839 206.171 256.156 205.905C257.744 205.697 259.35 205.664 260.945 205.805C262.779 205.986 264.593 206.328 266.367 206.826C270.117 207.802 274.056 209.401 278.375 210.377C280.481 210.827 282.621 211.096 284.773 211.182C286.775 211.236 288.777 211.136 290.764 210.883C294.138 210.436 297.434 209.523 300.559 208.173C302.672 207.279 304.693 206.184 306.595 204.902C307.291 204.477 307.77 204.07 308.131 203.835C308.302 203.707 308.487 203.597 308.682 203.51Z" fill="#FAFAFA"/>
<path d="M366.097 240.684C366.002 240.653 365.911 240.61 365.825 240.558L365.039 240.151C364.696 239.979 364.253 239.799 363.738 239.564C363.223 239.329 362.609 239.121 361.931 238.94C357.91 237.899 353.71 237.748 349.624 238.497C346.796 238.959 343.999 239.593 341.248 240.395C338.266 241.208 335.085 242.157 331.669 242.853C328.084 243.64 324.399 243.866 320.745 243.521C316.845 243.051 313.01 242.142 309.314 240.811C305.492 239.527 301.841 238.1 298.254 236.898C294.831 235.694 291.3 234.826 287.709 234.305C281.604 233.498 275.402 233.835 269.42 235.299C267.129 235.877 264.877 236.605 262.679 237.476C261.731 237.892 260.827 238.262 260.023 238.651C259.219 239.04 258.487 239.392 257.845 239.753L256.137 240.702L254.918 241.461L254.168 241.913C254.086 241.976 253.994 242.025 253.896 242.058L254.14 241.877L254.872 241.38C255.189 241.172 255.586 240.892 256.065 240.594L257.755 239.6C258.396 239.229 259.137 238.877 259.933 238.461C260.728 238.046 261.631 237.675 262.589 237.241C264.787 236.343 267.042 235.591 269.339 234.991C275.357 233.472 281.608 233.101 287.763 233.898C291.384 234.41 294.947 235.276 298.399 236.482C302.013 237.675 305.628 239.103 309.45 240.386C313.117 241.709 316.921 242.618 320.79 243.097C324.4 243.451 328.044 243.238 331.588 242.464C334.986 241.786 338.157 240.856 341.148 240.052C343.918 239.262 346.733 238.643 349.579 238.199C353.68 237.466 357.893 237.655 361.913 238.75C362.627 238.949 363.232 239.22 363.765 239.419C364.298 239.618 364.714 239.853 365.057 240.042L365.816 240.494C366.015 240.621 366.106 240.675 366.097 240.684Z" fill="#FAFAFA"/>
<path d="M320.564 202.832C321.325 203.046 322.097 203.215 322.878 203.338C325.014 203.579 327.177 203.407 329.248 202.832C332.305 201.896 335.301 200.774 338.221 199.471C339.989 198.753 341.823 198.208 343.697 197.844C345.715 197.485 347.768 197.366 349.814 197.492C353.761 197.749 357.637 198.665 361.281 200.203C364.243 201.453 367.101 202.937 369.829 204.64C372.169 206.067 374.003 207.35 375.25 208.173C375.856 208.588 376.335 208.923 376.696 209.185C376.87 209.293 377.033 209.417 377.184 209.555C376.996 209.476 376.817 209.376 376.651 209.257L375.16 208.353C373.859 207.54 372.006 206.338 369.648 204.947C366.91 203.299 364.056 201.852 361.109 200.618C357.502 199.102 353.671 198.187 349.769 197.908C347.757 197.79 345.738 197.902 343.751 198.242C341.898 198.6 340.082 199.133 338.329 199.832C334.968 201.134 332.004 202.543 329.293 203.112C327.184 203.674 324.983 203.8 322.823 203.483C322.043 203.379 321.281 203.159 320.564 202.832Z" fill="#FAFAFA"/>
<path d="M373.38 180.17C372.963 180.332 372.534 180.462 372.097 180.558C371.672 180.676 371.193 180.802 370.56 180.92C369.928 181.037 369.277 181.2 368.509 181.308C366.715 181.61 364.905 181.806 363.088 181.896C360.89 182.007 358.687 181.983 356.491 181.823C354.28 181.624 352.083 181.286 349.913 180.811C348.142 180.417 346.396 179.923 344.681 179.329C343.949 179.095 343.308 178.814 342.73 178.598C342.151 178.381 341.672 178.164 341.284 177.983C340.867 177.816 340.465 177.613 340.082 177.378C340.515 177.489 340.939 177.637 341.347 177.82C341.754 177.983 342.251 178.173 342.82 178.363C343.389 178.552 344.049 178.814 344.781 179.031C346.245 179.501 348.016 179.98 349.995 180.414C354.307 181.331 358.718 181.704 363.124 181.525C365.148 181.435 366.973 181.263 368.491 181.046C369.259 180.956 369.937 180.82 370.542 180.721C371.148 180.622 371.663 180.522 372.079 180.432C372.502 180.302 372.938 180.214 373.38 180.17Z" fill="#FAFAFA"/>
<path d="M246.126 185.971C246.245 185.845 246.375 185.73 246.515 185.628C246.786 185.411 247.183 185.086 247.707 184.724C248.746 183.929 250.264 182.809 252.225 181.507C257.259 178.035 262.772 175.313 268.589 173.429C274.444 171.567 280.659 171.133 286.716 172.164C288.538 172.499 290.324 173.01 292.047 173.691C292.661 173.917 293.113 174.161 293.429 174.297C293.591 174.361 293.746 174.443 293.89 174.541C293.89 174.541 293.213 174.297 291.993 173.854C290.261 173.235 288.477 172.776 286.661 172.48C280.654 171.552 274.513 172.022 268.716 173.854C262.96 175.74 257.488 178.403 252.451 181.769C250.49 183.034 248.936 184.119 247.87 184.869L246.632 185.772C246.474 185.862 246.303 185.929 246.126 185.971Z" fill="#FAFAFA"/>
<path d="M359.853 280.732C359.773 280.769 359.687 280.793 359.6 280.804L358.841 280.966C358.43 281.06 358.014 281.123 357.594 281.156L356.799 281.247H355.895C353.302 281.355 349.57 280.686 345.169 279.277C342.965 278.59 340.579 277.741 337.986 276.973C335.229 276.154 332.4 275.606 329.537 275.337C323.474 274.759 316.769 275.491 309.866 276.747C302.962 278.003 296.402 279.566 290.33 280.289C284.955 281.043 279.503 281.077 274.119 280.388C270.489 279.913 266.961 278.848 263.674 277.235L262.156 276.439L261.071 275.798L260.421 275.373L260.213 275.22C260.297 275.246 260.376 275.286 260.448 275.337L261.116 275.717L262.201 276.358L263.728 277.117C267.023 278.654 270.538 279.667 274.146 280.117C279.503 280.75 284.919 280.683 290.258 279.918C296.303 279.168 302.827 277.596 309.766 276.304C316.706 275.012 323.438 274.316 329.555 274.93C332.441 275.211 335.293 275.777 338.067 276.62C340.669 277.406 343.055 278.265 345.242 278.97C348.652 280.233 352.242 280.944 355.877 281.075H356.781L357.576 281.003C357.995 280.986 358.411 280.938 358.823 280.858L359.582 280.741L359.853 280.732Z" fill="#FAFAFA"/>
<g opacity="0.3">
<path d="M280.246 286.957C284.339 297.177 292.264 304.433 303.17 305.933C314.077 307.433 325.11 304.939 335.7 302.047C316.39 299.337 299.303 296.671 280.219 286.957" fill="black"/>
</g>
<path d="M362.618 315.059L362.356 314.96L361.588 314.635L358.669 313.333C356.121 312.222 352.48 310.505 347.934 308.535C345.462 307.455 342.901 306.587 340.281 305.942C337.275 305.224 334.16 305.08 331.1 305.517C329.448 305.761 327.816 306.133 326.221 306.629C324.562 307.148 322.93 307.751 321.332 308.436C318.07 309.864 314.826 311.635 311.483 313.424C308.248 315.219 304.891 316.783 301.435 318.104C298.203 319.347 294.785 320.04 291.324 320.156C288.181 320.193 285.064 319.577 282.17 318.348C279.683 317.278 277.268 316.047 274.942 314.662C272.782 313.424 270.839 312.303 269.077 311.445C267.573 310.688 266.011 310.053 264.406 309.547C263.813 309.353 263.21 309.193 262.598 309.068C262.165 308.954 261.724 308.87 261.279 308.815L260.457 308.68C260.362 308.674 260.267 308.656 260.177 308.626C260.27 308.611 260.364 308.611 260.457 308.626L261.288 308.716C261.739 308.756 262.186 308.829 262.626 308.933C263.236 309.041 263.84 309.186 264.433 309.367C266.054 309.84 267.635 310.444 269.159 311.174C270.966 312.014 272.908 313.126 275.068 314.336C277.397 315.697 279.811 316.904 282.297 317.951C285.159 319.14 288.234 319.727 291.333 319.677C294.737 319.543 298.096 318.847 301.273 317.616C304.69 316.296 308.012 314.738 311.212 312.954C314.546 311.147 317.799 309.394 321.088 307.966C322.702 307.259 324.352 306.638 326.031 306.105C327.652 305.615 329.307 305.246 330.983 305.002C334.09 304.569 337.251 304.729 340.299 305.472C342.94 306.147 345.517 307.054 347.998 308.183C352.516 310.198 356.13 311.951 358.678 313.117L361.561 314.49L362.311 314.861C362.537 315.005 362.627 315.05 362.618 315.059Z" fill="#FAFAFA"/>
</svg>
