<svg width="36" height="35" viewBox="0 0 36 35" fill="none" xmlns="http://www.w3.org/2000/svg">
<path d="M20.917 4.37492C20.917 4.76169 21.0706 5.13263 21.3441 5.40612C21.6176 5.67961 21.9886 5.83325 22.3753 5.83325H28.2087C28.5954 5.83325 28.9664 5.9869 29.2399 6.26039C29.5133 6.53388 29.667 6.90481 29.667 7.29159V27.7083C29.667 28.095 29.5133 28.466 29.2399 28.7394C28.9664 29.0129 28.5954 29.1666 28.2087 29.1666H22.3753C21.9886 29.1666 21.6176 29.3202 21.3441 29.5937C21.0706 29.8672 20.917 30.2381 20.917 30.6249C20.917 31.0117 21.0706 31.3826 21.3441 31.6561C21.6176 31.9296 21.9886 32.0833 22.3753 32.0833H28.2087C29.369 32.0833 30.4818 31.6223 31.3022 30.8018C32.1227 29.9814 32.5837 28.8686 32.5837 27.7083V7.29159C32.5837 6.13126 32.1227 5.01846 31.3022 4.19799C30.4818 3.37752 29.369 2.91659 28.2087 2.91659H22.3753C21.9886 2.91659 21.6176 3.07023 21.3441 3.34372C21.0706 3.61721 20.917 3.98814 20.917 4.37492Z" fill="#1B1B1B"/>
<path d="M3.53398 16.9459C3.60339 16.7668 3.70747 16.6033 3.84024 16.4646L9.67357 10.6313C9.80954 10.4953 9.97096 10.3874 10.1486 10.3139C10.3263 10.2403 10.5167 10.2024 10.709 10.2024C10.9013 10.2024 11.0917 10.2403 11.2693 10.3139C11.447 10.3874 11.6084 10.4953 11.7444 10.6313C11.8804 10.7672 11.9882 10.9287 12.0618 11.1063C12.1354 11.284 12.1733 11.4744 12.1733 11.6667C12.1733 11.859 12.1354 12.0494 12.0618 12.2271C11.9882 12.4047 11.8804 12.5661 11.7444 12.7021L8.39023 16.0417L22.3757 16.0417C22.7624 16.0417 23.1334 16.1953 23.4068 16.4688C23.6803 16.7423 23.834 17.1133 23.834 17.5C23.834 17.8868 23.6803 18.2577 23.4068 18.5312C23.1334 18.8047 22.7624 18.9584 22.3757 18.9584L8.39023 18.9584L11.7444 22.2979C12.019 22.5726 12.1733 22.945 12.1733 23.3334C12.1733 23.7217 12.019 24.0942 11.7444 24.3688C11.4698 24.6434 11.0973 24.7977 10.709 24.7977C10.3206 24.7977 9.94818 24.6434 9.67357 24.3688L3.84024 18.5354C3.70747 18.3968 3.60339 18.2332 3.53398 18.0542C3.45683 17.8796 3.41698 17.6909 3.41698 17.5C3.41698 17.3092 3.45683 17.1204 3.53398 16.9459Z" fill="#1B1B1B"/>
</svg>
