<svg width="36" height="35" viewBox="0 0 36 35" fill="none" xmlns="http://www.w3.org/2000/svg">
<path d="M15.083 30.625C15.083 30.2382 14.9294 29.8673 14.6559 29.5938C14.3824 29.3203 14.0114 29.1667 13.6247 29.1667H7.79134C7.40457 29.1667 7.03364 29.013 6.76015 28.7396C6.48665 28.4661 6.33301 28.0951 6.33301 27.7084L6.33301 7.29169C6.33301 6.90491 6.48665 6.53398 6.76015 6.26049C7.03364 5.987 7.40457 5.83335 7.79134 5.83335H13.6247C14.0114 5.83335 14.3824 5.67971 14.6559 5.40622C14.9294 5.13273 15.083 4.76179 15.083 4.37502C15.083 3.98825 14.9294 3.61731 14.6559 3.34382C14.3824 3.07033 14.0114 2.91669 13.6247 2.91669L7.79134 2.91669C6.63102 2.91669 5.51822 3.37762 4.69775 4.1981C3.87728 5.01857 3.41634 6.13137 3.41634 7.29169L3.41634 27.7084C3.41634 28.8687 3.87728 29.9815 4.69775 30.8019C5.51822 31.6224 6.63102 32.0834 7.79134 32.0834H13.6247C14.0114 32.0834 14.3824 31.9297 14.6559 31.6562C14.9294 31.3827 15.083 31.0118 15.083 30.625Z" fill="#1B1B1B"/>
<path d="M32.466 18.0542C32.3966 18.2332 32.2925 18.3968 32.1598 18.5355L26.3264 24.3688C26.1905 24.5048 26.029 24.6126 25.8514 24.6862C25.6737 24.7598 25.4833 24.7977 25.291 24.7977C25.0987 24.7977 24.9083 24.7598 24.7307 24.6862C24.553 24.6126 24.3916 24.5048 24.2556 24.3688C24.1196 24.2328 24.0118 24.0714 23.9382 23.8937C23.8646 23.7161 23.8267 23.5257 23.8267 23.3334C23.8267 23.1411 23.8646 22.9507 23.9382 22.773C24.0118 22.5953 24.1196 22.4339 24.2556 22.298L27.6098 18.9584H13.6243C13.2376 18.9584 12.8666 18.8047 12.5932 18.5312C12.3197 18.2577 12.166 17.8868 12.166 17.5C12.166 17.1133 12.3197 16.7423 12.5932 16.4688C12.8666 16.1953 13.2376 16.0417 13.6243 16.0417H27.6098L24.2556 12.7021C23.981 12.4275 23.8267 12.0551 23.8267 11.6667C23.8267 11.2783 23.981 10.9059 24.2556 10.6313C24.5302 10.3567 24.9027 10.2024 25.291 10.2024C25.6794 10.2024 26.0518 10.3567 26.3264 10.6313L32.1598 16.4646C32.2925 16.6033 32.3966 16.7669 32.466 16.9459C32.5432 17.1204 32.583 17.3092 32.583 17.5C32.583 17.6909 32.5432 17.8796 32.466 18.0542Z" fill="#1B1B1B"/>
</svg>
