<svg width="30" height="30" viewBox="0 0 30 30" fill="none" xmlns="http://www.w3.org/2000/svg">
<path d="M25.2003 5.7625C23.8732 4.43501 22.1137 3.62791 20.2419 3.48798C18.37 3.34805 16.5101 3.88458 15.0003 5C13.4099 3.81705 11.4303 3.28064 9.46024 3.4988C7.49016 3.71696 5.67589 4.67348 4.38281 6.17573C3.08973 7.67799 2.41387 9.6144 2.49135 11.595C2.56882 13.5756 3.39387 15.4533 4.80034 16.85L14.1128 26.1625C14.229 26.2797 14.3673 26.3727 14.5196 26.4361C14.6719 26.4996 14.8353 26.5322 15.0003 26.5322C15.1654 26.5322 15.3287 26.4996 15.4811 26.4361C15.6334 26.3727 15.7716 26.2797 15.8878 26.1625L25.2003 16.85C25.9287 16.1222 26.5064 15.2579 26.9006 14.3067C27.2948 13.3555 27.4977 12.3359 27.4977 11.3063C27.4977 10.2766 27.2948 9.25702 26.9006 8.3058C26.5064 7.35457 25.9287 6.49035 25.2003 5.7625V5.7625ZM23.4378 15.0875L15.0003 23.5125L6.56284 15.0875C5.81931 14.3409 5.31281 13.3913 5.10688 12.3579C4.90095 11.3245 5.00476 10.2534 5.40528 9.27875C5.80581 8.30413 6.48522 7.46949 7.35828 6.87953C8.23134 6.28957 9.25917 5.97055 10.3128 5.9625C11.7205 5.96595 13.0692 6.52792 14.0628 7.525C14.179 7.64216 14.3173 7.73516 14.4696 7.79862C14.6219 7.86208 14.7853 7.89475 14.9503 7.89475C15.1154 7.89475 15.2787 7.86208 15.4311 7.79862C15.5834 7.73516 15.7216 7.64216 15.8378 7.525C16.8607 6.63861 18.1822 6.17393 19.5348 6.22503C20.8873 6.27613 22.17 6.83919 23.1231 7.80024C24.0762 8.76129 24.6286 10.0486 24.6684 11.4015C24.7083 12.7544 24.2327 14.072 23.3378 15.0875H23.4378Z" fill="#1B1B1B"/>
</svg>
