<svg width="450" height="300" viewBox="0 0 450 300" fill="none" xmlns="http://www.w3.org/2000/svg">
<path d="M400.17 90.162L394.428 117.972L390.732 114.366L384.444 118.854L379.638 112.884L368.862 120.72L359.652 105.318L349.38 111.336L345.306 105.72L332.262 113.07L328.338 104.664L337.482 60.378L386.502 70.5L400.17 90.162Z" fill="#EBEBEB"/>
<path d="M386.502 70.5L400.17 90.162L383.166 86.652L386.502 70.5Z" fill="#DBDBDB"/>
<path d="M393.204 123.528L384.786 164.328L318.756 150.696L327.114 110.226L331.038 118.626L344.088 111.276L348.156 116.892L358.434 110.88L367.638 126.282L378.42 118.446L383.22 124.41L389.514 119.928L393.204 123.528Z" fill="#EBEBEB"/>
<path d="M298.697 118.746L231.407 122.91L226.061 36.534L276.029 33.438L294.371 48.828L298.697 118.746Z" fill="#EBEBEB"/>
<path d="M276.029 33.438L294.371 48.828L277.043 49.902L276.029 33.438Z" fill="#DBDBDB"/>
<path d="M257.399 91.56L257.135 89.61C256.457 85.572 257.561 81.054 261.071 76.332C264.239 72.132 265.955 69.132 265.763 65.724C265.547 61.884 262.997 59.46 258.251 59.652C255.539 59.7929 252.933 60.7555 250.781 62.412L248.711 57.774C251.111 55.824 255.311 54.384 259.301 54.174C267.959 53.694 272.171 58.818 272.501 64.536C272.789 69.654 270.137 73.5 266.765 77.994C263.669 82.092 262.655 85.47 263.093 89.292L263.279 91.248L257.399 91.56ZM256.331 102.186C256.175 99.402 257.945 97.338 260.579 97.194C263.213 97.05 265.133 98.898 265.289 101.688C265.433 104.322 263.819 106.446 261.035 106.602C258.377 106.752 256.457 104.82 256.307 102.186H256.331Z" fill="#DBDBDB"/>
<path d="M89.0864 76.866L82.3184 73.8L81.3764 75.87C81.2373 76.1658 81.0203 76.4182 80.7487 76.6C80.477 76.7818 80.1609 76.8862 79.8344 76.902C79.4625 76.9142 79.0917 76.9503 78.7244 77.01C78.402 77.0579 78.0726 77.0173 77.7715 76.8926C77.4703 76.7679 77.2087 76.5638 77.0144 76.302L75.6884 74.448L69.6464 78.78L70.9724 80.634C71.1569 80.9016 71.2654 81.2141 71.2865 81.5384C71.3077 81.8627 71.2406 82.1867 71.0924 82.476C70.9214 82.8059 70.7672 83.1444 70.6304 83.49C70.5116 83.7947 70.3119 84.0613 70.0529 84.2611C69.7939 84.4609 69.4854 84.5864 69.1604 84.624L66.8984 84.846L67.6244 92.244L69.8984 92.016C70.2246 91.9899 70.5516 92.0533 70.8444 92.1991C71.1373 92.345 71.3848 92.568 71.5604 92.844C71.6564 93 71.7584 93.15 71.8664 93.3C71.9744 93.45 72.0824 93.594 72.1964 93.738C72.4035 93.9899 72.5366 94.2943 72.5811 94.6174C72.6256 94.9404 72.5797 95.2695 72.4484 95.568L71.5004 97.656L78.2744 100.728L79.2164 98.646C79.3568 98.3504 79.5752 98.0987 79.8479 97.9179C80.1207 97.7372 80.4375 97.6341 80.7644 97.62C81.1322 97.6048 81.4988 97.5688 81.8624 97.512C82.1849 97.4641 82.5142 97.5047 82.8154 97.6294C83.1166 97.7541 83.3782 97.9582 83.5724 98.22L84.8984 100.074L90.9464 95.742L89.6204 93.888C89.4303 93.6228 89.3183 93.3097 89.2971 92.9841C89.2759 92.6586 89.3463 92.3336 89.5004 92.046C89.6676 91.7179 89.8178 91.3815 89.9504 91.038C90.0658 90.731 90.2645 90.4623 90.5242 90.262C90.7838 90.0616 91.0942 89.9377 91.4204 89.904L93.6944 89.676L92.9624 82.278L90.6884 82.5C90.3644 82.5284 90.0387 82.4667 89.7475 82.3217C89.4563 82.1766 89.2109 81.9538 89.0384 81.678C88.9364 81.522 88.8344 81.372 88.7264 81.222C88.6184 81.072 88.5104 80.922 88.3964 80.784C88.1908 80.529 88.0586 80.2226 88.0142 79.898C87.9698 79.5734 88.0148 79.2429 88.1444 78.942L89.0864 76.866ZM85.2464 83.712C85.9481 84.6911 86.3436 85.8563 86.383 87.0602C86.4223 88.2642 86.1038 89.4527 85.4676 90.4756C84.8315 91.4985 83.9062 92.3097 82.809 92.8067C81.7117 93.3037 80.4917 93.4642 79.3033 93.2678C78.1148 93.0714 77.0113 92.527 76.1323 91.7034C75.2533 90.8798 74.6383 89.814 74.365 88.6408C74.0917 87.4677 74.1725 86.2398 74.5971 85.1126C75.0217 83.9853 75.7711 83.0093 76.7504 82.308C78.0633 81.3678 79.6959 80.9875 81.2892 81.2508C82.8824 81.5141 84.3058 82.3994 85.2464 83.712Z" fill="#EBEBEB"/>
<path d="M395.027 175.026L390.515 177.63L391.313 179.01C391.432 179.208 391.492 179.436 391.484 179.667C391.477 179.898 391.403 180.122 391.271 180.312C391.133 180.528 391.001 180.75 390.881 180.984C390.783 181.191 390.627 181.365 390.432 181.487C390.238 181.608 390.012 181.671 389.783 181.668H388.199V186.882H389.795C390.024 186.879 390.25 186.942 390.444 187.063C390.639 187.185 390.795 187.359 390.893 187.566C391.013 187.8 391.145 188.022 391.283 188.238C391.415 188.428 391.489 188.652 391.496 188.883C391.504 189.114 391.444 189.342 391.325 189.54L390.527 190.92L395.039 193.524L395.843 192.138C395.96 191.941 396.129 191.781 396.331 191.675C396.533 191.569 396.761 191.522 396.989 191.538H397.757C397.985 191.522 398.213 191.57 398.415 191.676C398.617 191.782 398.786 191.942 398.903 192.138L399.707 193.53L404.213 190.926L403.415 189.54C403.302 189.341 403.246 189.114 403.255 188.885C403.263 188.656 403.335 188.434 403.463 188.244C403.601 188.028 403.733 187.8 403.853 187.572C403.952 187.365 404.108 187.191 404.302 187.069C404.497 186.948 404.722 186.885 404.951 186.888H406.547V181.674H404.939C404.71 181.677 404.485 181.614 404.29 181.493C404.096 181.371 403.94 181.197 403.841 180.99C403.721 180.762 403.589 180.534 403.451 180.318C403.323 180.128 403.251 179.906 403.243 179.677C403.234 179.448 403.29 179.221 403.403 179.022L404.201 177.636L399.695 175.032L398.891 176.4C398.775 176.597 398.606 176.757 398.403 176.863C398.201 176.969 397.973 177.016 397.745 177H397.361H396.977C396.749 177.015 396.52 176.968 396.317 176.862C396.114 176.756 395.944 176.596 395.825 176.4L395.027 175.026ZM397.361 180.006C398.207 180.005 399.033 180.255 399.737 180.723C400.44 181.192 400.989 181.86 401.313 182.64C401.637 183.421 401.722 184.281 401.557 185.11C401.393 185.939 400.986 186.701 400.388 187.299C399.79 187.897 399.028 188.304 398.199 188.468C397.37 188.633 396.51 188.548 395.73 188.224C394.949 187.9 394.282 187.351 393.813 186.648C393.344 185.944 393.094 185.117 393.095 184.272C393.094 183.711 393.204 183.156 393.418 182.638C393.632 182.119 393.946 181.648 394.343 181.252C394.739 180.855 395.209 180.54 395.727 180.325C396.245 180.111 396.801 180 397.361 180V180.006Z" fill="#EBEBEB"/>
<path d="M102.78 54.696L98.6458 57.864L99.5998 59.13C99.7421 59.3104 99.8297 59.5278 99.852 59.7565C99.8743 59.9852 99.8306 60.2155 99.7259 60.42C99.611 60.6535 99.5108 60.894 99.4259 61.14C99.3519 61.3567 99.2189 61.5484 99.0419 61.6937C98.8649 61.8389 98.6508 61.9318 98.4238 61.962L96.8398 62.166L97.5118 67.332L99.0958 67.128C99.3264 67.0958 99.5614 67.1295 99.7737 67.225C99.986 67.3205 100.167 67.4741 100.296 67.668C100.44 67.8767 100.597 68.077 100.764 68.268C100.918 68.438 101.021 68.6488 101.059 68.8753C101.098 69.1019 101.07 69.3346 100.98 69.546L100.38 71.022L105.18 73.02L105.78 71.544C105.869 71.3322 106.016 71.1498 106.204 71.0172C106.391 70.8846 106.612 70.8073 106.842 70.794L107.226 70.752L107.604 70.692C107.826 70.6501 108.055 70.67 108.267 70.7493C108.478 70.8286 108.664 70.9644 108.804 71.142L109.782 72.42L113.916 69.252L112.95 67.986C112.81 67.8031 112.725 67.5849 112.702 67.3559C112.68 67.127 112.722 66.8963 112.824 66.69C112.938 66.458 113.038 66.2196 113.124 65.976C113.198 65.7593 113.331 65.5675 113.508 65.4223C113.685 65.2771 113.899 65.1841 114.126 65.154L115.71 64.95L115.038 59.784L113.454 59.988C113.224 60.0207 112.989 59.988 112.777 59.8936C112.565 59.7991 112.383 59.6468 112.254 59.454C112.104 59.238 111.948 59.034 111.78 58.854C111.64 58.6803 111.55 58.4723 111.518 58.2517C111.486 58.031 111.515 57.8059 111.6 57.6L112.2 56.124L107.4 54.126L106.8 55.602C106.709 55.8129 106.562 55.9946 106.375 56.127C106.187 56.2594 105.967 56.3373 105.738 56.352L105.354 56.388L105 56.4C104.778 56.4418 104.549 56.422 104.337 56.3427C104.125 56.2633 103.94 56.1275 103.8 55.95L102.78 54.696ZM105.738 59.334C106.574 59.2265 107.423 59.369 108.177 59.7435C108.932 60.1179 109.559 60.7076 109.98 61.438C110.4 62.1684 110.594 63.007 110.538 63.8478C110.483 64.6886 110.179 65.494 109.666 66.1625C109.153 66.831 108.453 67.3325 107.656 67.6039C106.858 67.8753 105.998 67.9043 105.183 67.6873C104.369 67.4703 103.637 67.017 103.08 66.3847C102.523 65.7523 102.166 64.9691 102.054 64.134C101.979 63.5767 102.015 63.01 102.16 62.4667C102.304 61.9233 102.555 61.4139 102.898 60.9678C103.24 60.5217 103.667 60.1477 104.155 59.8673C104.642 59.5869 105.18 59.4057 105.738 59.334Z" fill="#EBEBEB"/>
<path d="M71.8917 190.068C72.1171 184.268 72.037 178.46 71.6517 172.668C70.7932 160.708 68.9693 148.838 66.1977 137.172C64.6737 130.608 62.8017 124.152 60.8457 117.702C60.7857 117.504 60.4737 117.558 60.5277 117.762C66.5697 140.502 71.5257 163.962 71.1837 187.602C71.0877 194.202 70.3197 200.712 69.6957 207.288C69.6957 207.462 69.9657 207.534 70.0077 207.354C71.2497 201.708 71.6577 195.816 71.8917 190.068Z" fill="#467A1F"/>
<path d="M60.5273 117.744C60.5273 117.744 51.3833 140.964 53.4293 146.4C55.4753 151.836 59.6993 153 59.6993 153C59.6993 153 54.1013 160.992 58.0133 168.486C61.9253 175.98 70.6133 175.626 71.2133 184.122C71.1953 184.164 71.6753 148.638 60.5273 117.744Z" fill="#ABE87D"/>
<path d="M70.2 169.494C70.2148 169.455 70.2148 169.413 70.2 169.374C68.9999 153.521 66.0253 137.853 61.332 122.664C61.332 122.622 61.242 122.634 61.254 122.664C63.066 129.464 64.666 136.292 66.054 143.148C64.8247 141.983 63.3228 141.146 61.686 140.712C61.686 140.712 61.638 140.748 61.686 140.76C63.4056 141.39 64.9517 142.418 66.198 143.76C66.462 145.11 66.726 146.454 66.972 147.804C64.926 145.518 62.094 144.384 59.256 143.304C59.2496 143.307 59.2441 143.311 59.2403 143.317C59.2364 143.323 59.2344 143.33 59.2344 143.337C59.2344 143.344 59.2364 143.351 59.2403 143.357C59.2441 143.363 59.2496 143.367 59.256 143.37C62.214 144.57 65.154 146.118 67.158 148.668C67.854 152.52 68.466 156.386 68.994 160.266C67.5167 158.718 65.6221 157.632 63.54 157.14C63.474 157.14 63.438 157.218 63.504 157.236C65.6428 157.866 67.5524 159.104 69 160.8H69.036C69.216 162.16 69.388 163.526 69.552 164.898C68.4092 163.931 67.1188 163.153 65.73 162.594C65.694 162.594 65.67 162.636 65.73 162.648C67.1473 163.262 68.4452 164.121 69.564 165.186C69.564 165.186 69.594 165.186 69.612 165.186C69.762 166.488 69.912 167.79 70.044 169.092C67.9837 166.601 65.3098 164.69 62.286 163.548C62.2733 163.548 62.2611 163.553 62.252 163.562C62.243 163.571 62.238 163.583 62.238 163.596C62.238 163.609 62.243 163.621 62.252 163.63C62.2611 163.639 62.2733 163.644 62.286 163.644C65.2718 164.96 67.8946 166.98 69.93 169.53C69.9524 169.558 69.9826 169.579 70.0168 169.589C70.051 169.6 70.0877 169.6 70.122 169.59C70.32 171.588 70.5 173.586 70.644 175.59C70.644 175.62 70.692 175.62 70.692 175.59C70.536 173.578 70.372 171.546 70.2 169.494Z" fill="#467A1F"/>
<path d="M62.8484 138.426C61.1924 137.395 59.3006 136.805 57.3524 136.71C57.3429 136.71 57.3337 136.714 57.327 136.721C57.3202 136.727 57.3164 136.736 57.3164 136.746C57.3164 136.756 57.3202 136.765 57.327 136.771C57.3337 136.778 57.3429 136.782 57.3524 136.782C59.236 137.139 61.0639 137.744 62.7884 138.582C62.8604 138.6 62.9144 138.474 62.8484 138.426Z" fill="white"/>
<path d="M63.9592 163.008C62.6865 162.277 61.285 161.799 59.8313 161.598C59.7833 161.598 59.7773 161.664 59.8313 161.676C61.2508 161.961 62.624 162.441 63.9112 163.104C63.9652 163.134 64.0132 163.038 63.9592 163.008Z" fill="white"/>
<path d="M95.9383 146.802C92.07 149.476 88.5173 152.58 85.3483 156.054C82.0801 159.733 79.5592 164.012 77.9263 168.654C74.451 178.325 72.5823 188.499 72.3943 198.774C72.2777 204.464 72.8234 210.148 74.0203 215.712C74.03 215.752 74.0549 215.788 74.0898 215.81C74.1247 215.833 74.167 215.841 74.2079 215.833C74.2487 215.826 74.2851 215.803 74.3093 215.769C74.3336 215.735 74.344 215.693 74.3383 215.652C72.8489 205.834 72.9056 195.843 74.5063 186.042C76.0783 176.442 78.5443 165.99 84.6523 158.184C87.9763 153.93 92.1223 150.588 96.2203 147.132C96.4363 146.94 96.1603 146.646 95.9383 146.802Z" fill="#467A1F"/>
<path d="M73.7383 191.85C75.9402 188.289 78.5278 184.981 81.4543 181.986C86.0323 177.408 89.8843 174.156 90.4843 171.132C91.0843 168.108 85.9003 165.876 85.9003 165.876C85.9003 165.876 92.2303 167.016 93.9643 164.358C95.6983 161.7 96.5323 146.304 96.5323 146.304C96.5323 146.304 85.0123 154.53 79.6423 166.062C74.2723 177.594 73.7383 191.85 73.7383 191.85Z" fill="#ABE87D"/>
<path d="M92.3983 160.746C91.6397 160.633 90.8708 160.607 90.1063 160.668C90.0163 160.668 90.0223 160.824 90.1063 160.83C90.8623 160.83 91.6243 160.794 92.3803 160.83C92.3889 160.828 92.3968 160.823 92.403 160.817C92.4091 160.81 92.4134 160.802 92.4153 160.794C92.4171 160.785 92.4165 160.776 92.4135 160.767C92.4105 160.759 92.4053 160.752 92.3983 160.746Z" fill="white"/>
<path d="M84.1243 175.68C82.9078 175.705 81.7053 175.944 80.5723 176.388C80.5723 176.388 80.5723 176.448 80.5723 176.442C81.7723 176.16 82.9303 176.046 84.1183 175.842C84.1338 175.835 84.1471 175.824 84.1566 175.81C84.1661 175.796 84.1715 175.78 84.1721 175.763C84.1727 175.746 84.1686 175.729 84.1601 175.715C84.1517 175.7 84.1392 175.688 84.1243 175.68Z" fill="white"/>
<path d="M81.6408 170.52C81.1358 170.516 80.6315 170.56 80.1348 170.652C80.1256 170.655 80.1177 170.662 80.1121 170.67C80.1065 170.678 80.1035 170.687 80.1035 170.697C80.1035 170.707 80.1065 170.716 80.1121 170.724C80.1177 170.732 80.1256 170.739 80.1348 170.742C80.6377 170.771 81.1423 170.749 81.6408 170.676C81.6615 170.676 81.6813 170.668 81.696 170.653C81.7106 170.639 81.7188 170.619 81.7188 170.598C81.7188 170.577 81.7106 170.557 81.696 170.543C81.6813 170.528 81.6615 170.52 81.6408 170.52Z" fill="white"/>
<path d="M39.9642 163.134C43.7137 164.405 47.3067 166.098 50.6742 168.18C54.1682 170.4 57.1982 173.277 59.5962 176.652C64.6416 183.675 68.5045 191.476 71.0322 199.746C72.4419 204.325 73.3118 209.053 73.6242 213.834C73.6176 213.865 73.6006 213.893 73.5761 213.913C73.5515 213.932 73.5208 213.943 73.4892 213.943C73.4575 213.943 73.4269 213.932 73.4023 213.913C73.3777 213.893 73.3607 213.865 73.3542 213.834C72.2951 205.545 69.9425 197.472 66.3822 189.912C62.8842 182.502 58.4742 174.618 51.7302 169.71C48.0582 167.04 43.9302 165.288 39.8142 163.44C39.5982 163.368 39.7482 163.062 39.9642 163.134Z" fill="#467A1F"/>
<path d="M68.3451 194.46C65.7384 192.088 62.8793 190.01 59.8191 188.262C55.0551 185.616 51.1851 183.876 50.0031 181.566C48.8211 179.256 52.4991 176.256 52.4991 176.256C52.4991 176.256 47.6391 178.656 45.6231 176.886C43.6071 175.116 39.3711 162.876 39.3711 162.876C39.3711 162.876 50.5971 166.866 57.5991 174.96C64.6011 183.054 68.3451 194.46 68.3451 194.46Z" fill="#ABE87D"/>
<path d="M59.0277 183.192C57.9239 183.115 56.8157 183.252 55.7637 183.594C55.7637 183.594 55.7637 183.648 55.7637 183.642C56.837 183.458 57.9214 183.346 59.0097 183.306C59.0877 183.306 59.1057 183.198 59.0277 183.192Z" fill="white"/>
<path d="M49.2354 170.352C48.7319 170.311 48.2252 170.339 47.7294 170.436C47.6754 170.436 47.6934 170.532 47.7294 170.526C48.2274 170.472 48.7134 170.49 49.2054 170.478C49.2207 170.479 49.2357 170.474 49.2479 170.465C49.2601 170.455 49.2687 170.442 49.2722 170.427C49.2758 170.412 49.274 170.397 49.2673 170.383C49.2606 170.369 49.2493 170.358 49.2354 170.352Z" fill="white"/>
<path d="M82.8224 229.308H57.4844L61.0964 202.842L62.0204 196.056H78.2864L79.2104 202.842L82.8224 229.308Z" fill="#660033"/>
<path d="M79.2117 202.842H61.0977L62.0217 196.056H78.2877L79.2117 202.842Z" fill="#FAE89E"/>
<path d="M80.6094 193.704H59.6934V199.452H80.6094V193.704Z" fill="#660033"/>
<path d="M41.377 229.308L86.983 229.164L132.589 229.11L223.801 229.008L315.013 229.11L360.619 229.164L406.225 229.308L360.619 229.458L315.013 229.506L223.801 229.608L132.589 229.506L86.983 229.452L41.377 229.308Z" fill="#263238"/>
<path d="M224.999 274.026C320.016 274.026 397.043 265.586 397.043 255.174C397.043 244.762 320.016 236.322 224.999 236.322C129.982 236.322 52.9551 244.762 52.9551 255.174C52.9551 265.586 129.982 274.026 224.999 274.026Z" fill="#D0A8F0"/>
<path d="M184.95 252.054C183.552 252.528 143.466 252.654 141.93 251.706C141.33 251.346 140.988 245.508 140.73 238.44C140.676 236.916 140.634 235.338 140.598 233.742L137.4 212.358L164.202 212.184L166.728 233.574L166.626 238.278C166.626 238.278 181.998 245.088 183.57 246.324C185.142 247.56 186.348 251.58 184.95 252.054Z" fill="#EB9481"/>
<path d="M184.951 252.054C183.553 252.528 143.467 252.654 141.931 251.706C141.223 251.262 140.839 242.736 140.623 233.742L166.699 233.574L166.597 238.278C166.597 238.278 181.969 245.088 183.541 246.324C185.113 247.56 186.349 251.58 184.951 252.054Z" fill="white"/>
<path d="M184.95 252.054C183.552 252.528 143.466 252.654 141.93 251.706C141.33 251.346 140.988 245.508 140.73 238.44L166.572 238.278C166.572 238.278 181.944 245.088 183.516 246.324C185.088 247.56 186.348 251.58 184.95 252.054Z" fill="#A6A6A6"/>
<path d="M184.368 250.452C177.648 250.308 150.528 250.374 143.874 250.746C143.82 250.746 143.82 250.782 143.874 250.788C150.534 251.07 177.654 250.788 184.368 250.56C184.512 250.554 184.512 250.452 184.368 250.452Z" fill="#263238"/>
<path d="M180.955 244.89C180.208 244.873 179.465 245.012 178.774 245.297C178.083 245.582 177.459 246.007 176.941 246.546C175.997 247.508 175.464 248.798 175.453 250.146C175.453 250.188 175.525 250.188 175.531 250.146C175.754 248.819 176.401 247.599 177.374 246.669C178.347 245.739 179.595 245.149 180.931 244.986C180.944 244.989 180.957 244.987 180.969 244.98C180.98 244.974 180.988 244.963 180.991 244.95C180.994 244.937 180.992 244.924 180.986 244.913C180.979 244.901 180.968 244.893 180.955 244.89Z" fill="#263238"/>
<path d="M169.201 238.938C166.513 238.908 163.399 239.868 161.731 242.076C161.671 242.16 161.791 242.25 161.869 242.208C164.218 240.968 166.692 239.983 169.249 239.268C169.289 239.257 169.323 239.232 169.345 239.198C169.368 239.164 169.377 239.122 169.371 239.082C169.365 239.041 169.345 239.004 169.313 238.978C169.282 238.951 169.242 238.937 169.201 238.938Z" fill="#263238"/>
<path d="M171.288 239.736C168.594 239.736 165.48 240.672 163.818 242.874C163.752 242.964 163.872 243.054 163.956 243.012C166.301 241.768 168.773 240.78 171.33 240.066C171.369 240.055 171.403 240.031 171.425 239.997C171.448 239.964 171.457 239.923 171.452 239.883C171.447 239.843 171.428 239.806 171.397 239.779C171.367 239.752 171.328 239.737 171.288 239.736Z" fill="#263238"/>
<path d="M173.365 240.54C170.677 240.54 167.563 241.47 165.895 243.678C165.835 243.762 165.955 243.852 166.033 243.81C168.382 242.57 170.856 241.585 173.413 240.87C173.453 240.859 173.487 240.834 173.509 240.8C173.532 240.766 173.541 240.724 173.535 240.684C173.529 240.643 173.509 240.606 173.477 240.58C173.446 240.553 173.406 240.539 173.365 240.54Z" fill="#263238"/>
<path d="M175.446 241.344C172.752 241.314 169.638 242.274 167.976 244.482C167.91 244.566 168.036 244.656 168.114 244.614C170.462 243.373 172.936 242.388 175.494 241.674C175.533 241.663 175.567 241.638 175.59 241.604C175.612 241.57 175.621 241.528 175.615 241.488C175.61 241.447 175.589 241.41 175.558 241.384C175.526 241.357 175.487 241.343 175.446 241.344Z" fill="#263238"/>
<path d="M145.566 244.356C142.566 244.356 142.566 249.066 145.566 249.048C148.566 249.03 148.59 244.338 145.566 244.356Z" fill="#263238"/>
<path d="M172.085 231.75C170.723 230.622 169.007 231.75 168.173 232.908C166.785 234.955 165.958 237.33 165.773 239.796C165.773 239.85 165.815 239.874 165.857 239.874C165.868 239.925 165.891 239.972 165.924 240.012C165.956 240.053 165.998 240.084 166.046 240.105C166.094 240.125 166.146 240.134 166.197 240.131C166.249 240.127 166.299 240.111 166.343 240.084C168.251 238.758 170.459 237.57 171.905 235.692C172.727 234.6 173.399 232.8 172.085 231.75ZM168.809 237.474C167.885 238.152 166.931 238.782 166.031 239.496C166.511 238.152 166.925 236.796 167.537 235.5C167.82 234.879 168.145 234.277 168.509 233.7C169.109 232.806 171.725 230.55 172.001 233.472C172.157 235.074 169.907 236.67 168.809 237.474Z" fill="#263238"/>
<path d="M159.078 240.816C161.418 241.164 163.836 240.492 166.134 240.126C166.184 240.113 166.23 240.088 166.269 240.054C166.307 240.02 166.338 239.978 166.357 239.93C166.376 239.882 166.384 239.83 166.379 239.779C166.375 239.728 166.359 239.678 166.332 239.634C166.341 239.627 166.348 239.619 166.353 239.609C166.357 239.599 166.36 239.588 166.36 239.577C166.36 239.566 166.357 239.555 166.353 239.545C166.348 239.535 166.341 239.527 166.332 239.52C164.485 237.873 162.238 236.741 159.816 236.238C158.4 235.968 156.396 236.358 156.216 238.116C156 239.772 157.71 240.6 159.078 240.816ZM157.446 239.292C155.646 236.988 159.084 236.79 160.116 237.03C160.785 237.198 161.443 237.41 162.084 237.666C163.396 238.21 164.68 238.821 165.93 239.496C164.79 239.61 163.668 239.814 162.534 239.97C161.178 240.15 158.454 240.558 157.446 239.292Z" fill="#263238"/>
<path d="M97.9922 113.52C97.9922 113.52 129.114 166.464 129.948 170.184C131.226 175.896 138 232.302 138 232.302L170.4 231.702C170.4 231.702 164.82 181.968 159.534 165.582C155.73 153.78 128.262 114.636 128.262 114.636L97.9922 113.52Z" fill="#37474F"/>
<path d="M167.453 226.758C162.803 226.722 146.321 226.536 140.129 227.112C140.081 227.112 140.087 227.196 140.129 227.202C142.259 227.508 162.797 227.034 167.447 226.884C167.457 226.888 167.468 226.889 167.478 226.887C167.488 226.886 167.498 226.883 167.507 226.877C167.515 226.871 167.522 226.863 167.527 226.854C167.532 226.845 167.535 226.835 167.536 226.825C167.536 226.815 167.534 226.804 167.53 226.795C167.526 226.786 167.52 226.777 167.512 226.771C167.504 226.764 167.494 226.76 167.484 226.757C167.474 226.755 167.463 226.755 167.453 226.758Z" fill="#263238"/>
<path d="M103.303 118.38C105.343 121.578 107.503 124.71 109.579 127.884C111.655 131.058 113.743 134.232 115.801 137.4C119.905 143.8 123.905 150.242 127.801 156.726C129.702 159.732 131.329 162.902 132.661 166.2C133.877 169.498 134.791 172.9 135.391 176.364C136.027 179.838 136.447 183.348 136.837 186.858C137.237 190.59 137.655 194.324 138.091 198.06C138.943 205.704 139.797 213.348 140.653 220.992C140.755 221.928 140.857 222.864 140.953 223.806C140.953 223.944 140.719 223.968 140.701 223.806C139.747 216.216 138.955 208.596 138.091 201.006C137.659 197.218 137.229 193.432 136.801 189.648C136.399 186.126 136.015 182.598 135.469 179.1C134.968 175.647 134.206 172.237 133.189 168.9C132.069 165.444 130.567 162.124 128.713 159C124.963 152.526 120.991 146.166 117.019 139.8C113.047 133.434 108.967 127.014 104.779 120.726C104.263 119.952 103.741 119.178 103.201 118.416C103.159 118.374 103.267 118.32 103.303 118.38Z" fill="#263238"/>
<path d="M108.192 255.174C106.716 255.084 68.5922 239.64 67.5362 238.176C67.4892 238.09 67.4684 237.992 67.4762 237.894C67.4762 236.58 70.1222 231.996 72.3302 225.972C72.4682 225.588 73.4522 223.8 74.8142 221.394C78.6002 214.8 85.2002 203.442 85.2002 203.442L110.118 213.342L98.1902 231.192L96.3362 235.512C96.3362 235.512 108.03 247.602 109.014 249.312C109.998 251.022 109.662 255.258 108.192 255.174Z" fill="#EB9481"/>
<path d="M108.192 255.174C106.716 255.084 68.5922 239.64 67.5362 238.176C67.4892 238.09 67.4684 237.992 67.4762 237.894C67.4762 236.58 70.1222 231.996 72.3302 225.972C72.4682 225.588 73.4522 223.8 74.8142 221.394L98.2142 231.192L96.3602 235.512C96.3602 235.512 108.054 247.602 109.038 249.312C110.022 251.022 109.662 255.258 108.192 255.174Z" fill="white"/>
<path d="M108.192 255.174C106.716 255.084 68.592 239.64 67.536 238.176C67.128 237.618 68.832 232.416 72.336 225.972L96.336 235.518C96.336 235.518 108.03 247.596 109.02 249.318C110.01 251.04 109.662 255.258 108.192 255.174Z" fill="#A6A6A6"/>
<path d="M108.252 253.47C102.078 250.818 76.9136 240.702 70.6076 238.554C70.5536 238.554 70.5416 238.554 70.6076 238.59C76.6736 241.35 101.916 251.262 108.228 253.59C108.348 253.62 108.384 253.524 108.252 253.47Z" fill="#263238"/>
<path d="M107.172 247.032C106.487 246.731 105.747 246.576 105 246.576C104.252 246.576 103.512 246.731 102.828 247.032C101.597 247.571 100.621 248.564 100.104 249.804C100.104 249.84 100.158 249.87 100.176 249.834C100.883 248.684 101.944 247.793 103.2 247.297C104.456 246.8 105.839 246.724 107.142 247.08C107.152 247.077 107.16 247.071 107.166 247.062C107.171 247.053 107.173 247.042 107.172 247.032Z" fill="#263238"/>
<path d="M98.5145 237.108C96.0365 236.07 92.7845 235.794 90.4145 237.216C90.3245 237.27 90.4145 237.396 90.4925 237.39C93.1345 237.122 95.7975 237.136 98.4365 237.432C98.4771 237.436 98.518 237.426 98.5514 237.402C98.5848 237.379 98.6085 237.344 98.618 237.304C98.6276 237.265 98.6224 237.223 98.6033 237.187C98.5843 237.15 98.5527 237.123 98.5145 237.108Z" fill="#263238"/>
<path d="M100.14 238.632C97.6615 237.594 94.4095 237.318 92.0395 238.74C91.9495 238.794 92.0395 238.92 92.1175 238.914C94.7594 238.643 97.4227 238.657 100.062 238.956C100.102 238.96 100.143 238.95 100.176 238.926C100.21 238.903 100.233 238.868 100.243 238.828C100.253 238.789 100.247 238.747 100.228 238.711C100.209 238.675 100.178 238.647 100.14 238.632Z" fill="#263238"/>
<path d="M101.773 240.156C99.2892 239.118 96.0372 238.842 93.6732 240.264C93.5772 240.318 93.6732 240.444 93.7452 240.438C96.387 240.167 99.0504 240.181 101.689 240.48C101.731 240.487 101.773 240.478 101.808 240.455C101.844 240.432 101.869 240.397 101.88 240.356C101.89 240.316 101.885 240.273 101.865 240.236C101.846 240.198 101.813 240.17 101.773 240.156Z" fill="#263238"/>
<path d="M103.398 241.68C100.914 240.642 97.6682 240.366 95.2982 241.782C95.2022 241.842 95.2982 241.968 95.3702 241.962C98.012 241.691 100.675 241.705 103.314 242.004C103.356 242.011 103.398 242.002 103.433 241.979C103.469 241.956 103.494 241.921 103.505 241.88C103.515 241.84 103.51 241.797 103.49 241.76C103.471 241.722 103.438 241.694 103.398 241.68Z" fill="#263238"/>
<path d="M74.5677 233.262C71.7657 232.146 70.0257 236.508 72.8397 237.624C75.6537 238.74 77.3997 234.378 74.5677 233.262Z" fill="#263238"/>
<path d="M103.885 231.528C103.039 229.974 101.041 230.358 99.8231 231.132C97.7713 232.507 96.1162 234.395 95.0231 236.61C95.0183 236.62 95.0157 236.63 95.0156 236.641C95.0155 236.652 95.0179 236.663 95.0225 236.673C95.0271 236.682 95.0339 236.691 95.0423 236.698C95.0507 236.705 95.0605 236.71 95.0711 236.712C95.0711 236.91 95.2031 237.144 95.4371 237.096C97.7111 236.574 100.201 236.304 102.241 235.104C103.411 234.408 104.683 232.998 103.885 231.528ZM98.6951 235.602C97.5851 235.884 96.4691 236.112 95.3711 236.436C96.2793 235.342 97.2425 234.294 98.2571 233.298C98.7565 232.822 99.2878 232.381 99.8471 231.978C100.717 231.378 104.005 230.268 103.165 233.082C102.703 234.636 100.021 235.266 98.6951 235.602Z" fill="#263238"/>
<path d="M88.4216 235.05C90.4616 236.25 92.9516 236.532 95.2196 237.06C95.4536 237.114 95.6096 236.88 95.5916 236.676C95.6029 236.675 95.6136 236.671 95.6229 236.664C95.6321 236.658 95.6395 236.649 95.6443 236.639C95.6491 236.628 95.6512 236.617 95.6504 236.606C95.6496 236.594 95.6459 236.583 95.6396 236.574C94.5483 234.355 92.893 232.462 90.8396 231.084C89.6396 230.304 87.6296 229.914 86.7776 231.462C85.9256 233.01 87.2276 234.348 88.4216 235.05ZM87.4856 233.022C86.6516 230.208 89.9336 231.324 90.8036 231.93C91.3623 232.334 91.8916 232.777 92.3876 233.256C93.4002 234.255 94.3615 235.304 95.2676 236.4C94.1696 236.076 93.0536 235.842 91.9436 235.56C90.5996 235.2 87.9416 234.6 87.4856 233.022Z" fill="#263238"/>
<path d="M100.128 230.196L72.2344 218.934C72.2344 218.934 106.818 168.084 107.07 164.298C107.298 160.95 92.1064 131.778 91.5124 123.276C90.8644 114.096 95.2804 106.998 100.14 102.588L128.91 114.822C128.91 114.822 125.874 119.676 121.11 122.382C121.11 122.382 135.864 156.102 135.024 166.47C134.184 176.838 100.128 230.196 100.128 230.196Z" fill="#37474F"/>
<path d="M101.365 224.892C97.3325 223.158 98.5145 223.596 94.4585 221.892C92.4785 221.064 79.4585 215.646 77.4545 215.196C77.4125 215.196 77.3825 215.256 77.4245 215.28C79.1585 216.342 92.2865 221.532 94.2845 222.324C98.3705 223.932 97.2125 223.428 101.317 224.988C101.323 224.996 101.331 225.003 101.34 225.007C101.349 225.011 101.36 225.013 101.37 225.012C101.38 225.011 101.39 225.007 101.398 225.002C101.407 224.996 101.414 224.988 101.418 224.979C101.423 224.97 101.425 224.96 101.424 224.949C101.424 224.939 101.421 224.929 101.416 224.921C101.41 224.912 101.403 224.905 101.394 224.9C101.385 224.895 101.375 224.892 101.365 224.892Z" fill="#263238"/>
<path d="M125.826 121.764C122.831 122.462 119.9 123.414 117.066 124.608C117.055 124.612 117.044 124.618 117.035 124.626C117.026 124.634 117.018 124.644 117.013 124.655C117.008 124.666 117.005 124.677 117.004 124.689C117.003 124.702 117.005 124.714 117.009 124.725C117.013 124.736 117.019 124.747 117.027 124.756C117.035 124.765 117.045 124.772 117.056 124.778C117.066 124.783 117.078 124.786 117.09 124.787C117.102 124.788 117.115 124.786 117.126 124.782C120.066 123.924 123.054 123.12 125.946 122.106C126.168 122.028 126.054 121.716 125.826 121.764Z" fill="#263238"/>
<path d="M122.401 120.6C122.122 121.097 121.875 121.612 121.663 122.142C121.456 122.544 121.328 122.982 121.285 123.432C121.285 123.522 121.405 123.54 121.459 123.486C121.76 123.126 122.003 122.721 122.179 122.286C122.425 121.812 122.677 121.344 122.911 120.858C123.073 120.504 122.587 120.276 122.401 120.6Z" fill="#263238"/>
<path d="M122.761 117.876C122.941 117.432 123.115 116.994 123.301 116.55C123.487 116.106 123.721 115.65 123.901 115.182C123.901 115.11 124.045 115.182 124.015 115.236C123.835 115.68 123.721 116.148 123.583 116.604C123.445 117.06 123.289 117.516 123.139 117.972C122.857 118.818 122.539 119.658 122.149 120.48C122.621 120.504 123.092 120.422 123.529 120.24C123.975 119.955 124.317 119.534 124.507 119.04C124.759 118.548 124.993 118.044 125.251 117.552C125.568 117.02 125.836 116.46 126.049 115.878C126.049 115.806 126.193 115.878 126.163 115.932C125.772 117.162 125.259 118.35 124.633 119.478C124.363 119.916 124.153 120.378 123.661 120.546C123.128 120.695 122.571 120.734 122.023 120.66C121.951 120.66 121.867 120.66 121.891 120.552C122.137 119.646 122.427 118.753 122.761 117.876Z" fill="#263238"/>
<path d="M121.537 123.48C122.563 125.646 123.463 127.806 124.417 129.966C125.371 132.126 126.217 134.214 127.075 136.362C128.791 140.694 130.327 145.11 131.677 149.562C132.343 151.77 132.961 153.996 133.513 156.24C134.121 158.477 134.566 160.755 134.845 163.056C135.086 165.353 134.882 167.676 134.245 169.896C133.583 172.091 132.734 174.225 131.707 176.274C131.077 177.57 130.867 177.396 131.167 176.742C132.025 174.882 134.275 169.248 134.113 164.514C133.982 162.248 133.632 159.999 133.069 157.8C132.545 155.532 131.955 153.282 131.299 151.05C130.021 146.646 128.503 142.332 126.943 138.024C126.067 135.624 125.143 133.224 124.243 130.824C123.343 128.424 122.443 126.216 121.435 123.564C121.405 123.456 121.507 123.414 121.537 123.48Z" fill="#263238"/>
<path d="M100.362 116.322C100.86 116.136 101.562 116.442 102.066 116.526C102.719 116.637 103.379 116.703 104.04 116.724C104.695 116.747 105.351 116.725 106.002 116.658C106.659 116.641 107.302 116.471 107.88 116.16C108.829 115.469 109.643 114.608 110.28 113.622C111.04 112.614 111.667 111.513 112.146 110.346C112.146 110.274 112.272 110.346 112.248 110.394C112.038 111.06 111.882 111.732 111.648 112.386C111.39 113 111.081 113.592 110.724 114.156C110.147 115.29 109.292 116.26 108.24 116.976C107.082 117.636 105.594 117.576 104.304 117.522C103.556 117.478 102.812 117.38 102.078 117.228C101.55 117.114 100.662 117.03 100.326 116.568C100.311 116.55 100.299 116.529 100.292 116.507C100.285 116.484 100.283 116.46 100.287 116.437C100.29 116.413 100.299 116.391 100.312 116.371C100.325 116.351 100.342 116.334 100.362 116.322Z" fill="#263238"/>
<path d="M80.1962 213.6C84.7802 206.656 89.2802 199.656 93.6962 192.6C98.1122 185.544 102.468 178.434 106.764 171.27C107.79 169.56 108.972 167.856 109.632 165.96C110.352 163.902 109.944 161.904 109.296 159.888C108.073 156.21 106.642 152.605 105.012 149.088C103.404 145.542 101.67 142.056 99.9662 138.558C98.2622 135.06 96.4802 131.604 95.1662 127.956C93.9662 124.47 93.4802 120.858 94.4162 117.246C95.3522 113.634 97.3682 110.442 99.4742 107.436C100.026 106.644 100.596 105.858 101.154 105.036C101.196 104.976 101.286 105.036 101.244 105.108C98.9222 108.24 96.6602 111.558 95.2982 115.236C94.602 117.049 94.2127 118.965 94.1462 120.906C94.1348 122.876 94.4407 124.835 95.0522 126.708C96.1802 130.356 97.9622 133.806 99.6242 137.238C101.286 140.67 103.062 144.222 104.7 147.756C106.39 151.313 107.892 154.956 109.2 158.67C109.758 160.32 110.4 162.048 110.352 163.818C110.31 165.756 109.386 167.502 108.426 169.134C104.226 176.244 99.9242 183.27 95.5442 190.254C91.1642 197.238 86.6582 204.222 82.0982 211.134L80.3702 213.744C80.2802 213.852 80.1242 213.726 80.1962 213.6Z" fill="#263238"/>
<path d="M130.507 82.482C133.105 88.182 146.227 96.036 152.371 96.882C156.787 97.482 170.215 97.698 174.817 96.996C180.217 96.168 176.089 81.618 172.903 81.996C164.143 83.016 156.703 84.156 154.363 84.156C151.507 84.156 136.057 79.2 134.197 78.498C129.637 76.8 129.037 79.248 130.507 82.482Z" fill="#EB9481"/>
<path d="M130.59 84C133.878 88.866 144.804 96.822 144.804 96.822L146.322 93.462L151.344 82.35C151.344 82.35 141.306 79.2 134.7 77.76C133.923 77.5831 133.132 77.4707 132.336 77.424C128.118 77.196 127.752 79.8 130.59 84Z" fill="#D148A6"/>
<path d="M130.59 84C133.878 88.866 144.804 96.822 144.804 96.822L146.322 93.462C142.248 88.728 135.954 81.558 132.336 77.436C128.118 77.196 127.752 79.8 130.59 84Z" fill="#263238"/>
<path d="M142.836 94.566C143.67 92.52 147.378 84.282 148.302 82.566C148.362 82.446 148.458 82.458 148.404 82.566C146.796 86.6627 144.965 90.6687 142.92 94.566C142.896 94.638 142.8 94.614 142.836 94.566Z" fill="#263238"/>
<path d="M171.295 82.146C176.623 81.45 183.217 80.256 188.803 82.626C189.43 82.8721 189.957 83.3223 190.297 83.904C192.817 84.924 193.093 86.418 193.093 86.418C195.151 88.086 195.223 89.658 195.223 89.658C195.223 89.658 198.175 90.858 197.725 92.79C197.233 94.926 193.189 92.79 190.249 92.964C183.499 93.384 174.049 95.862 172.099 96.174L171.295 82.146Z" fill="#EB9481"/>
<path d="M182.869 88.434C184.843 88.299 186.823 88.299 188.797 88.434C190.946 88.7037 193.072 89.1349 195.157 89.724C195.17 89.7288 195.185 89.728 195.198 89.7218C195.211 89.7156 195.221 89.7045 195.226 89.691C195.231 89.6775 195.23 89.6626 195.224 89.6497C195.217 89.6367 195.206 89.6268 195.193 89.622C191.277 88.0855 187.014 87.6538 182.869 88.374C182.773 88.362 182.773 88.44 182.869 88.434Z" fill="#263238"/>
<path d="M181.615 82.2C184.909 82.368 186.967 82.896 190.279 83.892V83.856C186.631 82.332 185.137 82.188 181.597 82.056C181.483 82.104 181.489 82.2 181.615 82.2Z" fill="#263238"/>
<path d="M182.148 93.984C181.29 94.386 181.5 94.836 183.138 95.214C184.776 95.592 191.586 95.706 191.346 98.082C191.106 100.458 181.5 100.158 178.818 99.318C176.136 98.478 172.098 96.174 172.098 96.174C174 95.856 178.464 94.65 182.148 93.984Z" fill="#EB9481"/>
<path d="M137.64 91.566C137.598 92.592 137.502 93.636 137.358 94.674C137.358 94.632 137.358 94.596 137.4 94.56C137.598 94.02 137.796 93.468 138.036 92.946C138.036 92.946 138.096 92.946 138.09 92.946C137.974 93.518 137.802 94.0768 137.574 94.614C137.466 94.872 137.364 95.124 137.25 95.376C137.178 95.838 137.094 96.294 137.004 96.75C136.824 97.608 136.014 101.256 135.804 101.874C135.768 102 135.612 101.97 135.624 101.826C135.666 101.154 136.344 97.356 136.482 96.492C136.75 94.8237 137.108 93.1713 137.556 91.542C137.586 91.512 137.646 91.536 137.64 91.566Z" fill="#263238"/>
<path d="M131.4 118.848C129.798 119.67 127.734 120.948 118.434 119.118C117.834 118.998 117.27 118.854 116.682 118.68C107.964 116.064 97.4821 105.81 96.9121 105.084C96.9121 105.084 110.766 82.626 128.484 75.564C130.674 74.694 134.298 76.374 136.284 78.468C136.998 79.218 138.552 84.732 137.958 89.196C137.364 93.66 132.996 118.026 131.4 118.848Z" fill="#D148A6"/>
<path d="M130.153 88.992C130.22 89.941 130.087 90.8935 129.763 91.788C129.687 90.8387 129.82 89.8843 130.153 88.992Z" fill="white"/>
<path d="M124.11 104.286C124.148 104.758 124.132 105.233 124.062 105.702C124.004 106.174 123.889 106.638 123.72 107.082C123.678 106.608 123.694 106.13 123.768 105.66C123.829 105.19 123.944 104.73 124.11 104.286Z" fill="white"/>
<path d="M113.844 92.724C113.912 93.675 113.779 94.6296 113.454 95.526C113.379 94.5748 113.512 93.6185 113.844 92.724Z" fill="white"/>
<path d="M134.106 103.506C134.144 103.98 134.128 104.457 134.058 104.928C134 105.4 133.885 105.864 133.716 106.308C133.674 105.834 133.69 105.356 133.764 104.886C133.824 104.414 133.939 103.951 134.106 103.506Z" fill="white"/>
<path d="M120.924 90.744C121.396 90.7038 121.871 90.7179 122.34 90.786C122.812 90.8459 123.276 90.9627 123.72 91.134C122.771 91.2022 121.818 91.0693 120.924 90.744Z" fill="white"/>
<path d="M109.271 101.79C110.221 101.723 111.173 101.856 112.067 102.18C111.118 102.256 110.164 102.123 109.271 101.79Z" fill="white"/>
<path d="M123 113.748C123.949 113.68 124.902 113.813 125.796 114.138C124.847 114.213 123.893 114.08 123 113.748Z" fill="white"/>
<path d="M105.678 109.404C106.627 109.337 107.579 109.47 108.474 109.794C107.524 109.869 106.57 109.736 105.678 109.404Z" fill="white"/>
<path d="M130.062 78.24C131.012 78.1731 131.964 78.306 132.858 78.63C131.909 78.6969 130.957 78.564 130.062 78.24Z" fill="white"/>
<path d="M126.671 82.068C126.368 82.4326 126.022 82.759 125.639 83.04C125.268 83.3275 124.865 83.573 124.439 83.772C124.741 83.4097 125.083 83.0835 125.459 82.8C125.835 82.5114 126.241 82.2659 126.671 82.068Z" fill="white"/>
<path d="M108.199 92.946C107.892 93.3075 107.544 93.6317 107.161 93.912C106.793 94.2049 106.39 94.4508 105.961 94.644C106.27 94.2841 106.618 93.96 106.999 93.678C107.368 93.3863 107.771 93.1405 108.199 92.946Z" fill="white"/>
<path d="M131.267 97.854C130.96 98.2174 130.612 98.5436 130.229 98.826C129.86 99.1177 129.457 99.3635 129.029 99.558C129.336 99.1947 129.685 98.8684 130.067 98.586C130.438 98.2972 130.841 98.0517 131.267 97.854Z" fill="white"/>
<path d="M116.328 107.262C116.021 107.625 115.673 107.952 115.29 108.234C114.92 108.525 114.518 108.771 114.09 108.966C114.397 108.603 114.745 108.276 115.128 107.994C115.499 107.705 115.901 107.46 116.328 107.262Z" fill="white"/>
<path d="M136.992 85.002C136.685 85.3654 136.337 85.6916 135.954 85.974C135.582 86.2615 135.18 86.507 134.754 86.706C135.061 86.3427 135.409 86.0165 135.792 85.734C136.161 85.4432 136.564 85.1975 136.992 85.002Z" fill="white"/>
<path d="M136.681 95.904C136.317 95.5971 135.991 95.2487 135.709 94.866C135.417 94.4974 135.171 94.0944 134.977 93.666C135.341 93.9693 135.668 94.3159 135.949 94.698C136.235 95.0725 136.481 95.4769 136.681 95.904Z" fill="white"/>
<path d="M103.38 103.416C103.016 103.109 102.69 102.761 102.408 102.378C102.119 102.007 101.873 101.604 101.676 101.178C102.039 101.485 102.365 101.833 102.648 102.216C102.939 102.585 103.184 102.988 103.38 103.416Z" fill="white"/>
<path d="M132.63 112.35C132.265 112.047 131.939 111.7 131.658 111.318C131.37 110.946 131.125 110.544 130.926 110.118C131.289 110.425 131.615 110.773 131.898 111.156C132.187 111.524 132.433 111.925 132.63 112.35Z" fill="white"/>
<path d="M117.972 86.88C117.608 86.5752 117.282 86.2288 117 85.848C116.713 85.4754 116.468 85.0731 116.268 84.648C116.632 84.9513 116.959 85.2979 117.24 85.68C117.526 86.0526 117.771 86.4549 117.972 86.88Z" fill="white"/>
<path d="M118.229 117.438C117.866 117.131 117.54 116.783 117.257 116.4C116.97 116.028 116.724 115.626 116.525 115.2C116.89 115.503 117.216 115.85 117.497 116.232C117.786 116.605 118.032 117.01 118.229 117.438Z" fill="white"/>
<path d="M120.719 99.414C120.36 99.1053 120.036 98.7571 119.753 98.376C119.461 98.008 119.215 97.6049 119.021 97.176C119.383 97.483 119.707 97.8314 119.987 98.214C120.279 98.5829 120.525 98.9858 120.719 99.414Z" fill="white"/>
<path d="M133.039 84.45C130.777 84.03 128.653 79.356 128.383 76.212C128.383 75.996 129.439 74.286 130.645 72.144C131.377 70.842 132.151 69.372 132.769 67.98C132.895 67.698 133.633 68.652 133.633 68.652L135.241 69.852L140.551 73.926C139.286 75.4433 138.212 77.1097 137.353 78.888C137.268 79.0807 137.204 79.2818 137.161 79.488C137.158 79.5219 137.158 79.556 137.161 79.59C136.831 80.778 135.217 84.852 133.039 84.45Z" fill="#EB9481"/>
<path d="M137.16 79.518C137.158 79.552 137.158 79.586 137.16 79.62C136.845 79.5276 136.538 79.4092 136.242 79.266C130.428 76.542 132.99 68.754 132.99 68.754L135.27 69.882L140.58 73.956C139.316 75.4733 138.242 77.1397 137.382 78.918C137.287 79.1095 137.212 79.3107 137.16 79.518Z" fill="#263238"/>
<path d="M146.652 57.348C146.652 57.348 149.31 59.034 149.322 62.034C149.334 65.034 148.122 67.968 147.87 68.076C147.618 68.184 146.652 57.348 146.652 57.348Z" fill="#263238"/>
<path d="M133.463 58.908C131.867 62.058 131.951 71.988 133.943 74.544C136.835 78.252 142.403 79.53 145.769 75.864C149.027 72.312 148.691 59.376 146.369 56.964C142.991 53.4 135.827 54.246 133.463 58.908Z" fill="#EB9481"/>
<path d="M141.936 66.858C141.936 66.858 141.882 66.894 141.888 66.918C141.924 67.596 141.852 68.376 141.246 68.616C141.246 68.616 141.246 68.658 141.246 68.652C141.996 68.532 142.08 67.494 141.936 66.858Z" fill="#263238"/>
<path d="M141.318 66.168C140.226 66.108 140.19 68.292 141.204 68.346C142.218 68.4 142.23 66.216 141.318 66.168Z" fill="#263238"/>
<path d="M145.638 66.834C145.638 66.834 145.692 66.834 145.692 66.894C145.656 67.572 145.734 68.352 146.346 68.586C146.346 68.586 146.346 68.628 146.346 68.622C145.59 68.508 145.5 67.47 145.638 66.834Z" fill="#263238"/>
<path d="M146.257 66.138C147.343 66.072 147.397 68.256 146.389 68.316C145.381 68.376 145.345 66.192 146.257 66.138Z" fill="#263238"/>
<path d="M140.634 64.506C140.921 64.4244 141.203 64.3283 141.48 64.218C141.795 64.161 142.082 64.0005 142.296 63.762C142.348 63.6747 142.37 63.5727 142.358 63.4718C142.346 63.3709 142.301 63.2768 142.23 63.204C142.068 63.0806 141.875 63.0027 141.673 62.9784C141.47 62.9542 141.265 62.9844 141.078 63.066C140.673 63.1744 140.323 63.4287 140.094 63.78C140.049 63.8636 140.028 63.9585 140.034 64.0535C140.041 64.1485 140.075 64.2396 140.132 64.316C140.188 64.3924 140.266 64.4509 140.355 64.4846C140.444 64.5183 140.541 64.5257 140.634 64.506Z" fill="#263238"/>
<path d="M147.001 65.472C146.709 65.4068 146.421 65.3267 146.137 65.232C145.821 65.1902 145.527 65.0446 145.303 64.818C145.245 64.7346 145.217 64.634 145.224 64.5327C145.23 64.4314 145.271 64.3353 145.339 64.26C145.494 64.1277 145.681 64.0395 145.882 64.0047C146.082 63.9698 146.288 63.9896 146.479 64.062C146.889 64.1471 147.253 64.3825 147.499 64.722C147.55 64.8024 147.577 64.8959 147.576 64.9913C147.576 65.0867 147.547 65.1798 147.494 65.2593C147.441 65.3388 147.367 65.4012 147.279 65.439C147.191 65.4767 147.095 65.4882 147.001 65.472Z" fill="#263238"/>
<path d="M140.4 73.272C140.562 73.434 140.718 73.65 140.964 73.674C141.216 73.6739 141.466 73.6207 141.696 73.518C141.696 73.518 141.738 73.518 141.696 73.554C141.598 73.6859 141.465 73.7885 141.313 73.8509C141.161 73.9132 140.995 73.933 140.832 73.908C140.695 73.8706 140.572 73.7939 140.478 73.6872C140.384 73.5805 140.324 73.4487 140.304 73.308C140.299 73.2953 140.3 73.2812 140.305 73.2688C140.311 73.2564 140.321 73.2468 140.334 73.242C140.347 73.2372 140.361 73.2377 140.373 73.2433C140.386 73.249 140.395 73.2593 140.4 73.272Z" fill="#263238"/>
<path d="M144.324 70.38C144.324 70.38 144.354 71.388 144.324 71.862C143.402 71.7642 142.471 71.7965 141.558 71.958C141.342 72.006 141.366 71.832 141.612 71.718C142.347 71.3819 143.166 71.2733 143.964 71.406C144.012 71.28 143.886 69.846 143.964 69.852C144.327 69.9233 144.678 70.0444 145.008 70.212C145.008 68.1 144.672 66.012 144.702 63.9C144.702 63.828 144.816 63.816 144.828 63.9C145.254 66.1342 145.455 68.4056 145.428 70.68C145.434 70.938 144.504 70.476 144.324 70.38Z" fill="#263238"/>
<path d="M142.974 71.502C142.735 72.1311 142.291 72.6615 141.714 73.008C140.808 73.374 140.514 72.552 141.426 71.808C141.904 71.5663 142.44 71.4604 142.974 71.502Z" fill="#263238"/>
<path d="M142.033 72.822C141.937 72.9 141.83 72.9627 141.715 73.008C140.881 73.344 140.551 72.678 141.223 72.006C141.679 72.042 142.201 72.21 142.033 72.822Z" fill="#FF99BA"/>
<path d="M133.009 67.398C134.107 67.734 135.367 64.434 135.727 63.198C136.039 62.082 136.399 58.536 136.453 58.29C136.507 58.044 141.253 61.428 144.001 60.624C146.749 59.82 148.615 57.33 148.657 56.172C148.699 55.014 145.261 52.074 142.291 51.924C139.321 51.774 135.295 55.524 135.295 55.524C135.781 54.9721 136.223 54.3822 136.615 53.76C136.567 53.628 134.647 54.396 134.293 55.764C134.293 55.764 134.677 54.042 134.533 54.012C134.389 53.982 132.895 55.452 133.231 56.568C133.231 56.568 131.503 58.062 131.347 59.7C131.191 61.338 131.719 67.002 133.009 67.398Z" fill="#263238"/>
<path d="M145.969 60C145.152 60.4431 144.272 60.7588 143.359 60.936C142.335 61.0274 141.304 60.8624 140.359 60.456C139.407 60.0884 138.523 59.5653 137.743 58.908C137.053 58.344 136.435 57.654 135.697 57.15C135.511 57.018 135.301 57.288 135.415 57.456C136.646 59.1952 138.405 60.4912 140.431 61.152C141.372 61.4588 142.376 61.5161 143.346 61.3184C144.316 61.1207 145.217 60.6747 145.963 60.024C145.963 60.024 145.981 60 145.969 60Z" fill="#263238"/>
<path d="M134.154 67.104C134.154 67.104 132.45 63.648 130.914 64.206C129.378 64.764 130.314 69.546 131.892 70.422C132.085 70.5471 132.302 70.6318 132.529 70.6711C132.756 70.7105 132.988 70.7036 133.212 70.6509C133.436 70.5983 133.647 70.5009 133.833 70.3646C134.019 70.2284 134.175 70.0561 134.292 69.858L134.154 67.104Z" fill="#EB9481"/>
<path d="M131.221 65.568C131.221 65.568 131.185 65.568 131.221 65.616C132.313 66.264 132.757 67.416 133.021 68.616C132.971 68.489 132.895 68.3742 132.796 68.2798C132.698 68.1853 132.58 68.1133 132.451 68.0688C132.322 68.0243 132.185 68.0083 132.049 68.022C131.914 68.0357 131.783 68.0787 131.665 68.148C131.629 68.148 131.665 68.214 131.665 68.214C131.88 68.1806 132.099 68.2146 132.294 68.3113C132.488 68.4081 132.648 68.5627 132.751 68.754C132.923 69.0744 133.06 69.4123 133.159 69.762C133.195 69.876 133.393 69.846 133.375 69.72C133.633 68.226 132.793 65.964 131.221 65.568Z" fill="#263238"/>
<path d="M122.904 82.536C121.704 89.334 129.072 112.236 133.794 116.514C140.82 122.874 153.81 127.056 158.52 128.418C160.572 129.018 166.248 114.576 164.172 113.622C159.726 111.6 145.914 107.28 144.6 106.2C143.286 105.12 135.366 93.678 131.838 87.09C127.116 78.222 123.498 79.098 122.904 82.536Z" fill="#EB9481"/>
<path d="M160.675 112.35C160.675 112.35 166.807 113.916 170.761 115.122C172.969 115.8 176.653 117.294 178.051 118.53C180.139 120.384 187.687 129.456 185.527 131.334C183.571 133.038 178.075 124.416 178.075 124.416C178.075 124.416 184.387 132.624 181.675 134.238C178.963 135.852 174.001 125.286 174.001 125.286C174.001 125.286 180.295 133.866 177.217 135.084C174.889 136.002 169.897 126.684 169.897 126.684C169.897 126.684 175.261 134.094 172.897 135.144C170.293 136.308 165.151 127.992 165.151 127.992C158.719 129.654 154.951 127.812 152.473 126.192C151.891 125.796 160.675 112.35 160.675 112.35Z" fill="#EB9481"/>
<path d="M176.07 121.434C176.85 122.37 177.642 123.318 178.332 124.32C179.022 125.322 179.676 126.354 180.27 127.416C181.075 128.79 181.719 130.251 182.19 131.772C181.158 129.132 178.74 125.502 178.05 124.5C177.36 123.498 176.718 122.46 176.034 121.458C176.016 121.434 176.052 121.41 176.07 121.434Z" fill="#263238"/>
<path d="M172.405 123.864C173.737 124.92 176.527 128.844 177.601 131.478C177.649 131.586 177.601 131.58 177.523 131.478C176.683 130.176 173.275 125.136 172.375 123.882C172.357 123.864 172.387 123.846 172.405 123.864Z" fill="#263238"/>
<path d="M168.883 125.4C170.538 127.136 171.845 129.173 172.735 131.4C172.777 131.508 172.692 131.49 172.626 131.4C171.384 129.378 170.424 127.8 168.816 125.454C168.792 125.4 168.847 125.346 168.883 125.4Z" fill="#263238"/>
<path d="M129.6 83.034C124.122 75.288 120.846 78.156 121.944 86.568C122.976 94.434 125.73 103.806 125.73 103.806L139.53 97.11C139.53 97.11 133.086 87.996 129.6 83.034Z" fill="#D148A6"/>
<path d="M132.93 86.082C133.112 86.5195 133.243 86.9765 133.32 87.444C133.405 87.913 133.435 88.3901 133.41 88.866C133.23 88.4262 133.102 87.9672 133.026 87.498C132.937 87.0316 132.905 86.5561 132.93 86.082Z" fill="white"/>
<path d="M124.752 90.792C125.633 90.4338 126.58 90.2701 127.53 90.312C127.092 90.4919 126.635 90.6208 126.168 90.696C125.702 90.7851 125.226 90.8173 124.752 90.792Z" fill="white"/>
<path d="M125.106 78.744C124.735 79.6209 124.181 80.4084 123.48 81.054C123.852 80.1771 124.406 79.3896 125.106 78.744Z" fill="white"/>
<path d="M136.8 94.41C136.618 94.8488 136.386 95.2655 136.11 95.652C135.841 96.0434 135.527 96.4019 135.174 96.72C135.545 95.8431 136.1 95.0556 136.8 94.41Z" fill="white"/>
<path d="M127.201 99.108C126.761 98.928 126.344 98.6964 125.959 98.418C125.567 98.1491 125.209 97.8349 124.891 97.482C125.767 97.8536 126.555 98.4079 127.201 99.108Z" fill="white"/>
<path d="M131.399 85.368C132.137 86.382 132.899 87.372 133.655 88.368C133.463 87.864 133.295 87.354 133.151 86.838H133.187C133.337 87.234 133.511 87.624 133.655 88.038L133.871 88.638C133.89 88.6789 133.906 88.721 133.919 88.764C134.519 89.538 135.119 90.312 135.671 91.104C136.349 92.052 137.003 93.012 137.663 93.972C138.323 94.932 138.989 96.126 139.703 97.092C139.769 97.176 138.503 97.692 138.365 97.758C138.227 97.824 138.155 97.71 138.287 97.668C138.419 97.626 139.427 97.008 139.439 96.996C138.779 96.024 138.017 95.13 137.327 94.188C136.637 93.246 135.953 92.304 135.287 91.35C133.937 89.406 132.701 87.39 131.357 85.44L131.399 85.368Z" fill="#263238"/>
<path d="M122.268 92.136C122.478 92.544 122.706 92.946 122.868 93.366L123.096 93.888C122.778 92.394 122.496 90.888 122.166 89.394C122.802 91.794 123.444 94.248 124.032 96.684C124.59 99.012 125.268 101.364 125.592 103.74C126.01 103.556 126.444 103.41 126.888 103.302C126.442 103.59 125.963 103.822 125.46 103.992C124.737 101.576 124.136 99.1248 123.66 96.648C123.51 95.976 123.372 95.304 123.228 94.632C123.072 94.224 122.886 93.834 122.7 93.432C122.514 93.03 122.346 92.58 122.178 92.154C122.214 92.13 122.256 92.106 122.268 92.136Z" fill="#263238"/>
<path d="M125.934 101.49C127.854 100.41 135.876 96.258 137.67 95.49C137.796 95.436 137.862 95.49 137.736 95.574C133.928 97.7866 130.002 99.7896 125.976 101.574C125.928 101.586 125.88 101.52 125.934 101.49Z" fill="#263238"/>
<path d="M345.792 259.23H162.984L189.414 109.32H372.222L345.792 259.23Z" fill="#D148A6"/>
<path d="M251.982 93.792H192.156L189.414 109.32H253.44L251.982 93.792Z" fill="#D148A6"/>
<g opacity="0.1">
<path d="M345.792 259.23H162.984L189.414 109.32H372.222L345.792 259.23Z" fill="black"/>
<path d="M251.982 93.792H192.156L189.414 109.32H253.44L251.982 93.792Z" fill="black"/>
</g>
<path d="M185.7 100.128C185.3 98.411 185.3 96.625 185.7 94.908C186.1 96.625 186.1 98.411 185.7 100.128Z" fill="#263238"/>
<path d="M180.386 101.664C179.775 101.03 179.248 100.321 178.82 99.552C178.37 98.7994 178.017 97.993 177.77 97.152C178.382 97.7817 178.909 98.4899 179.336 99.258C179.784 100.013 180.137 100.821 180.386 101.664Z" fill="#263238"/>
<path d="M176.545 105.654C174.859 105.141 173.314 104.248 172.027 103.044C172.868 103.288 173.675 103.639 174.427 104.088C175.196 104.519 175.908 105.046 176.545 105.654Z" fill="#263238"/>
<path d="M175.2 111.03C173.483 111.43 171.697 111.43 169.98 111.03C171.697 110.63 173.483 110.63 175.2 111.03Z" fill="#263238"/>
<path d="M176.76 116.346C176.124 116.954 175.414 117.48 174.648 117.912C173.896 118.361 173.089 118.711 172.248 118.956C172.882 118.345 173.591 117.819 174.36 117.39C175.111 116.939 175.918 116.588 176.76 116.346Z" fill="#263238"/>
<path d="M180.745 120.18C180.234 121.869 179.341 123.417 178.135 124.704C178.379 123.862 178.732 123.055 179.185 122.304C179.612 121.533 180.137 120.819 180.745 120.18Z" fill="#263238"/>
<path d="M186.12 121.506C186.329 122.36 186.43 123.237 186.42 124.116C186.433 124.995 186.332 125.873 186.12 126.726C185.905 125.873 185.804 124.995 185.82 124.116C185.81 123.237 185.911 122.36 186.12 121.506Z" fill="#263238"/>
<path d="M191.438 120C192.048 120.633 192.575 121.343 193.004 122.112C193.454 122.863 193.805 123.67 194.048 124.512C192.841 123.225 191.948 121.677 191.438 119.988V120Z" fill="#263238"/>
<path d="M195.271 115.98C196.113 116.222 196.92 116.573 197.671 117.024C198.44 117.453 199.15 117.979 199.783 118.59C198.942 118.348 198.135 117.997 197.383 117.546C196.615 117.117 195.905 116.591 195.271 115.98Z" fill="#263238"/>
<path d="M196.596 110.604C198.315 110.204 200.103 110.204 201.822 110.604C200.103 111.004 198.315 111.004 196.596 110.604Z" fill="#263238"/>
<path d="M195.061 105.288C195.696 104.681 196.406 104.157 197.173 103.728C197.923 103.273 198.73 102.92 199.573 102.678C198.285 103.884 196.737 104.777 195.049 105.288H195.061Z" fill="#263238"/>
<path d="M191.07 101.454C191.317 100.614 191.668 99.8075 192.114 99.054C192.543 98.2854 193.069 97.5755 193.68 96.942C193.438 97.784 193.087 98.5908 192.636 99.342C192.208 100.111 191.681 100.82 191.07 101.454Z" fill="#263238"/>
<path d="M345.523 259.23H162.325L136.309 114.762H319.513L345.523 259.23Z" fill="#D148A6"/>
<path d="M199.794 203.076C203.999 203.076 207.408 199.667 207.408 195.462C207.408 191.257 203.999 187.848 199.794 187.848C195.589 187.848 192.18 191.257 192.18 195.462C192.18 199.667 195.589 203.076 199.794 203.076Z" fill="#263238"/>
<path d="M259.987 203.076C264.192 203.076 267.601 199.667 267.601 195.462C267.601 191.257 264.192 187.848 259.987 187.848C255.782 187.848 252.373 191.257 252.373 195.462C252.373 199.667 255.782 203.076 259.987 203.076Z" fill="#263238"/>
<path d="M240.828 204.294L240.408 203.496C240.372 203.424 236.436 196.152 228.522 196.152C221.322 196.152 219.522 202.998 219.474 203.292L219.258 204.162L217.512 203.742L217.722 202.866C217.722 202.782 219.87 194.352 228.522 194.352C237.522 194.352 241.824 202.32 242.004 202.662L242.424 203.454L240.828 204.294Z" fill="#263238"/>
<path d="M333.427 194.88L333.301 194.28C333.691 194.196 334.075 194.106 334.459 194.004L334.609 194.604C334.201 194.706 333.823 194.796 333.427 194.88Z" fill="#263238"/>
<path d="M336.93 193.914L336.738 193.35C337.488 193.092 338.238 192.81 338.964 192.504L339.198 193.056C338.46 193.368 337.698 193.656 336.93 193.914ZM341.4 192L341.13 191.472C341.832 191.106 342.534 190.71 343.2 190.272L343.512 190.782C342.828 191.256 342.114 191.658 341.4 192ZM345.528 189.462L345.174 188.976C345.822 188.502 346.446 188.004 347.034 187.494L347.43 187.944C346.8 188.49 346.2 189 345.522 189.486L345.528 189.462ZM349.188 186.27L348.75 185.856C349.302 185.256 349.824 184.656 350.304 184.056L350.778 184.422C350.28 185.082 349.746 185.7 349.2 186.294L349.188 186.27ZM352.158 182.43L351.648 182.112C352.063 181.442 352.432 180.744 352.752 180.024L353.304 180.27C352.965 181.021 352.581 181.75 352.152 182.454L352.158 182.43ZM354.144 177.978L353.544 177.81C353.764 177.057 353.926 176.289 354.03 175.512L354.63 175.59C354.531 176.406 354.367 177.212 354.138 178.002L354.144 177.978ZM354.81 173.178H354.21V173.004C354.21 172.278 354.168 171.54 354.096 170.814L354.696 170.754C354.775 171.501 354.815 172.252 354.816 173.004L354.81 173.178ZM353.73 168.48C353.569 167.706 353.369 166.942 353.13 166.188L353.73 166.008C353.976 166.788 354.186 167.58 354.33 168.354L353.73 168.48ZM352.308 163.962C352.02 163.254 351.708 162.528 351.324 161.796L351.864 161.526C352.23 162.27 352.566 163.014 352.86 163.734L352.308 163.962ZM350.208 159.684C349.836 159.03 349.428 158.34 349.008 157.632L349.518 157.314C349.956 158.028 350.37 158.724 350.718 159.39L350.208 159.684ZM347.7 155.61C347.262 154.95 346.818 154.284 346.362 153.618L346.86 153.282C347.316 153.948 347.76 154.614 348.198 155.286L347.7 155.61ZM345 151.638C344.55 150.978 344.094 150.312 343.65 149.652L344.148 149.316C344.592 149.976 345.042 150.642 345.492 151.296L345 151.638ZM342.318 147.642C341.88 146.97 341.454 146.286 341.034 145.602L341.544 145.29C341.964 145.974 342.39 146.646 342.822 147.318L342.318 147.642ZM339.816 143.52C339.408 142.794 339.03 142.074 338.688 141.384L339.228 141.114C339.564 141.798 339.942 142.506 340.338 143.226L339.816 143.52ZM337.686 139.2C337.368 138.45 337.086 137.688 336.822 136.944L337.422 136.752C337.674 137.478 337.956 138.228 338.268 138.966L337.686 139.2ZM336.126 134.622C335.928 133.842 335.754 133.044 335.622 132.222L336.222 132.126C336.354 132.894 336.516 133.674 336.714 134.442L336.126 134.622ZM335.322 129.822C335.262 129.084 335.232 128.34 335.232 127.596V127.398H335.832V127.59C335.832 128.316 335.832 129.048 335.922 129.768L335.322 129.822ZM335.922 125.022L335.322 124.962C335.322 124.8 335.352 124.632 335.37 124.458C335.442 123.816 335.532 123.174 335.64 122.562L336.24 122.664C336.138 123.264 336.048 123.894 335.976 124.524C336 124.71 336 124.872 335.952 125.04L335.922 125.022ZM336.756 120.354L336.156 120.192C336.378 119.4 336.636 118.626 336.924 117.888L337.482 118.104C337.21 118.847 336.977 119.604 336.786 120.372L336.756 120.354ZM366.654 116.856C366.318 116.856 365.97 116.808 365.628 116.76C365.16 116.694 364.692 116.616 364.23 116.526L364.35 115.926C364.794 116.01 365.256 116.088 365.712 116.154C366.036 116.196 366.366 116.226 366.684 116.244L366.654 116.856ZM369.12 116.67L368.994 116.07C369.747 115.915 370.469 115.635 371.13 115.242L371.442 115.752C370.736 116.189 369.961 116.506 369.15 116.688L369.12 116.67ZM338.484 115.956L337.95 115.674C338.333 114.958 338.755 114.265 339.216 113.598L339.708 113.94C339.27 114.593 338.871 115.273 338.514 115.974L338.484 115.956ZM361.884 115.92C361.11 115.674 360.349 115.388 359.604 115.062L359.85 114.51C360.572 114.831 361.311 115.109 362.064 115.344L361.884 115.92ZM373.284 114.048L372.786 113.712C373.214 113.092 373.467 112.369 373.518 111.618L374.118 111.66C374.067 112.521 373.786 113.352 373.302 114.066L373.284 114.048ZM357.444 113.958C356.742 113.55 356.063 113.103 355.41 112.62L355.764 112.14C356.4 112.609 357.061 113.041 357.744 113.436L357.444 113.958ZM341.184 112.086L340.74 111.684C341.284 111.08 341.863 110.509 342.474 109.974L342.87 110.424C342.282 110.951 341.725 111.512 341.202 112.104L341.184 112.086ZM353.538 111.072C352.941 110.522 352.374 109.939 351.84 109.326L352.29 108.93C352.81 109.525 353.361 110.092 353.94 110.628L353.538 111.072ZM373.068 109.446C372.725 108.76 372.25 108.149 371.67 107.646L372.066 107.196C372.704 107.747 373.228 108.418 373.608 109.17L373.068 109.446ZM344.736 108.972L344.394 108.48C345.066 108.022 345.761 107.599 346.476 107.214L346.758 107.742C346.069 108.123 345.4 108.539 344.754 108.99L344.736 108.972ZM350.34 107.412C350.112 107.088 349.89 106.758 349.68 106.416L348.9 106.722L348.672 106.17L349.362 105.894C349.254 105.714 349.146 105.534 349.044 105.354L349.566 105.06C349.686 105.27 349.806 105.48 349.932 105.66C350.268 105.54 350.61 105.426 350.958 105.318L351.132 105.918C350.838 106.008 350.532 106.104 350.256 106.206C350.442 106.5 350.634 106.806 350.856 107.064L350.34 107.412ZM369.738 106.38C369.158 106.091 368.556 105.846 367.938 105.648L367.542 105.522L367.716 104.922L368.124 105.054C368.767 105.259 369.393 105.514 369.996 105.816L369.738 106.38ZM353.43 105.306L353.304 104.706C354.078 104.532 354.882 104.388 355.704 104.274L355.794 104.874C355.002 105 354.216 105.15 353.448 105.324L353.43 105.306ZM365.25 104.982C364.5 104.85 363.708 104.748 362.898 104.676L362.946 104.076C363.78 104.148 364.59 104.25 365.346 104.388L365.25 104.982ZM358.14 104.634L358.098 104.034C358.812 103.992 359.526 103.968 360.234 103.968H360.528V104.568H360.24C359.562 104.586 358.854 104.604 358.158 104.652L358.14 104.634ZM348 103.2C347.676 102.468 347.4 101.706 347.13 100.932L347.73 100.746C347.982 101.502 348.264 102.246 348.576 102.96L348 103.2ZM346.482 98.592C346.302 97.818 346.152 97.014 346.038 96.192L346.638 96.108C346.752 96.9 346.896 97.686 347.07 98.448L346.482 98.592ZM345.81 93.792C345.78 93.252 345.762 92.7 345.762 92.148C345.762 91.89 345.762 91.626 345.762 91.368H346.362C346.362 91.626 346.362 91.878 346.362 92.136C346.362 92.676 346.362 93.222 346.404 93.744L345.81 93.792ZM346.524 88.992L345.924 88.932C346.008 88.14 346.122 87.33 346.26 86.532L346.86 86.634C346.698 87.432 346.584 88.2 346.506 89.004L346.524 88.992ZM347.346 84.306L346.746 84.162C346.938 83.388 347.16 82.608 347.406 81.828L348.006 82.014C347.736 82.8 347.514 83.562 347.328 84.318L347.346 84.306ZM348.786 79.764L348.228 79.548C348.522 78.798 348.828 78.048 349.194 77.322L349.734 77.586C349.374 78.306 349.056 79.038 348.768 79.8L348.786 79.764ZM350.85 75.486L350.328 75.18C350.736 74.49 351.174 73.8 351.63 73.14L352.122 73.482C351.654 74.142 351.228 74.814 350.832 75.498L350.85 75.486ZM353.556 71.58L353.088 71.202C353.592 70.602 354.132 69.966 354.69 69.402L355.122 69.816C354.558 70.38 354.03 70.98 353.538 71.592L353.556 71.58ZM356.82 68.124L356.418 67.68C357.018 67.146 357.618 66.618 358.26 66.108L358.632 66.582C357.99 67.092 357.378 67.614 356.802 68.136L356.82 68.124ZM360.546 65.16L360.204 64.662C360.858 64.212 361.542 63.768 362.238 63.348L362.544 63.858C361.848 64.284 361.2 64.722 360.528 65.172L360.546 65.16ZM364.62 62.682L364.338 62.154C365.046 61.776 365.778 61.416 366.51 61.08L366.762 61.626C366 61.968 365.298 62.328 364.602 62.694L364.62 62.682ZM368.958 60.69L368.736 60.126C369.492 59.832 370.254 59.526 371.01 59.304L371.202 59.904C370.44 60.132 369.684 60.408 368.94 60.702L368.958 60.69Z" fill="#263238"/>
<path d="M373.586 59.172L373.436 58.572C374.18 58.38 374.636 58.296 374.636 58.296L374.744 58.896C374.744 58.896 374.312 58.986 373.586 59.172Z" fill="#263238"/>
<path d="M384.194 55.296C382.664 50.556 372.416 52.26 374.414 58.458C376.412 64.656 385.724 60.042 384.194 55.296Z" fill="#263238"/>
<path d="M368.839 53.4C368.917 51.318 371.81 49.716 375.902 50.454C379.994 51.192 383.839 53.952 383.839 53.952C383.839 53.952 379.801 56.4 375.667 56.85C371.533 57.3 368.761 55.476 368.839 53.4Z" fill="#EBEBEB"/>
<path d="M383.839 53.94C381.715 53.94 379.597 53.88 377.479 53.814C375.361 53.748 373.237 53.64 371.119 53.472C373.243 53.472 375.367 53.526 377.485 53.592C379.603 53.658 381.727 53.766 383.839 53.94Z" fill="#263238"/>
<path d="M372.949 51.546C374.155 52.1229 375.292 52.8333 376.339 53.664C375.736 53.3809 375.151 53.0602 374.587 52.704C374.019 52.3503 373.472 51.9636 372.949 51.546Z" fill="#263238"/>
<path d="M378.51 53.742C377.425 54.6217 376.248 55.382 375 56.01C376.091 55.1293 377.274 54.3688 378.528 53.742H378.51Z" fill="#263238"/>
<path d="M379.129 52.572C379.734 52.8627 380.264 53.2899 380.677 53.82C380.374 53.6771 380.09 53.4978 379.831 53.286C379.57 53.0756 379.335 52.836 379.129 52.572Z" fill="#263238"/>
<path d="M372.738 65.73C374.016 67.374 377.298 66.978 380.184 63.99C383.07 61.002 384.6 56.508 384.6 56.508C384.6 56.508 379.872 56.868 376.266 58.908C372.66 60.948 371.454 64.08 372.738 65.73Z" fill="#EBEBEB"/>
<path d="M384.601 56.508C382.873 57.708 381.193 59.04 379.507 60.33C377.821 61.62 376.171 62.952 374.557 64.326C376.285 63.126 377.965 61.8 379.645 60.51C381.325 59.22 382.963 57.888 384.601 56.508Z" fill="#263238"/>
<path d="M377.148 64.8C377.469 64.2172 377.756 63.6162 378.006 63C378.262 62.3821 378.478 61.7489 378.654 61.104C378.333 61.6863 378.046 62.2874 377.796 62.904C377.544 63.5228 377.327 64.1559 377.148 64.8Z" fill="#263238"/>
<path d="M380.401 59.784C378.997 59.709 377.589 59.7834 376.201 60.006C376.901 60.048 377.602 60.048 378.301 60.006C379.005 59.9717 379.706 59.8976 380.401 59.784Z" fill="#263238"/>
<path d="M381.559 60.378C381.719 60.0817 381.844 59.7676 381.931 59.442C382.019 59.1189 382.072 58.7868 382.087 58.452C381.768 59.046 381.587 59.7044 381.559 60.378Z" fill="#263238"/>
<path d="M384.192 55.296C383.853 55.406 383.489 55.413 383.146 55.3161C382.803 55.2192 382.497 55.0227 382.266 54.7516C382.035 54.4804 381.889 54.1468 381.848 53.7929C381.807 53.4391 381.871 53.0809 382.034 52.7638C382.196 52.4466 382.449 52.1848 382.76 52.0114C383.071 51.8381 383.427 51.761 383.782 51.7899C384.137 51.8189 384.476 51.9525 384.755 52.174C385.034 52.3955 385.241 52.6948 385.35 53.034C385.495 53.4875 385.455 53.9803 385.238 54.4042C385.021 54.8282 384.645 55.1489 384.192 55.296Z" fill="#455A64"/>
<path d="M385.298 58.722C384.959 58.8316 384.595 58.8383 384.253 58.7413C383.91 58.6443 383.604 58.448 383.373 58.177C383.143 57.9061 382.997 57.5729 382.956 57.2193C382.914 56.8658 382.978 56.5079 383.14 56.1909C383.302 55.8739 383.554 55.612 383.865 55.4383C384.176 55.2646 384.531 55.1869 384.886 55.2151C385.241 55.2432 385.579 55.376 385.859 55.5965C386.138 55.817 386.346 56.1154 386.456 56.454C386.529 56.679 386.556 56.9161 386.538 57.1518C386.519 57.3876 386.454 57.6173 386.346 57.828C386.239 58.0386 386.091 58.226 385.911 58.3794C385.731 58.5328 385.523 58.6492 385.298 58.722Z" fill="#455A64"/>
<path d="M188.587 57.192C188.3 59.9479 187.252 62.5697 185.561 64.7648C183.87 66.96 181.603 68.642 179.011 69.6234C176.42 70.6048 173.607 70.8468 170.886 70.3225C168.166 69.7981 165.644 68.5281 163.603 66.654L156.121 67.752L159.865 61.284C159.009 59.1794 158.644 56.9074 158.797 54.6405C158.95 52.3737 159.618 50.1715 160.75 48.2014C161.882 46.2313 163.448 44.5451 165.329 43.2708C167.21 41.9964 169.357 41.1676 171.606 40.8471C173.855 40.5266 176.148 40.723 178.31 41.4213C180.472 42.1196 182.447 43.3015 184.084 44.8771C185.721 46.4527 186.977 48.3807 187.757 50.5146C188.538 52.6484 188.821 54.9321 188.587 57.192Z" fill="white"/>
<path d="M188.587 57.192C188.305 59.9465 187.267 62.5693 185.587 64.77C184.766 65.883 183.776 66.8609 182.653 67.668C181.554 68.5054 180.342 69.1822 179.053 69.678C177.763 70.186 176.407 70.5092 175.027 70.638C174.336 70.6999 173.643 70.714 172.951 70.68C172.256 70.6622 171.564 70.5899 170.881 70.464C168.123 69.9567 165.561 68.6914 163.483 66.81L163.657 66.864L156.187 68.01L155.641 68.094L155.917 67.614L159.637 61.134V61.392C158.759 59.2486 158.386 56.932 158.546 54.6213C158.706 52.3107 159.395 50.0678 160.561 48.066C161.724 46.0705 163.324 44.364 165.241 43.074C167.154 41.8012 169.33 40.978 171.607 40.6663C173.884 40.3545 176.202 40.5623 178.387 41.274C180.548 42.0095 182.519 43.219 184.153 44.814C185.783 46.4051 187.03 48.3466 187.798 50.4913C188.566 52.636 188.836 54.9275 188.587 57.192ZM188.587 57.192C188.829 54.9387 188.55 52.6598 187.772 50.5313C186.994 48.4027 185.737 46.4815 184.099 44.9159C182.46 43.3504 180.483 42.1823 178.322 41.5019C176.16 40.8216 173.871 40.6471 171.631 40.992C169.413 41.3202 167.301 42.1537 165.457 43.428C163.628 44.7124 162.101 46.3788 160.981 48.312C159.878 50.2495 159.227 52.4115 159.079 54.636C158.933 56.8756 159.293 59.1193 160.135 61.2L160.189 61.332L160.117 61.458L156.349 67.914L156.085 67.518L163.573 66.468H163.675L163.747 66.534C165.748 68.397 168.229 69.6664 170.911 70.2C171.579 70.3362 172.257 70.4184 172.939 70.446C173.62 70.494 174.303 70.494 174.985 70.446C176.351 70.3359 177.695 70.0392 178.981 69.564C180.269 69.095 181.482 68.44 182.581 67.62C183.699 66.8194 184.69 65.8545 185.521 64.758C187.222 62.568 188.284 59.949 188.587 57.192Z" fill="#263238"/>
<path d="M166.405 62.61C166.393 62.4114 166.423 62.2125 166.491 62.0257C166.56 61.8389 166.666 61.6682 166.803 61.5241C166.941 61.3801 167.106 61.2658 167.289 61.1884C167.473 61.111 167.67 61.072 167.869 61.074C168.276 61.074 168.667 61.2358 168.955 61.5239C169.243 61.8119 169.405 62.2026 169.405 62.61C169.405 63.0174 169.243 63.4081 168.955 63.6961C168.667 63.9842 168.276 64.146 167.869 64.146C167.67 64.148 167.473 64.109 167.289 64.0316C167.106 63.9542 166.941 63.8399 166.803 63.6959C166.666 63.5518 166.56 63.3811 166.491 63.1943C166.423 63.0075 166.393 62.8086 166.405 62.61ZM167.005 59.064L166.657 47.16H169.057L168.709 59.064H167.005Z" fill="#D148A6"/>
<path d="M172.11 62.61C172.098 62.4119 172.128 62.2135 172.196 62.0271C172.264 61.8407 172.37 61.6703 172.506 61.5263C172.643 61.3824 172.808 61.268 172.99 61.1902C173.173 61.1124 173.369 61.0729 173.568 61.074C173.975 61.074 174.366 61.2358 174.654 61.5239C174.942 61.8119 175.104 62.2026 175.104 62.61C175.104 63.0174 174.942 63.4081 174.654 63.6961C174.366 63.9842 173.975 64.146 173.568 64.146C173.369 64.1472 173.173 64.1076 172.99 64.0298C172.808 63.952 172.643 63.8376 172.506 63.6937C172.37 63.5497 172.264 63.3793 172.196 63.1929C172.128 63.0065 172.098 62.8081 172.11 62.61ZM172.71 59.064L172.38 47.16H174.78L174.432 59.064H172.71Z" fill="#D148A6"/>
<path d="M177.811 62.61C177.8 62.4114 177.829 62.2125 177.897 62.0257C177.966 61.8389 178.072 61.6682 178.21 61.5241C178.347 61.3801 178.512 61.2658 178.696 61.1884C178.879 61.111 179.076 61.072 179.275 61.074C179.682 61.074 180.073 61.2358 180.361 61.5239C180.649 61.8119 180.811 62.2026 180.811 62.61C180.811 63.0174 180.649 63.4081 180.361 63.6961C180.073 63.9842 179.682 64.146 179.275 64.146C179.076 64.148 178.879 64.109 178.696 64.0316C178.512 63.9542 178.347 63.8399 178.21 63.6959C178.072 63.5518 177.966 63.3811 177.897 63.1943C177.829 63.0075 177.8 62.8086 177.811 62.61ZM178.411 59.064L178.063 47.16H180.463L180.121 59.064H178.411Z" fill="#D148A6"/>
</svg>
