<svg width="34" height="34" viewBox="0 0 34 34" fill="none" xmlns="http://www.w3.org/2000/svg">
<rect width="34" height="34" rx="17" fill="#1B1B1B"/>
<path d="M15.586 15.0631V14.7027L15.4963 11.5495C15.4963 8.51652 16.2444 7 17.7406 7C18.4289 7 18.8928 7.43544 19.1322 8.30631L19.0424 15.0631H24.6983C25.5661 15.2132 26 15.6186 26 16.2793C26 16.7598 25.8204 17.2252 25.4613 17.6757C25.1022 18.0961 24.6683 18.3814 24.1596 18.5315H18.9975C18.9676 18.7417 18.9526 19.0871 18.9526 19.5676C18.9526 19.5676 18.9526 20.2883 18.9526 21.7297C18.9526 21.8198 18.9526 21.9249 18.9526 22.045C18.9526 25.3483 18.2344 27 16.798 27C15.8703 27 15.4065 26.4745 15.4065 25.4234C15.4065 22.3604 15.4514 20.0631 15.5411 18.5315H9.4813C8.49377 18.5315 8 18.1261 8 17.3153C8 16.8348 8.19451 16.3544 8.58354 15.8739C9.00249 15.3934 9.4813 15.1231 10.02 15.0631H15.586Z" fill="#FFC0CB"/>
</svg>
