<svg width="35" height="35" viewBox="0 0 35 35" fill="none" xmlns="http://www.w3.org/2000/svg">
<path d="M16.4644 22.2979C16.4017 22.3672 16.3433 22.4403 16.2894 22.5167C16.2342 22.598 16.1901 22.6863 16.1582 22.7792C16.1161 22.8619 16.0866 22.9503 16.0707 23.0417C16.0635 23.1388 16.0635 23.2363 16.0707 23.3334C16.0657 23.5247 16.1057 23.7144 16.1873 23.8875C16.2528 24.0685 16.3573 24.2329 16.4934 24.3689C16.6295 24.505 16.7939 24.6095 16.9748 24.675C17.1494 24.7522 17.3382 24.792 17.529 24.792C17.7199 24.792 17.9086 24.7522 18.0832 24.675C18.2641 24.6095 18.4285 24.505 18.5646 24.3689C18.7007 24.2329 18.8052 24.0685 18.8707 23.8875C18.9354 23.7102 18.9652 23.522 18.9582 23.3334C18.9593 23.1414 18.9225 22.9512 18.8499 22.7735C18.7774 22.5958 18.6704 22.4342 18.5353 22.2979C18.3997 22.1613 18.2384 22.0528 18.0607 21.9787C17.883 21.9047 17.6924 21.8666 17.4998 21.8666C17.3073 21.8666 17.1167 21.9047 16.939 21.9787C16.7613 22.0528 16.6 22.1613 16.4644 22.2979ZM17.4998 2.91669C14.6155 2.91669 11.796 3.77198 9.39778 5.37442C6.99956 6.97686 5.13038 9.25446 4.0266 11.9192C2.92282 14.584 2.63402 17.5162 3.19673 20.3451C3.75943 23.174 5.14835 25.7725 7.18787 27.812C9.22739 29.8515 11.8259 31.2404 14.6548 31.8031C17.4837 32.3658 20.4159 32.077 23.0806 30.9733C25.7454 29.8695 28.023 28.0003 29.6254 25.6021C31.2279 23.2039 32.0832 20.3843 32.0832 17.5C32.0832 15.5849 31.706 13.6886 30.9731 11.9192C30.2402 10.1499 29.166 8.54223 27.8118 7.18805C26.4576 5.83386 24.85 4.75966 23.0806 4.02678C21.3113 3.2939 19.415 2.91669 17.4998 2.91669V2.91669ZM17.4998 29.1667C15.1924 29.1667 12.9368 28.4825 11.0182 27.2005C9.09962 25.9186 7.60427 24.0965 6.72125 21.9647C5.83823 19.8329 5.60719 17.4871 6.05735 15.224C6.50751 12.9609 7.61865 10.8821 9.25026 9.25044C10.8819 7.61883 12.9607 6.50769 15.2238 6.05753C17.4869 5.60737 19.8327 5.8384 21.9645 6.72143C24.0963 7.60445 25.9184 9.09979 27.2003 11.0184C28.4823 12.9369 29.1665 15.1926 29.1665 17.5C29.1665 20.5942 27.9373 23.5617 25.7494 25.7496C23.5615 27.9375 20.594 29.1667 17.4998 29.1667V29.1667ZM17.4998 10.2084C16.7314 10.2079 15.9764 10.4098 15.3108 10.7938C14.6451 11.1778 14.0924 11.7304 13.7082 12.3959C13.6027 12.5618 13.5318 12.7475 13.4999 12.9415C13.468 13.1356 13.4756 13.3341 13.5224 13.5252C13.5692 13.7162 13.6542 13.8958 13.7722 14.0532C13.8902 14.2105 14.0388 14.3424 14.2091 14.4408C14.3794 14.5392 14.5678 14.6022 14.763 14.6259C14.9583 14.6496 15.1563 14.6336 15.3452 14.5788C15.5341 14.524 15.71 14.4316 15.8622 14.307C16.0144 14.1825 16.1399 14.0285 16.2311 13.8542C16.3596 13.6316 16.5446 13.447 16.7674 13.3189C16.9902 13.1909 17.2429 13.124 17.4998 13.125C17.8866 13.125 18.2575 13.2787 18.531 13.5522C18.8045 13.8256 18.9582 14.1966 18.9582 14.5834C18.9582 14.9701 18.8045 15.3411 18.531 15.6146C18.2575 15.888 17.8866 16.0417 17.4998 16.0417C17.1131 16.0417 16.7421 16.1953 16.4686 16.4688C16.1952 16.7423 16.0415 17.1132 16.0415 17.5V18.9584C16.0415 19.3451 16.1952 19.7161 16.4686 19.9896C16.7421 20.263 17.1131 20.4167 17.4998 20.4167C17.8866 20.4167 18.2575 20.263 18.531 19.9896C18.8045 19.7161 18.9582 19.3451 18.9582 18.9584V18.6959C19.9227 18.3459 20.7335 17.6681 21.2489 16.7809C21.7643 15.8937 21.9515 14.8536 21.7777 13.8424C21.604 12.8311 21.0803 11.9132 20.2984 11.2489C19.5164 10.5846 18.5258 10.2163 17.4998 10.2084V10.2084Z" fill="#1B1B1B"/>
</svg>
