<svg width="35" height="35" viewBox="0 0 35 35" fill="none" xmlns="http://www.w3.org/2000/svg">
<path fill-rule="evenodd" clip-rule="evenodd" d="M24.7917 16.0417C24.7917 20.8742 20.8742 24.7917 16.0417 24.7917C11.2092 24.7917 7.29167 20.8742 7.29167 16.0417C7.29167 11.2092 11.2092 7.29167 16.0417 7.29167C20.8742 7.29167 24.7917 11.2092 24.7917 16.0417ZM23.1957 25.2581C21.2201 26.7938 18.7377 27.7083 16.0417 27.7083C9.59835 27.7083 4.375 22.485 4.375 16.0417C4.375 9.59835 9.59835 4.375 16.0417 4.375C22.485 4.375 27.7083 9.59835 27.7083 16.0417C27.7083 18.7377 26.7938 21.2201 25.2581 23.1957L31.6562 29.5938C32.2257 30.1633 32.2257 31.0867 31.6562 31.6562C31.0867 32.2257 30.1633 32.2257 29.5938 31.6562L23.1957 25.2581Z" fill="#1B1B1B"/>
</svg>
