<svg width="35" height="35" viewBox="0 0 35 35" fill="none" xmlns="http://www.w3.org/2000/svg">
<path d="M7.29183 17.5C6.90506 17.5 6.53412 17.6536 6.26063 17.9271C5.98714 18.2006 5.8335 18.5715 5.8335 18.9583V30.625C5.8335 31.0118 5.98714 31.3827 6.26063 31.6562C6.53412 31.9297 6.90506 32.0833 7.29183 32.0833C7.6786 32.0833 8.04954 31.9297 8.32303 31.6562C8.59652 31.3827 8.75016 31.0118 8.75016 30.625V18.9583C8.75016 18.5715 8.59652 18.2006 8.32303 17.9271C8.04954 17.6536 7.6786 17.5 7.29183 17.5ZM14.5835 2.91666C14.1967 2.91666 13.8258 3.0703 13.5523 3.34379C13.2788 3.61728 13.1252 3.98822 13.1252 4.37499V30.625C13.1252 31.0118 13.2788 31.3827 13.5523 31.6562C13.8258 31.9297 14.1967 32.0833 14.5835 32.0833C14.9703 32.0833 15.3412 31.9297 15.6147 31.6562C15.8882 31.3827 16.0418 31.0118 16.0418 30.625V4.37499C16.0418 3.98822 15.8882 3.61728 15.6147 3.34379C15.3412 3.0703 14.9703 2.91666 14.5835 2.91666V2.91666ZM29.1668 23.3333C28.7801 23.3333 28.4091 23.487 28.1356 23.7605C27.8621 24.0339 27.7085 24.4049 27.7085 24.7917V30.625C27.7085 31.0118 27.8621 31.3827 28.1356 31.6562C28.4091 31.9297 28.7801 32.0833 29.1668 32.0833C29.5536 32.0833 29.9245 31.9297 30.198 31.6562C30.4715 31.3827 30.6252 31.0118 30.6252 30.625V24.7917C30.6252 24.4049 30.4715 24.0339 30.198 23.7605C29.9245 23.487 29.5536 23.3333 29.1668 23.3333ZM21.8752 11.6667C21.4884 11.6667 21.1175 11.8203 20.844 12.0938C20.5705 12.3673 20.4168 12.7382 20.4168 13.125V30.625C20.4168 31.0118 20.5705 31.3827 20.844 31.6562C21.1175 31.9297 21.4884 32.0833 21.8752 32.0833C22.2619 32.0833 22.6329 31.9297 22.9064 31.6562C23.1798 31.3827 23.3335 31.0118 23.3335 30.625V13.125C23.3335 12.7382 23.1798 12.3673 22.9064 12.0938C22.6329 11.8203 22.2619 11.6667 21.8752 11.6667Z" fill="#1B1B1B"/>
</svg>
